<?xml version="1.0" encoding="utf-8"?>
<!-- Generator: Adobe Illustrator 22.1.0, SVG Export Plug-In . SVG Version: 6.00 Build 0)  -->
<svg version="1.1" id="Layer_1" xmlns="http://www.w3.org/2000/svg" xmlns:xlink="http://www.w3.org/1999/xlink" x="0px" y="0px"
	 viewBox="0 0 1024 525.9" style="enable-background:new 0 0 1024 525.9;" xml:space="preserve">
<style type="text/css">
	.st0{opacity:0.6;fill:url(#SVGID_1_);}
	.st1{fill:url(#SVGID_2_);}
	.st2{fill:url(#SVGID_3_);}
	.st3{fill:url(#SVGID_4_);}
	.st4{fill:#D0C1E5;}
	.st5{fill:url(#SVGID_5_);}
	.st6{fill:url(#SVGID_6_);}
	.st7{fill:url(#SVGID_7_);}
	.st8{fill:url(#SVGID_8_);}
	.st9{fill:url(#SVGID_9_);}
	.st10{fill:url(#SVGID_10_);}
	.st11{fill:#FFFFFF;}
</style>
<linearGradient id="SVGID_1_" gradientUnits="userSpaceOnUse" x1="512" y1="343.0438" x2="512" y2="-9.094947e-13">
	<stop  offset="0" style="stop-color:#D0C1E5"/>
	<stop  offset="1" style="stop-color:#D0C1E5;stop-opacity:0"/>
</linearGradient>
<rect class="st0" width="1024" height="343"/>
<g>
	<linearGradient id="SVGID_2_" gradientUnits="userSpaceOnUse" x1="300.8978" y1="45.1336" x2="300.8978" y2="274.1533">
		<stop  offset="0" style="stop-color:#FFFFFF"/>
		<stop  offset="1" style="stop-color:#F2E8FF"/>
	</linearGradient>
	<path class="st1" d="M394.2,215.3h-35.6v51.6H317v-51.6H207.6v-24.3l96.2-143.7h54.9v134.7h35.6V215.3z M251.8,182.1H317v-67.2
		l1-35.9h-0.7c-4.9,11.3-11.5,23.4-20,36.3L251.8,182.1z"/>
	<linearGradient id="SVGID_3_" gradientUnits="userSpaceOnUse" x1="511.6683" y1="45.1336" x2="511.6683" y2="274.1533">
		<stop  offset="0" style="stop-color:#FFFFFF"/>
		<stop  offset="1" style="stop-color:#F2E8FF"/>
	</linearGradient>
	<path class="st2" d="M446,241.6c-14.7-19.1-22.1-47.2-22.1-84.5c0-37.3,7.4-65.4,22.1-84.5C460.7,53.5,482.6,44,511.7,44
		c29.1,0,51,9.5,65.7,28.6c14.7,19.1,22.1,47.2,22.1,84.5c0,37.3-7.4,65.4-22.1,84.5c-14.8,19.1-36.7,28.6-65.7,28.6
		C482.6,270.2,460.7,260.7,446,241.6z M543.3,214.7c6.9-12.4,10.3-31.6,10.3-57.6s-3.4-45.1-10.3-57.6
		c-6.9-12.4-17.4-18.6-31.6-18.6c-14.2,0-24.7,6.2-31.6,18.6c-6.9,12.4-10.3,31.6-10.3,57.6s3.4,45.1,10.3,57.6
		c6.9,12.4,17.4,18.6,31.6,18.6C525.9,233.3,536.4,227.1,543.3,214.7z"/>
	<linearGradient id="SVGID_4_" gradientUnits="userSpaceOnUse" x1="723.1022" y1="45.1336" x2="723.1022" y2="274.1533">
		<stop  offset="0" style="stop-color:#FFFFFF"/>
		<stop  offset="1" style="stop-color:#F2E8FF"/>
	</linearGradient>
	<path class="st3" d="M816.4,215.3h-35.6v51.6h-41.6v-51.6H629.8v-24.3l96.2-143.7h54.9v134.7h35.6V215.3z M674,182.1h65.2v-67.2
		l1-35.9h-0.7c-4.9,11.3-11.5,23.4-20,36.3L674,182.1z"/>
</g>
<g>
	<g>
		<polygon class="st4" points="0,525.9 0,349.7 65.2,304.2 86.2,309.5 158.6,259.9 183.6,253 221.1,271.9 257.4,214.2 295.7,194.3 
			344,245.1 387.8,240.1 433.3,253 469.8,290.9 502.3,234.1 534.1,223.3 616.7,275.9 649.3,328.1 696.4,278.9 778.8,233 
			909.9,281.6 976,300 1024,339.5 1024,524.7 		"/>
	</g>
	<linearGradient id="SVGID_5_" gradientUnits="userSpaceOnUse" x1="87.0031" y1="326.003" x2="186.8819" y2="474.6776">
		<stop  offset="0" style="stop-color:#FFFFFF;stop-opacity:0.5"/>
		<stop  offset="1" style="stop-color:#FFFFFF;stop-opacity:0"/>
	</linearGradient>
	<polygon class="st5" points="133.7,343.6 77.2,307.2 86.4,321.6 66.1,314.9 88.3,347.9 61.4,327.6 66.1,339.2 46.7,331.6 
		79.6,369.2 57.6,360 81.5,420.3 136.9,501.2 270.5,496.8 	"/>
	<linearGradient id="SVGID_6_" gradientUnits="userSpaceOnUse" x1="190.4566" y1="314.0237" x2="379.8094" y2="443.8295">
		<stop  offset="0" style="stop-color:#FFFFFF;stop-opacity:0.5"/>
		<stop  offset="1" style="stop-color:#FFFFFF;stop-opacity:0"/>
	</linearGradient>
	<polygon class="st6" points="183.6,253 192.5,265.3 217.6,285.5 192.5,269.3 173.7,261 190.5,271 202,285.5 179.2,276.1 
		204.1,312.5 193.1,310.8 203.3,342.8 189,331.6 290.5,467.4 353.7,477.3 394.2,424.1 340.3,331.9 	"/>
</g>
<linearGradient id="SVGID_7_" gradientUnits="userSpaceOnUse" x1="291.4731" y1="277.2053" x2="416.4036" y2="277.2053">
	<stop  offset="0" style="stop-color:#FFFFFF;stop-opacity:0.5"/>
	<stop  offset="1" style="stop-color:#FFFFFF;stop-opacity:0"/>
</linearGradient>
<polygon class="st7" points="340.6,283.8 306.7,272.6 291.5,261.9 308,262.9 314.1,255.7 300.9,236.3 310.9,236.3 299.7,227.8 
	308.8,230.2 295.7,215 302.6,213.2 295.7,194.3 369.4,271.7 416.4,360.1 "/>
<linearGradient id="SVGID_8_" gradientUnits="userSpaceOnUse" x1="818.3004" y1="231.8098" x2="918.1792" y2="380.4844">
	<stop  offset="0" style="stop-color:#FFFFFF;stop-opacity:0.5"/>
	<stop  offset="1" style="stop-color:#FFFFFF;stop-opacity:0"/>
</linearGradient>
<polygon class="st8" points="976,300 909.9,281.6 778.8,233 788,247.3 767.7,240.6 789.9,273.6 763,253.3 767.7,265 748.3,257.3 
	781.3,295 759.2,285.7 783.2,346.1 838.5,426.9 972.2,422.5 "/>
<linearGradient id="SVGID_9_" gradientUnits="userSpaceOnUse" x1="432.6433" y1="1159.7361" x2="621.996" y2="1289.542" gradientTransform="matrix(0.9466 0.3223 -0.3223 0.9466 489.6572 -957.346)">
	<stop  offset="0" style="stop-color:#FFFFFF;stop-opacity:0.5"/>
	<stop  offset="1" style="stop-color:#FFFFFF;stop-opacity:0"/>
</linearGradient>
<polygon class="st9" points="534.1,223.3 538.7,237.8 555.8,265 537.4,241.6 522.2,227.7 534.9,242.5 541.1,260 522.6,243.8 
	534.4,286.3 524.5,281 523.9,314.6 514,299.4 566.3,460.7 622.9,490.5 678.4,453.2 649.3,328.1 616.7,275.9 "/>
<linearGradient id="SVGID_10_" gradientUnits="userSpaceOnUse" x1="512" y1="525.8987" x2="512" y2="265.0487">
	<stop  offset="0" style="stop-color:#D0C1E5"/>
	<stop  offset="1" style="stop-color:#EEE3FF;stop-opacity:0"/>
</linearGradient>
<rect y="265" class="st10" width="1024" height="260.9"/>
<path class="st11" d="M1024,525.9c-130.4-34.2-368-48.6-512-48.6S130.4,491.7,0,525.9H1024z"/>
</svg>
