<?xml version="1.0" encoding="utf-8"?>
<!-- Generator: Adobe Illustrator 22.1.0, SVG Export Plug-In . SVG Version: 6.00 Build 0)  -->
<svg version="1.1" id="Layer_1" xmlns="http://www.w3.org/2000/svg" xmlns:xlink="http://www.w3.org/1999/xlink" x="0px" y="0px"
	 viewBox="0 0 682 331.3" style="enable-background:new 0 0 682 331.3;" xml:space="preserve">
<style type="text/css">
	.st0{fill:#FFFFFF;}
	.st1{fill:url(#SVGID_1_);}
	.st2{fill:url(#SVGID_2_);}
	.st3{fill:none;stroke:#E2DAEC;stroke-miterlimit:10;}
	.st4{fill:#F5F5F5;stroke:#EAE3F0;stroke-linecap:round;stroke-miterlimit:10;}
	.st5{fill:#D0C1E5;}
	.st6{opacity:0.2;fill:#D0C1E5;}
	.st7{fill:#C3AFE2;}
</style>
<g>
	<rect x="1.4" y="241.9" class="st0" width="680.6" height="89.4"/>
	
		<radialGradient id="SVGID_1_" cx="412.1465" cy="-239.9493" r="40.9943" gradientTransform="matrix(2.1453 0 0 -0.3379 -542.4778 161.323)" gradientUnits="userSpaceOnUse">
		<stop  offset="0" style="stop-color:#6C3E93;stop-opacity:0.1"/>
		<stop  offset="1" style="stop-color:#6C3E93;stop-opacity:0"/>
	</radialGradient>
	<rect x="251.8" y="241.9" class="st1" width="179.8" height="14.4"/>
	
		<radialGradient id="SVGID_2_" cx="384.5532" cy="-239.9493" r="41.0302" gradientTransform="matrix(1.6602 0 0 -0.3379 -434.1852 161.323)" gradientUnits="userSpaceOnUse">
		<stop  offset="0" style="stop-color:#6C3E93;stop-opacity:0.1"/>
		<stop  offset="1" style="stop-color:#6C3E93;stop-opacity:0"/>
	</radialGradient>
	<rect x="134.7" y="241.9" class="st2" width="139.1" height="14.4"/>
</g>
<line class="st3" x1="1.4" y1="241.9" x2="682" y2="241.9"/>
<path class="st4" d="M611.9,81.1l-3-3c1.6-2.4,2.8-5.3,3.4-8.3h4.5c1.6,0,2.8-1.2,2.8-2.8v-4.9c0-1.6-1.2-2.8-2.8-2.8h-4.5
	c-0.6-3-1.6-5.7-3.4-8.3l3-3c1.2-1.2,1.2-2.8,0-4.1l-3.4-3.4c-1.2-1.2-2.8-1.2-4.1,0l-3,3c-2.4-1.6-5.3-2.8-8.3-3.4v-4.5
	c0-1.6-1.2-2.8-2.8-2.8h-4.9c-1.6,0-2.8,1.2-2.8,2.8V40c-3,0.6-5.7,1.6-8.3,3.4l-2.8-2.8c-1.2-1.2-2.8-1.2-4.1,0l-3.4,3.4
	c-1.2,1.2-1.2,2.8,0,4.1l3,3c-1.6,2.4-2.8,5.3-3.4,8.3H559c-1.6,0-2.8,1.2-2.8,2.8v4.9c0,1.6,1.2,2.8,2.8,2.8h4.5
	c0.6,3,1.6,5.7,3.4,8.3l-2.8,2.8c-1.2,1.2-1.2,2.8,0,4.1l3.4,3.4c1.2,1.2,2.8,1.2,4.1,0l3-3c2.4,1.6,5.3,2.8,8.3,3.4v4.5
	c0,1.6,1.2,2.8,2.8,2.8h4.9c1.6,0,2.8-1.2,2.8-2.8V89c3-0.6,5.7-1.6,8.3-3.4l2.8,2.8c1.2,1.2,2.8,1.2,4.1,0l3.4-3.4
	C613.1,83.9,613.1,82.3,611.9,81.1z M579,73.4c-4.9-4.9-4.9-13,0-17.8c4.9-4.9,13-4.9,17.8,0s4.9,13,0,17.8
	C592,78.3,583.9,78.3,579,73.4z"/>
<path class="st4" d="M641.9,119.8l-2.8-2.3c1.2-2.2,2-4.7,2.2-7.3l3.8-0.4c1.4-0.1,2.3-1.3,2.2-2.6l-0.4-4.1
	c-0.1-1.4-1.3-2.3-2.6-2.2l-3.8,0.4c-0.8-2.5-1.8-4.7-3.6-6.7l2.3-2.8c0.9-1.1,0.8-2.5-0.3-3.4l-3.2-2.6c-1.1-0.9-2.5-0.8-3.4,0.3
	l-2.3,2.8c-2.2-1.2-4.7-2-7.3-2.2l-0.4-3.8c-0.1-1.4-1.3-2.3-2.6-2.2l-4.1,0.4c-1.4,0.1-2.3,1.3-2.2,2.6l0.4,3.8
	c-2.5,0.8-4.7,1.8-6.7,3.6l-2.6-2.2c-1.1-0.9-2.5-0.8-3.4,0.3l-2.6,3.2c-0.9,1.1-0.8,2.5,0.3,3.4l2.8,2.3c-1.2,2.2-2,4.7-2.2,7.3
	l-3.8,0.4c-1.4,0.1-2.3,1.3-2.2,2.6l0.4,4.1c0.1,1.4,1.3,2.3,2.6,2.2l3.8-0.4c0.8,2.5,1.8,4.7,3.6,6.7l-2.2,2.6
	c-0.9,1.1-0.8,2.5,0.3,3.4l3.2,2.6c1.1,0.9,2.5,0.8,3.4-0.3l2.3-2.8c2.2,1.2,4.7,2,7.3,2.2l0.4,3.8c0.1,1.4,1.3,2.3,2.6,2.2l4.1-0.4
	c1.4-0.1,2.3-1.3,2.2-2.6l-0.4-3.8c2.5-0.8,4.7-1.8,6.7-3.6l2.6,2.2c1.1,0.9,2.5,0.8,3.4-0.3l2.6-3.2
	C643.2,122.1,643.1,120.8,641.9,119.8z M613.5,116.1c-4.5-3.7-5.2-10.6-1.5-15.1c3.7-4.5,10.6-5.2,15.1-1.5
	c4.5,3.7,5.2,10.6,1.5,15.1C624.9,119.1,618,119.8,613.5,116.1z"/>
<path class="st4" d="M83.4,156.2l-2.4,2.4c-1.9-1.3-4.1-2.2-6.5-2.7v-3.5c0-1.3-1-2.2-2.2-2.2l-3.8,0c-1.3,0-2.2,1-2.2,2.2v3.5
	c-2.4,0.5-4.5,1.3-6.5,2.7l-2.4-2.4c-1-1-2.2-1-3.2,0l-2.7,2.7c-1,1-1,2.2,0,3.2l2.4,2.4c-1.3,1.9-2.2,4.1-2.7,6.5h-3.5
	c-1.3,0-2.2,1-2.2,2.2v3.8c0,1.3,1,2.2,2.2,2.2h3.5c0.5,2.4,1.3,4.5,2.7,6.5l-2.2,2.2c-1,1-1,2.2,0,3.2l2.7,2.7c1,1,2.2,1,3.2,0
	l2.4-2.4c1.9,1.3,4.1,2.2,6.5,2.7v3.5c0,1.3,1,2.2,2.2,2.2h3.8c1.3,0,2.2-1,2.2-2.2v-3.5c2.4-0.5,4.5-1.3,6.5-2.7l2.2,2.2
	c1,1,2.2,1,3.2,0l2.7-2.7c1-1,1-2.2,0-3.2l-2.4-2.4c1.3-1.9,2.2-4.1,2.7-6.5h3.5c1.3,0,2.2-1,2.2-2.2v-3.8c0-1.3-1-2.2-2.2-2.2h-3.5
	c-0.5-2.4-1.3-4.5-2.7-6.5l2.2-2.2c1-1,1-2.2,0-3.2l-2.7-2.7C85.7,155.2,84.4,155.2,83.4,156.2z M77.4,182c-3.8,3.8-10.2,3.8-14,0
	c-3.8-3.8-3.8-10.2,0-14c3.8-3.8,10.2-3.8,14,0C81.2,171.8,81.2,178.2,77.4,182z"/>
<path class="st4" d="M113.9,132.6l-1.8,2.2c-1.7-0.9-3.7-1.5-5.8-1.7l-0.3-3c-0.1-1.1-1-1.8-2.1-1.7l-3.2,0.3
	c-1.1,0.1-1.8,1-1.7,2.1l0.3,3c-2,0.6-3.7,1.5-5.3,2.8l-2.2-1.8c-0.9-0.7-2-0.6-2.7,0.3l-2.1,2.5c-0.7,0.9-0.6,2,0.3,2.7l2.2,1.8
	c-0.9,1.7-1.5,3.7-1.7,5.8l-3,0.3c-1.1,0.1-1.8,1-1.7,2.1l0.3,3.2c0.1,1.1,1,1.8,2.1,1.7l3-0.3c0.6,2,1.5,3.7,2.8,5.3l-1.7,2.1
	c-0.7,0.9-0.6,2,0.3,2.7l2.5,2.1c0.9,0.7,2,0.6,2.7-0.3l1.8-2.2c1.7,0.9,3.7,1.5,5.8,1.7l0.3,3c0.1,1.1,1,1.8,2.1,1.7l3.2-0.3
	c1.1-0.1,1.8-1,1.7-2.1l-0.3-3c2-0.6,3.7-1.5,5.3-2.8l2.1,1.7c0.9,0.7,2,0.6,2.7-0.3l2.1-2.5c0.7-0.9,0.6-2-0.3-2.7l-2.2-1.8
	c0.9-1.7,1.5-3.7,1.7-5.8l3-0.3c1.1-0.1,1.8-1,1.7-2.1l-0.3-3.2c-0.1-1.1-1-1.8-2.1-1.7l-3,0.3c-0.6-2-1.5-3.7-2.8-5.3l1.7-2.1
	c0.7-0.9,0.6-2-0.3-2.7l-2.5-2.1C115.7,131.6,114.6,131.7,113.9,132.6z M110.9,154.9c-2.9,3.6-8.3,4.1-11.9,1.2s-4.1-8.3-1.2-11.9
	s8.3-4.1,11.9-1.2C113.3,146,113.8,151.4,110.9,154.9z"/>
<g>
	<g>
		<path class="st5" d="M253.2,166.6c4.4,6.9,6.7,14.4,6.7,22.5c0,8.1-2.1,16-6.4,24c-5.8,10.6-13,18.3-21.6,23
			c-8.6,4.7-17.8,6.7-27.6,5.9c-9.8-0.8-19.7-3.9-29.7-9.3c-12.3-6.7-21.6-14.5-27.8-23.4c-6.3-8.9-9.7-19.7-10.2-32.4l40.5-0.8
			c-1.9,6.7-2,12.5-0.4,17.3c1.6,4.8,5.9,9,12.7,12.8c6.4,3.5,12.3,4.6,17.8,3.3c5.5-1.3,9.9-5,13.3-11.3c3.2-6.2,4-11.9,2.4-17
			c-1.6-5.1-5.8-9.6-12.7-13.3c-9.8-5.4-18.4-6.6-25.8-3.7l-24.5-18.4L210,74.2l84.3,45.9l-14.8,27.2l-58.7-32L203.9,139
			c-1.7,2.1-2.9,3.5-3.7,4.4l0.2,0.1c4.4-1.5,9.5-1.8,15.3-0.8c5.8,1,11.8,3.1,17.8,6.4C242.2,153.8,248.8,159.6,253.2,166.6z"/>
		<path class="st6" d="M217.6,290.8c-5.4,1-10.7,1.5-15.8,1.4c-5.1-0.1-9.5-0.7-13.1-1.9l-0.2,0c0.6,0.5,1.6,1.3,2.8,2.5l12.6,13.4
			l53.3-10l10.6,14.9l-76.5,14.4l-37.4-40.3l22.6-6.7c6.1,2.1,13.7,2.4,22.6,0.7c6.2-1.2,10.2-2.9,12-5.3c1.8-2.4,1.6-5.3-0.7-8.6
			c-2.4-3.4-6-5.7-10.6-6.9c-4.6-1.2-9.8-1.2-15.6-0.1c-6.2,1.2-10.2,2.8-12,5.1c-1.8,2.2-2.2,5.1-1.1,8.6l-34.9-4.4
			c1.5-6.2,5.3-11.2,11.5-15c6.2-3.8,14.8-6.7,25.9-8.8c9-1.7,17.8-2.3,26.4-1.7c8.6,0.6,16.3,2.5,23.3,5.6
			c7,3.2,12.6,7.7,16.7,13.5c3.1,4.3,4.3,8.5,3.6,12.5c-0.7,4-3.2,7.5-7.6,10.5C231.6,287.1,225.5,289.3,217.6,290.8z"/>
	</g>
	<g>
		<path class="st5" d="M546,241.5c-30.1-15.9-63.8-14-101.1,5.7c-20.7,10.9-31,21.2-31,31c0,3.3,1.2,6.6,3.6,9.8
			c3.3,4.3,8.8,8.5,16.5,12.6c7.1,3.8,14.5,6.5,22,8.3c0,0,0,0,0,0c7.6,1.8,15.5,2.5,23.6,2.3c17.5-0.6,36-6,55.5-16.3
			c13.6-7.2,22.7-14.1,27.4-20.8c2.4-3.5,3.6-6.9,3.6-10.2C566.2,256.1,559.5,248.6,546,241.5z M529.2,264.3
			c-1.4,2.2-4.1,4.8-8.1,7.6c-3.6,2.5-8.2,5.3-13.9,8.3c-12.1,6.4-22.1,10.2-30.1,11.6c-6.7,1.1-12.8,0.7-18.1-1.4
			c-1-0.4-2-0.8-2.9-1.3c-6-3.2-7.8-6.9-5.2-11.1c2.6-4.2,9.9-9.5,22-15.9c10.8-5.7,20-9.4,27.5-11.1c0.9-0.2,1.7-0.4,2.5-0.5
			c8-1.4,15-0.5,21,2.7c0,0,0,0,0.1,0c0,0,0,0,0,0C530,256.4,531.7,260.1,529.2,264.3z"/>
		<g>
			<path class="st7" d="M456.1,289c0.9,0.5,1.9,0.9,2.9,1.3c3.6-2.5,8.2-5.3,13.9-8.3c12.1-6.4,22.1-10.2,30.1-11.6
				c6.7-1.2,12.8-0.7,18.1,1.4c4-2.8,6.7-5.4,8.1-7.6c2.6-4.2,0.9-7.9-5.1-11c0,0,0,0,0,0c0,0,0,0-0.1,0c-6-3.2-13-4.1-21-2.7
				c-0.8,0.1-1.7,0.3-2.5,0.5c-7.5,1.7-16.7,5.4-27.5,11.1c-12.1,6.4-19.4,11.7-22,15.9C448.3,282.1,450.1,285.8,456.1,289z"/>
			<path class="st7" d="M562.6,274.1c-4.7,6.7-13.8,13.6-27.4,20.8c-19.5,10.3-38,15.7-55.5,16.3c-8.1,0.3-15.9-0.5-23.6-2.3
				c0,0,0,0,0,0c-7.5-1.8-14.9-4.5-22-8.3c-7.7-4.1-13.2-8.3-16.5-12.6c-2.4-3.2-3.6-6.5-3.6-9.8v20c0,7.8,6.7,15.3,20.1,22.4
				c30.1,15.9,63.8,14,101.1-5.7c20.7-10.9,31-21.2,31-31v-20C566.2,267.3,565,270.7,562.6,274.1z"/>
		</g>
	</g>
	<g>
		<g>
			<path class="st5" d="M303.1,222.1c-10.3-13.3-15.5-33.1-15.5-59.1c0-26.1,5.2-45.8,15.5-59.1c10.3-13.3,25.6-20,46-20
				c20.3,0,35.7,6.7,46,20c10.3,13.3,15.5,33.1,15.5,59.1c0,26.1-5.2,45.8-15.5,59.1c-10.3,13.3-25.6,20-46,20
				C328.7,242.1,313.4,235.4,303.1,222.1z M371.1,203.2c4.8-8.7,7.2-22.1,7.2-40.3c0-18.2-2.4-31.6-7.2-40.3
				c-4.8-8.7-12.2-13-22.1-13c-9.9,0-17.3,4.3-22.1,13c-4.8,8.7-7.2,22.1-7.2,40.3c0,18.2,2.4,31.6,7.2,40.3
				c4.8,8.7,12.2,13,22.1,13C359,216.2,366.3,211.9,371.1,203.2z"/>
			<path class="st6" d="M447.9,222.1c-10.3-13.3-15.5-33.1-15.5-59.1c0-26.1,5.2-45.8,15.5-59.1c10.3-13.3,25.6-20,46-20
				c20.3,0,35.7,6.7,46,20c10.3,13.3,15.5,33.1,15.5,59.1c0,26.1-5.2,45.8-15.5,59.1c-10.3,13.3-25.6,20-46,20
				C473.5,242.1,458.2,235.4,447.9,222.1z M516,203.2c4.8-8.7,7.2-22.1,7.2-40.3c0-18.2-2.4-31.6-7.2-40.3c-4.8-8.7-12.2-13-22.1-13
				c-9.9,0-17.3,4.3-22.1,13c-4.8,8.7-7.2,22.1-7.2,40.3c0,18.2,2.4,31.6,7.2,40.3c4.8,8.7,12.2,13,22.1,13
				C503.8,216.2,511.2,211.9,516,203.2z"/>
			<path class="st6" d="M296.9,252.3c-13.5,6.8-23.2,16.8-29.4,30c-6.1,13.3-5.6,23.3,1.6,30c7.2,6.8,20.9,10.2,41.3,10.2
				c20.3,0,37.2-3.4,50.7-10.2c13.5-6.8,23.2-16.8,29.4-30c6.1-13.2,5.6-23.3-1.6-30c-7.2-6.8-20.9-10.2-41.3-10.2
				C327.3,242.1,310.4,245.5,296.9,252.3z M360.6,261.8c2.8,4.4,2,11.2-2.2,20.5c-4.3,9.2-9.8,16-16.7,20.5
				c-6.9,4.4-15.2,6.6-25.2,6.6c-9.9,0-16.3-2.2-19.1-6.6c-2.8-4.4-2-11.2,2.2-20.5c4.3-9.2,9.8-16,16.7-20.5
				c6.8-4.4,15.2-6.6,25.2-6.6C351.5,255.2,357.8,257.4,360.6,261.8z"/>
		</g>
	</g>
</g>
</svg>
