<?xml version="1.0" encoding="UTF-8" standalone="no"?>
<!DOCTYPE svg PUBLIC "-//W3C//DTD SVG 1.1//EN"
 "http://www.w3.org/Graphics/SVG/1.1/DTD/svg11.dtd">
<!-- Generated by graphviz version 2.40.1 (20161225.0304)
 -->
<!-- Title: G Pages: 1 -->
<svg width="1235pt" height="2180pt"
 viewBox="0.00 0.00 1234.51 2180.30" xmlns="http://www.w3.org/2000/svg" xmlns:xlink="http://www.w3.org/1999/xlink">
<g id="graph0" class="graph" transform="scale(1 1) rotate(0) translate(21.6 2158.6986)">
<title>G</title>
<polygon fill="#111111" stroke="transparent" points="-21.6,21.6 -21.6,-2158.6986 1212.9066,-2158.6986 1212.9066,21.6 -21.6,21.6"/>
<!-- bird/src/index.ts -->
<g id="node1" class="node">
<title>bird/src/index.ts</title>
<path fill="none" stroke="#cfffac" d="M244.8985,-24.1482C244.8985,-24.1482 146.9619,-24.1482 146.9619,-24.1482 142.9289,-24.1482 138.896,-20.1152 138.896,-16.0823 138.896,-16.0823 138.896,-8.0164 138.896,-8.0164 138.896,-3.9834 142.9289,.0495 146.9619,.0495 146.9619,.0495 244.8985,.0495 244.8985,.0495 248.9314,.0495 252.9644,-3.9834 252.9644,-8.0164 252.9644,-8.0164 252.9644,-16.0823 252.9644,-16.0823 252.9644,-20.1152 248.9314,-24.1482 244.8985,-24.1482"/>
<text text-anchor="middle" x="195.9302" y="-8.8986" font-family="Arial" font-size="14.00" fill="#cfffac">bird/src/index.ts</text>
</g>
<!-- cli/src/commands/default.ts -->
<g id="node2" class="node">
<title>cli/src/commands/default.ts</title>
<path fill="none" stroke="#cfffac" d="M280.1983,-66.1482C280.1983,-66.1482 111.662,-66.1482 111.662,-66.1482 107.6291,-66.1482 103.5961,-62.1152 103.5961,-58.0823 103.5961,-58.0823 103.5961,-50.0164 103.5961,-50.0164 103.5961,-45.9834 107.6291,-41.9505 111.662,-41.9505 111.662,-41.9505 280.1983,-41.9505 280.1983,-41.9505 284.2313,-41.9505 288.2642,-45.9834 288.2642,-50.0164 288.2642,-50.0164 288.2642,-58.0823 288.2642,-58.0823 288.2642,-62.1152 284.2313,-66.1482 280.1983,-66.1482"/>
<text text-anchor="middle" x="195.9302" y="-50.8986" font-family="Arial" font-size="14.00" fill="#cfffac">cli/src/commands/default.ts</text>
</g>
<!-- cli/src/commands/example/index.ts -->
<g id="node3" class="node">
<title>cli/src/commands/example/index.ts</title>
<path fill="none" stroke="#cfffac" d="M304.4395,-108.1482C304.4395,-108.1482 87.4209,-108.1482 87.4209,-108.1482 83.3879,-108.1482 79.355,-104.1152 79.355,-100.0823 79.355,-100.0823 79.355,-92.0164 79.355,-92.0164 79.355,-87.9834 83.3879,-83.9505 87.4209,-83.9505 87.4209,-83.9505 304.4395,-83.9505 304.4395,-83.9505 308.4724,-83.9505 312.5054,-87.9834 312.5054,-92.0164 312.5054,-92.0164 312.5054,-100.0823 312.5054,-100.0823 312.5054,-104.1152 308.4724,-108.1482 304.4395,-108.1482"/>
<text text-anchor="middle" x="195.9302" y="-92.8986" font-family="Arial" font-size="14.00" fill="#cfffac">cli/src/commands/example/index.ts</text>
</g>
<!-- cli/src/commands/new/defaultData.ts -->
<g id="node4" class="node">
<title>cli/src/commands/new/defaultData.ts</title>
<path fill="none" stroke="#cfffac" d="M961.251,-66.1482C961.251,-66.1482 733.4258,-66.1482 733.4258,-66.1482 729.3928,-66.1482 725.3599,-62.1152 725.3599,-58.0823 725.3599,-58.0823 725.3599,-50.0164 725.3599,-50.0164 725.3599,-45.9834 729.3928,-41.9505 733.4258,-41.9505 733.4258,-41.9505 961.251,-41.9505 961.251,-41.9505 965.284,-41.9505 969.3169,-45.9834 969.3169,-50.0164 969.3169,-50.0164 969.3169,-58.0823 969.3169,-58.0823 969.3169,-62.1152 965.284,-66.1482 961.251,-66.1482"/>
<text text-anchor="middle" x="847.3384" y="-50.8986" font-family="Arial" font-size="14.00" fill="#cfffac">cli/src/commands/new/defaultData.ts</text>
</g>
<!-- cli/src/commands/new/index.ts -->
<g id="node5" class="node">
<title>cli/src/commands/new/index.ts</title>
<path fill="none" stroke="#c6c5fe" d="M290.7052,-150.1482C290.7052,-150.1482 101.1552,-150.1482 101.1552,-150.1482 97.1222,-150.1482 93.0893,-146.1152 93.0893,-142.0823 93.0893,-142.0823 93.0893,-134.0164 93.0893,-134.0164 93.0893,-129.9834 97.1222,-125.9505 101.1552,-125.9505 101.1552,-125.9505 290.7052,-125.9505 290.7052,-125.9505 294.7381,-125.9505 298.7711,-129.9834 298.7711,-134.0164 298.7711,-134.0164 298.7711,-142.0823 298.7711,-142.0823 298.7711,-146.1152 294.7381,-150.1482 290.7052,-150.1482"/>
<text text-anchor="middle" x="195.9302" y="-134.8986" font-family="Arial" font-size="14.00" fill="#c6c5fe">cli/src/commands/new/index.ts</text>
</g>
<!-- cli/src/commands/new/initDirectory.ts -->
<g id="node6" class="node">
<title>cli/src/commands/new/initDirectory.ts</title>
<path fill="none" stroke="#cfffac" d="M671.9166,-234.1482C671.9166,-234.1482 442.5755,-234.1482 442.5755,-234.1482 438.5426,-234.1482 434.5097,-230.1152 434.5097,-226.0823 434.5097,-226.0823 434.5097,-218.0164 434.5097,-218.0164 434.5097,-213.9834 438.5426,-209.9505 442.5755,-209.9505 442.5755,-209.9505 671.9166,-209.9505 671.9166,-209.9505 675.9496,-209.9505 679.9825,-213.9834 679.9825,-218.0164 679.9825,-218.0164 679.9825,-226.0823 679.9825,-226.0823 679.9825,-230.1152 675.9496,-234.1482 671.9166,-234.1482"/>
<text text-anchor="middle" x="557.2461" y="-218.8986" font-family="Arial" font-size="14.00" fill="#cfffac">cli/src/commands/new/initDirectory.ts</text>
</g>
<!-- cli/src/commands/new/index.ts&#45;&gt;cli/src/commands/new/initDirectory.ts -->
<g id="edge1" class="edge">
<title>cli/src/commands/new/index.ts&#45;&gt;cli/src/commands/new/initDirectory.ts</title>
<path fill="none" stroke="#757575" d="M280.5717,-150.1402C315.7333,-156.7029 356.5019,-166.3505 391.8604,-180.0493 409.1326,-186.7411 410.4254,-194.7937 427.8604,-201.0493 434.6343,-203.4798 441.7092,-205.6302 448.9073,-207.5328"/>
<polygon fill="#757575" stroke="#757575" points="448.2345,-210.9718 458.7825,-209.9765 449.9161,-204.1768 448.2345,-210.9718"/>
</g>
<!-- cli/src/commands/new/initPackage.ts -->
<g id="node7" class="node">
<title>cli/src/commands/new/initPackage.ts</title>
<path fill="none" stroke="#cfffac" d="M671.4313,-192.1482C671.4313,-192.1482 443.0609,-192.1482 443.0609,-192.1482 439.0279,-192.1482 434.995,-188.1152 434.995,-184.0823 434.995,-184.0823 434.995,-176.0164 434.995,-176.0164 434.995,-171.9834 439.0279,-167.9505 443.0609,-167.9505 443.0609,-167.9505 671.4313,-167.9505 671.4313,-167.9505 675.4643,-167.9505 679.4972,-171.9834 679.4972,-176.0164 679.4972,-176.0164 679.4972,-184.0823 679.4972,-184.0823 679.4972,-188.1152 675.4643,-192.1482 671.4313,-192.1482"/>
<text text-anchor="middle" x="557.2461" y="-176.8986" font-family="Arial" font-size="14.00" fill="#cfffac">cli/src/commands/new/initPackage.ts</text>
</g>
<!-- cli/src/commands/new/index.ts&#45;&gt;cli/src/commands/new/initPackage.ts -->
<g id="edge2" class="edge">
<title>cli/src/commands/new/index.ts&#45;&gt;cli/src/commands/new/initPackage.ts</title>
<path fill="none" stroke="#757575" d="M298.9853,-150.0286C344.0688,-155.2692 397.1131,-161.4352 443.3625,-166.8113"/>
<polygon fill="#757575" stroke="#757575" points="443.0904,-170.3031 453.4276,-167.9813 443.8987,-163.35 443.0904,-170.3031"/>
</g>
<!-- cli/src/commands/new/install.ts -->
<g id="node8" class="node">
<title>cli/src/commands/new/install.ts</title>
<path fill="none" stroke="#cfffac" d="M653.3453,-150.1482C653.3453,-150.1482 461.1469,-150.1482 461.1469,-150.1482 457.1139,-150.1482 453.081,-146.1152 453.081,-142.0823 453.081,-142.0823 453.081,-134.0164 453.081,-134.0164 453.081,-129.9834 457.1139,-125.9505 461.1469,-125.9505 461.1469,-125.9505 653.3453,-125.9505 653.3453,-125.9505 657.3783,-125.9505 661.4112,-129.9834 661.4112,-134.0164 661.4112,-134.0164 661.4112,-142.0823 661.4112,-142.0823 661.4112,-146.1152 657.3783,-150.1482 653.3453,-150.1482"/>
<text text-anchor="middle" x="557.2461" y="-134.8986" font-family="Arial" font-size="14.00" fill="#cfffac">cli/src/commands/new/install.ts</text>
</g>
<!-- cli/src/commands/new/index.ts&#45;&gt;cli/src/commands/new/install.ts -->
<g id="edge3" class="edge">
<title>cli/src/commands/new/index.ts&#45;&gt;cli/src/commands/new/install.ts</title>
<path fill="none" stroke="#757575" d="M298.9853,-138.0493C343.9716,-138.0493 396.8845,-138.0493 443.0634,-138.0493"/>
<polygon fill="#757575" stroke="#757575" points="443.114,-141.5494 453.114,-138.0493 443.114,-134.5494 443.114,-141.5494"/>
</g>
<!-- cli/src/commands/new/override.ts -->
<g id="node9" class="node">
<title>cli/src/commands/new/override.ts</title>
<path fill="none" stroke="#cfffac" d="M660.6314,-108.1482C660.6314,-108.1482 453.8608,-108.1482 453.8608,-108.1482 449.8279,-108.1482 445.7949,-104.1152 445.7949,-100.0823 445.7949,-100.0823 445.7949,-92.0164 445.7949,-92.0164 445.7949,-87.9834 449.8279,-83.9505 453.8608,-83.9505 453.8608,-83.9505 660.6314,-83.9505 660.6314,-83.9505 664.6643,-83.9505 668.6973,-87.9834 668.6973,-92.0164 668.6973,-92.0164 668.6973,-100.0823 668.6973,-100.0823 668.6973,-104.1152 664.6643,-108.1482 660.6314,-108.1482"/>
<text text-anchor="middle" x="557.2461" y="-92.8986" font-family="Arial" font-size="14.00" fill="#cfffac">cli/src/commands/new/override.ts</text>
</g>
<!-- cli/src/commands/new/index.ts&#45;&gt;cli/src/commands/new/override.ts -->
<g id="edge4" class="edge">
<title>cli/src/commands/new/index.ts&#45;&gt;cli/src/commands/new/override.ts</title>
<path fill="none" stroke="#757575" d="M298.929,-127.3915C328.9093,-124.186 361.7045,-120.5796 391.8604,-117.0493 412.118,-114.6778 433.7548,-112.0207 454.4765,-109.4149"/>
<polygon fill="#757575" stroke="#757575" points="455.0826,-112.8662 464.5654,-108.1412 454.2058,-105.9213 455.0826,-112.8662"/>
</g>
<!-- cli/src/commands/new/prompt.ts -->
<g id="node10" class="node">
<title>cli/src/commands/new/prompt.ts</title>
<path fill="none" stroke="#c6c5fe" d="M657.1245,-66.1482C657.1245,-66.1482 457.3676,-66.1482 457.3676,-66.1482 453.3347,-66.1482 449.3018,-62.1152 449.3018,-58.0823 449.3018,-58.0823 449.3018,-50.0164 449.3018,-50.0164 449.3018,-45.9834 453.3347,-41.9505 457.3676,-41.9505 457.3676,-41.9505 657.1245,-41.9505 657.1245,-41.9505 661.1575,-41.9505 665.1904,-45.9834 665.1904,-50.0164 665.1904,-50.0164 665.1904,-58.0823 665.1904,-58.0823 665.1904,-62.1152 661.1575,-66.1482 657.1245,-66.1482"/>
<text text-anchor="middle" x="557.2461" y="-50.8986" font-family="Arial" font-size="14.00" fill="#c6c5fe">cli/src/commands/new/prompt.ts</text>
</g>
<!-- cli/src/commands/new/index.ts&#45;&gt;cli/src/commands/new/prompt.ts -->
<g id="edge5" class="edge">
<title>cli/src/commands/new/index.ts&#45;&gt;cli/src/commands/new/prompt.ts</title>
<path fill="none" stroke="#757575" d="M298.8325,-141.372C330.1499,-138.6904 363.7059,-131.8672 391.8604,-117.0493 413.6165,-105.5989 406.422,-87.0843 427.8604,-75.0493 431.5997,-72.9502 435.4895,-71.0462 439.4875,-69.3202"/>
<polygon fill="#757575" stroke="#757575" points="440.9512,-72.5061 448.9924,-65.6075 438.4043,-65.9858 440.9512,-72.5061"/>
</g>
<!-- cli/src/commands/new/prompt.ts&#45;&gt;cli/src/commands/new/defaultData.ts -->
<g id="edge6" class="edge">
<title>cli/src/commands/new/prompt.ts&#45;&gt;cli/src/commands/new/defaultData.ts</title>
<path fill="none" stroke="#757575" d="M665.2658,-54.0493C681.4073,-54.0493 698.2046,-54.0493 714.7826,-54.0493"/>
<polygon fill="#757575" stroke="#757575" points="715.0686,-57.5494 725.0685,-54.0493 715.0685,-50.5494 715.0686,-57.5494"/>
</g>
<!-- cli/src/commands/run.ts -->
<g id="node11" class="node">
<title>cli/src/commands/run.ts</title>
<path fill="none" stroke="#cfffac" d="M269.3985,-213.1482C269.3985,-213.1482 122.4619,-213.1482 122.4619,-213.1482 118.4289,-213.1482 114.396,-209.1152 114.396,-205.0823 114.396,-205.0823 114.396,-197.0164 114.396,-197.0164 114.396,-192.9834 118.4289,-188.9505 122.4619,-188.9505 122.4619,-188.9505 269.3985,-188.9505 269.3985,-188.9505 273.4314,-188.9505 277.4644,-192.9834 277.4644,-197.0164 277.4644,-197.0164 277.4644,-205.0823 277.4644,-205.0823 277.4644,-209.1152 273.4314,-213.1482 269.3985,-213.1482"/>
<text text-anchor="middle" x="195.9302" y="-197.8986" font-family="Arial" font-size="14.00" fill="#cfffac">cli/src/commands/run.ts</text>
</g>
<!-- cli/src/index.ts -->
<g id="node12" class="node">
<title>cli/src/index.ts</title>
<path fill="none" stroke="#c6c5fe" d="M239.7745,-276.1482C239.7745,-276.1482 152.0859,-276.1482 152.0859,-276.1482 148.0529,-276.1482 144.02,-272.1152 144.02,-268.0823 144.02,-268.0823 144.02,-260.0164 144.02,-260.0164 144.02,-255.9834 148.0529,-251.9505 152.0859,-251.9505 152.0859,-251.9505 239.7745,-251.9505 239.7745,-251.9505 243.8074,-251.9505 247.8404,-255.9834 247.8404,-260.0164 247.8404,-260.0164 247.8404,-268.0823 247.8404,-268.0823 247.8404,-272.1152 243.8074,-276.1482 239.7745,-276.1482"/>
<text text-anchor="middle" x="195.9302" y="-260.8986" font-family="Arial" font-size="14.00" fill="#c6c5fe">cli/src/index.ts</text>
</g>
<!-- cli/src/lib/versionCheck.ts -->
<g id="node13" class="node">
<title>cli/src/lib/versionCheck.ts</title>
<path fill="none" stroke="#c6c5fe" d="M635.8316,-276.1482C635.8316,-276.1482 478.6606,-276.1482 478.6606,-276.1482 474.6276,-276.1482 470.5947,-272.1152 470.5947,-268.0823 470.5947,-268.0823 470.5947,-260.0164 470.5947,-260.0164 470.5947,-255.9834 474.6276,-251.9505 478.6606,-251.9505 478.6606,-251.9505 635.8316,-251.9505 635.8316,-251.9505 639.8646,-251.9505 643.8975,-255.9834 643.8975,-260.0164 643.8975,-260.0164 643.8975,-268.0823 643.8975,-268.0823 643.8975,-272.1152 639.8646,-276.1482 635.8316,-276.1482"/>
<text text-anchor="middle" x="557.2461" y="-260.8986" font-family="Arial" font-size="14.00" fill="#c6c5fe">cli/src/lib/versionCheck.ts</text>
</g>
<!-- cli/src/index.ts&#45;&gt;cli/src/lib/versionCheck.ts -->
<g id="edge7" class="edge">
<title>cli/src/index.ts&#45;&gt;cli/src/lib/versionCheck.ts</title>
<path fill="none" stroke="#757575" d="M248.0827,-264.0493C303.3839,-264.0493 391.9936,-264.0493 460.2015,-264.0493"/>
<polygon fill="#757575" stroke="#757575" points="460.5373,-267.5494 470.5372,-264.0493 460.5372,-260.5494 460.5373,-267.5494"/>
</g>
<!-- cli/src/lib/bannerLog.ts -->
<g id="node14" class="node">
<title>cli/src/lib/bannerLog.ts</title>
<path fill="none" stroke="#cfffac" d="M917.0618,-276.1482C917.0618,-276.1482 777.6149,-276.1482 777.6149,-276.1482 773.582,-276.1482 769.549,-272.1152 769.549,-268.0823 769.549,-268.0823 769.549,-260.0164 769.549,-260.0164 769.549,-255.9834 773.582,-251.9505 777.6149,-251.9505 777.6149,-251.9505 917.0618,-251.9505 917.0618,-251.9505 921.0948,-251.9505 925.1277,-255.9834 925.1277,-260.0164 925.1277,-260.0164 925.1277,-268.0823 925.1277,-268.0823 925.1277,-272.1152 921.0948,-276.1482 917.0618,-276.1482"/>
<text text-anchor="middle" x="847.3384" y="-260.8986" font-family="Arial" font-size="14.00" fill="#cfffac">cli/src/lib/bannerLog.ts</text>
</g>
<!-- cli/src/lib/versionCheck.ts&#45;&gt;cli/src/lib/bannerLog.ts -->
<g id="edge8" class="edge">
<title>cli/src/lib/versionCheck.ts&#45;&gt;cli/src/lib/bannerLog.ts</title>
<path fill="none" stroke="#757575" d="M643.8904,-264.0493C680.3633,-264.0493 722.7507,-264.0493 759.3653,-264.0493"/>
<polygon fill="#757575" stroke="#757575" points="759.5297,-267.5494 769.5297,-264.0493 759.5297,-260.5494 759.5297,-267.5494"/>
</g>
<!-- core&#45;lib/src/Error.ts -->
<g id="node15" class="node">
<title>core&#45;lib/src/Error.ts</title>
<path fill="none" stroke="#cfffac" d="M906.2352,-751.1482C906.2352,-751.1482 788.4416,-751.1482 788.4416,-751.1482 784.4086,-751.1482 780.3757,-747.1152 780.3757,-743.0823 780.3757,-743.0823 780.3757,-735.0164 780.3757,-735.0164 780.3757,-730.9834 784.4086,-726.9505 788.4416,-726.9505 788.4416,-726.9505 906.2352,-726.9505 906.2352,-726.9505 910.2681,-726.9505 914.3011,-730.9834 914.3011,-735.0164 914.3011,-735.0164 914.3011,-743.0823 914.3011,-743.0823 914.3011,-747.1152 910.2681,-751.1482 906.2352,-751.1482"/>
<text text-anchor="middle" x="847.3384" y="-735.8986" font-family="Arial" font-size="14.00" fill="#cfffac">core&#45;lib/src/Error.ts</text>
</g>
<!-- core&#45;lib/src/Renderer/engines.ts -->
<g id="node16" class="node">
<title>core&#45;lib/src/Renderer/engines.ts</title>
<path fill="none" stroke="#cfffac" d="M946.6928,-856.1482C946.6928,-856.1482 747.9839,-856.1482 747.9839,-856.1482 743.951,-856.1482 739.918,-852.1152 739.918,-848.0823 739.918,-848.0823 739.918,-840.0164 739.918,-840.0164 739.918,-835.9834 743.951,-831.9505 747.9839,-831.9505 747.9839,-831.9505 946.6928,-831.9505 946.6928,-831.9505 950.7258,-831.9505 954.7587,-835.9834 954.7587,-840.0164 954.7587,-840.0164 954.7587,-848.0823 954.7587,-848.0823 954.7587,-852.1152 950.7258,-856.1482 946.6928,-856.1482"/>
<text text-anchor="middle" x="847.3384" y="-840.8986" font-family="Arial" font-size="14.00" fill="#cfffac">core&#45;lib/src/Renderer/engines.ts</text>
</g>
<!-- core&#45;lib/src/Renderer/index.ts -->
<g id="node17" class="node">
<title>core&#45;lib/src/Renderer/index.ts</title>
<path fill="none" stroke="#c6c5fe" d="M648.5279,-856.1482C648.5279,-856.1482 465.9643,-856.1482 465.9643,-856.1482 461.9313,-856.1482 457.8984,-852.1152 457.8984,-848.0823 457.8984,-848.0823 457.8984,-840.0164 457.8984,-840.0164 457.8984,-835.9834 461.9313,-831.9505 465.9643,-831.9505 465.9643,-831.9505 648.5279,-831.9505 648.5279,-831.9505 652.5609,-831.9505 656.5938,-835.9834 656.5938,-840.0164 656.5938,-840.0164 656.5938,-848.0823 656.5938,-848.0823 656.5938,-852.1152 652.5609,-856.1482 648.5279,-856.1482"/>
<text text-anchor="middle" x="557.2461" y="-840.8986" font-family="Arial" font-size="14.00" fill="#c6c5fe">core&#45;lib/src/Renderer/index.ts</text>
</g>
<!-- core&#45;lib/src/Renderer/index.ts&#45;&gt;core&#45;lib/src/Error.ts -->
<g id="edge9" class="edge">
<title>core&#45;lib/src/Renderer/index.ts&#45;&gt;core&#45;lib/src/Error.ts</title>
<path fill="none" stroke="#757575" d="M653.4729,-831.9694C664.7813,-829.513 676.0516,-826.5704 686.6318,-823.0493 736.3847,-806.4916 789.4252,-775.9218 820.4147,-756.5819"/>
<polygon fill="#757575" stroke="#757575" points="822.3377,-759.507 828.9228,-751.2072 818.5992,-753.5889 822.3377,-759.507"/>
</g>
<!-- core&#45;lib/src/Renderer/index.ts&#45;&gt;core&#45;lib/src/Renderer/engines.ts -->
<g id="edge10" class="edge">
<title>core&#45;lib/src/Renderer/index.ts&#45;&gt;core&#45;lib/src/Renderer/engines.ts</title>
<path fill="none" stroke="#757575" d="M656.6735,-844.0493C680.2098,-844.0493 705.5301,-844.0493 729.7858,-844.0493"/>
<polygon fill="#757575" stroke="#757575" points="730.1076,-847.5494 740.1075,-844.0493 730.1075,-840.5494 730.1076,-847.5494"/>
</g>
<!-- core&#45;lib/src/Route/errors.ts -->
<g id="node18" class="node">
<title>core&#45;lib/src/Route/errors.ts</title>
<path fill="none" stroke="#c6c5fe" d="M639.6109,-814.1482C639.6109,-814.1482 474.8813,-814.1482 474.8813,-814.1482 470.8484,-814.1482 466.8154,-810.1152 466.8154,-806.0823 466.8154,-806.0823 466.8154,-798.0164 466.8154,-798.0164 466.8154,-793.9834 470.8484,-789.9505 474.8813,-789.9505 474.8813,-789.9505 639.6109,-789.9505 639.6109,-789.9505 643.6438,-789.9505 647.6768,-793.9834 647.6768,-798.0164 647.6768,-798.0164 647.6768,-806.0823 647.6768,-806.0823 647.6768,-810.1152 643.6438,-814.1482 639.6109,-814.1482"/>
<text text-anchor="middle" x="557.2461" y="-798.8986" font-family="Arial" font-size="14.00" fill="#c6c5fe">core&#45;lib/src/Route/errors.ts</text>
</g>
<!-- core&#45;lib/src/Route/errors.ts&#45;&gt;core&#45;lib/src/Error.ts -->
<g id="edge11" class="edge">
<title>core&#45;lib/src/Route/errors.ts&#45;&gt;core&#45;lib/src/Error.ts</title>
<path fill="none" stroke="#757575" d="M639.2534,-789.9424C655.027,-787.2742 671.3803,-784.2724 686.6318,-781.0493 723.4202,-773.2748 764.4238,-762.5244 795.8052,-753.8463"/>
<polygon fill="#757575" stroke="#757575" points="796.9439,-757.1625 805.6383,-751.1079 795.0659,-750.4191 796.9439,-757.1625"/>
</g>
<!-- core&#45;lib/src/Route/index.ts -->
<g id="node19" class="node">
<title>core&#45;lib/src/Route/index.ts</title>
<path fill="none" stroke="#c6c5fe" d="M276.7052,-793.1482C276.7052,-793.1482 115.1552,-793.1482 115.1552,-793.1482 111.1222,-793.1482 107.0893,-789.1152 107.0893,-785.0823 107.0893,-785.0823 107.0893,-777.0164 107.0893,-777.0164 107.0893,-772.9834 111.1222,-768.9505 115.1552,-768.9505 115.1552,-768.9505 276.7052,-768.9505 276.7052,-768.9505 280.7381,-768.9505 284.7711,-772.9834 284.7711,-777.0164 284.7711,-777.0164 284.7711,-785.0823 284.7711,-785.0823 284.7711,-789.1152 280.7381,-793.1482 276.7052,-793.1482"/>
<text text-anchor="middle" x="195.9302" y="-777.8986" font-family="Arial" font-size="14.00" fill="#c6c5fe">core&#45;lib/src/Route/index.ts</text>
</g>
<!-- core&#45;lib/src/Route/index.ts&#45;&gt;core&#45;lib/src/Route/errors.ts -->
<g id="edge12" class="edge">
<title>core&#45;lib/src/Route/index.ts&#45;&gt;core&#45;lib/src/Route/errors.ts</title>
<path fill="none" stroke="#757575" d="M284.7808,-786.2134C336.7017,-789.2311 402.4018,-793.0496 456.2771,-796.1809"/>
<polygon fill="#757575" stroke="#757575" points="456.3532,-799.6912 466.5395,-796.7774 456.7594,-792.7029 456.3532,-799.6912"/>
</g>
<!-- core&#45;lib/src/utility.ts -->
<g id="node20" class="node">
<title>core&#45;lib/src/utility.ts</title>
<path fill="none" stroke="#c6c5fe" d="M616.1617,-772.1482C616.1617,-772.1482 498.3305,-772.1482 498.3305,-772.1482 494.2976,-772.1482 490.2646,-768.1152 490.2646,-764.0823 490.2646,-764.0823 490.2646,-756.0164 490.2646,-756.0164 490.2646,-751.9834 494.2976,-747.9505 498.3305,-747.9505 498.3305,-747.9505 616.1617,-747.9505 616.1617,-747.9505 620.1946,-747.9505 624.2275,-751.9834 624.2275,-756.0164 624.2275,-756.0164 624.2275,-764.0823 624.2275,-764.0823 624.2275,-768.1152 620.1946,-772.1482 616.1617,-772.1482"/>
<text text-anchor="middle" x="557.2461" y="-756.8986" font-family="Arial" font-size="14.00" fill="#c6c5fe">core&#45;lib/src/utility.ts</text>
</g>
<!-- core&#45;lib/src/Route/index.ts&#45;&gt;core&#45;lib/src/utility.ts -->
<g id="edge13" class="edge">
<title>core&#45;lib/src/Route/index.ts&#45;&gt;core&#45;lib/src/utility.ts</title>
<path fill="none" stroke="#757575" d="M284.7808,-775.8852C344.605,-772.4082 422.7227,-767.8679 479.9673,-764.5408"/>
<polygon fill="#757575" stroke="#757575" points="480.2642,-768.0296 490.0442,-763.9551 479.858,-761.0414 480.2642,-768.0296"/>
</g>
<!-- core&#45;lib/src/utility.ts&#45;&gt;core&#45;lib/src/Error.ts -->
<g id="edge30" class="edge">
<title>core&#45;lib/src/utility.ts&#45;&gt;core&#45;lib/src/Error.ts</title>
<path fill="none" stroke="#757575" d="M624.5282,-755.1787C668.0982,-752.0247 724.9592,-747.9084 770.3338,-744.6237"/>
<polygon fill="#757575" stroke="#757575" points="770.6999,-748.1065 780.4211,-743.8935 770.1945,-741.1248 770.6999,-748.1065"/>
</g>
<!-- core&#45;lib/src/auth.ts -->
<g id="node21" class="node">
<title>core&#45;lib/src/auth.ts</title>
<path fill="none" stroke="#cfffac" d="M614.5528,-566.1482C614.5528,-566.1482 499.9394,-566.1482 499.9394,-566.1482 495.9064,-566.1482 491.8735,-562.1152 491.8735,-558.0823 491.8735,-558.0823 491.8735,-550.0164 491.8735,-550.0164 491.8735,-545.9834 495.9064,-541.9505 499.9394,-541.9505 499.9394,-541.9505 614.5528,-541.9505 614.5528,-541.9505 618.5858,-541.9505 622.6187,-545.9834 622.6187,-550.0164 622.6187,-550.0164 622.6187,-558.0823 622.6187,-558.0823 622.6187,-562.1152 618.5858,-566.1482 614.5528,-566.1482"/>
<text text-anchor="middle" x="557.2461" y="-550.8986" font-family="Arial" font-size="14.00" fill="#cfffac">core&#45;lib/src/auth.ts</text>
</g>
<!-- core&#45;lib/src/colors.ts -->
<g id="node22" class="node">
<title>core&#45;lib/src/colors.ts</title>
<path fill="none" stroke="#cfffac" d="M909.742,-484.1482C909.742,-484.1482 784.9347,-484.1482 784.9347,-484.1482 780.9018,-484.1482 776.8688,-480.1152 776.8688,-476.0823 776.8688,-476.0823 776.8688,-468.0164 776.8688,-468.0164 776.8688,-463.9834 780.9018,-459.9505 784.9347,-459.9505 784.9347,-459.9505 909.742,-459.9505 909.742,-459.9505 913.775,-459.9505 917.8079,-463.9834 917.8079,-468.0164 917.8079,-468.0164 917.8079,-476.0823 917.8079,-476.0823 917.8079,-480.1152 913.775,-484.1482 909.742,-484.1482"/>
<text text-anchor="middle" x="847.3384" y="-468.8986" font-family="Arial" font-size="14.00" fill="#cfffac">core&#45;lib/src/colors.ts</text>
</g>
<!-- core&#45;lib/src/configFile.ts -->
<g id="node23" class="node">
<title>core&#45;lib/src/configFile.ts</title>
<path fill="none" stroke="#c6c5fe" d="M630.7212,-524.1482C630.7212,-524.1482 483.771,-524.1482 483.771,-524.1482 479.738,-524.1482 475.7051,-520.1152 475.7051,-516.0823 475.7051,-516.0823 475.7051,-508.0164 475.7051,-508.0164 475.7051,-503.9834 479.738,-499.9505 483.771,-499.9505 483.771,-499.9505 630.7212,-499.9505 630.7212,-499.9505 634.7542,-499.9505 638.7871,-503.9834 638.7871,-508.0164 638.7871,-508.0164 638.7871,-516.0823 638.7871,-516.0823 638.7871,-520.1152 634.7542,-524.1482 630.7212,-524.1482"/>
<text text-anchor="middle" x="557.2461" y="-508.8986" font-family="Arial" font-size="14.00" fill="#c6c5fe">core&#45;lib/src/configFile.ts</text>
</g>
<!-- core&#45;lib/src/configFile.ts&#45;&gt;core&#45;lib/src/Error.ts -->
<g id="edge14" class="edge">
<title>core&#45;lib/src/configFile.ts&#45;&gt;core&#45;lib/src/Error.ts</title>
<path fill="none" stroke="#757575" d="M638.8163,-515.8573C655.4458,-519.1679 672.2394,-524.5274 686.6318,-533.0493 763.0551,-578.3001 816.5867,-674.8408 837.5365,-717.741"/>
<polygon fill="#757575" stroke="#757575" points="834.4755,-719.4535 841.9418,-726.9705 840.7928,-716.4381 834.4755,-719.4535"/>
</g>
<!-- core&#45;lib/src/configFile.ts&#45;&gt;core&#45;lib/src/colors.ts -->
<g id="edge15" class="edge">
<title>core&#45;lib/src/configFile.ts&#45;&gt;core&#45;lib/src/colors.ts</title>
<path fill="none" stroke="#757575" d="M638.825,-500.8006C678.8378,-495.2834 726.8774,-488.6593 766.7557,-483.1606"/>
<polygon fill="#757575" stroke="#757575" points="767.2804,-486.6215 776.7086,-481.7883 766.3242,-479.6871 767.2804,-486.6215"/>
</g>
<!-- core&#45;lib/src/findFile.ts -->
<g id="node24" class="node">
<title>core&#45;lib/src/findFile.ts</title>
<path fill="none" stroke="#cfffac" d="M623.4353,-444.1482C623.4353,-444.1482 491.0569,-444.1482 491.0569,-444.1482 487.0239,-444.1482 482.991,-440.1152 482.991,-436.0823 482.991,-436.0823 482.991,-428.0164 482.991,-428.0164 482.991,-423.9834 487.0239,-419.9505 491.0569,-419.9505 491.0569,-419.9505 623.4353,-419.9505 623.4353,-419.9505 627.4683,-419.9505 631.5012,-423.9834 631.5012,-428.0164 631.5012,-428.0164 631.5012,-436.0823 631.5012,-436.0823 631.5012,-440.1152 627.4683,-444.1482 623.4353,-444.1482"/>
<text text-anchor="middle" x="557.2461" y="-428.8986" font-family="Arial" font-size="14.00" fill="#cfffac">core&#45;lib/src/findFile.ts</text>
</g>
<!-- core&#45;lib/src/index.ts -->
<g id="node25" class="node">
<title>core&#45;lib/src/index.ts</title>
<path fill="none" stroke="#c6c5fe" d="M255.9577,-545.1482C255.9577,-545.1482 135.9027,-545.1482 135.9027,-545.1482 131.8697,-545.1482 127.8368,-541.1152 127.8368,-537.0823 127.8368,-537.0823 127.8368,-529.0164 127.8368,-529.0164 127.8368,-524.9834 131.8697,-520.9505 135.9027,-520.9505 135.9027,-520.9505 255.9577,-520.9505 255.9577,-520.9505 259.9906,-520.9505 264.0236,-524.9834 264.0236,-529.0164 264.0236,-529.0164 264.0236,-537.0823 264.0236,-537.0823 264.0236,-541.1152 259.9906,-545.1482 255.9577,-545.1482"/>
<text text-anchor="middle" x="195.9302" y="-529.8986" font-family="Arial" font-size="14.00" fill="#c6c5fe">core&#45;lib/src/index.ts</text>
</g>
<!-- core&#45;lib/src/index.ts&#45;&gt;core&#45;lib/src/Error.ts -->
<g id="edge16" class="edge">
<title>core&#45;lib/src/index.ts&#45;&gt;core&#45;lib/src/Error.ts</title>
<path fill="none" stroke="#757575" d="M259.3253,-545.1182C305.8886,-553.8391 370.7204,-565.6828 427.8604,-575.0493 542.5724,-593.8531 579.8095,-567.208 686.6318,-613.0493 745.597,-638.3534 801.5112,-690.8547 829.2171,-719.4508"/>
<polygon fill="#757575" stroke="#757575" points="826.8287,-722.0179 836.2626,-726.84 831.8949,-717.1873 826.8287,-722.0179"/>
</g>
<!-- core&#45;lib/src/index.ts&#45;&gt;core&#45;lib/src/utility.ts -->
<g id="edge26" class="edge">
<title>core&#45;lib/src/index.ts&#45;&gt;core&#45;lib/src/utility.ts</title>
<path fill="none" stroke="#757575" d="M205.192,-545.1276C233.7871,-581.4469 324.9801,-690.1647 427.8604,-739.0493 443.9257,-746.6829 462.2419,-751.6128 479.9371,-754.7783"/>
<polygon fill="#757575" stroke="#757575" points="479.8322,-758.3066 490.2623,-756.4454 480.948,-751.3961 479.8322,-758.3066"/>
</g>
<!-- core&#45;lib/src/index.ts&#45;&gt;core&#45;lib/src/auth.ts -->
<g id="edge17" class="edge">
<title>core&#45;lib/src/index.ts&#45;&gt;core&#45;lib/src/auth.ts</title>
<path fill="none" stroke="#757575" d="M264.3157,-537.0239C326.3623,-540.6301 417.6819,-545.9377 481.8259,-549.6658"/>
<polygon fill="#757575" stroke="#757575" points="481.6924,-553.1639 491.8787,-550.2501 482.0987,-546.1757 481.6924,-553.1639"/>
</g>
<!-- core&#45;lib/src/index.ts&#45;&gt;core&#45;lib/src/colors.ts -->
<g id="edge18" class="edge">
<title>core&#45;lib/src/index.ts&#45;&gt;core&#45;lib/src/colors.ts</title>
<path fill="none" stroke="#757575" d="M250.9201,-520.9451C297.7221,-511.1604 366.8655,-497.9221 427.8604,-491.0493 545.3315,-477.8128 682.2919,-473.7217 766.918,-472.5009"/>
<polygon fill="#757575" stroke="#757575" points="767.022,-475.9999 776.974,-472.3659 766.9279,-469.0006 767.022,-475.9999"/>
</g>
<!-- core&#45;lib/src/index.ts&#45;&gt;core&#45;lib/src/configFile.ts -->
<g id="edge19" class="edge">
<title>core&#45;lib/src/index.ts&#45;&gt;core&#45;lib/src/configFile.ts</title>
<path fill="none" stroke="#757575" d="M264.3157,-529.0747C321.1959,-525.7688 402.677,-521.033 465.27,-517.3951"/>
<polygon fill="#757575" stroke="#757575" points="465.7605,-520.8725 475.5405,-516.7981 465.3543,-513.8843 465.7605,-520.8725"/>
</g>
<!-- core&#45;lib/src/index.ts&#45;&gt;core&#45;lib/src/findFile.ts -->
<g id="edge20" class="edge">
<title>core&#45;lib/src/index.ts&#45;&gt;core&#45;lib/src/findFile.ts</title>
<path fill="none" stroke="#757575" d="M229.3743,-520.8974C274.1365,-504.9424 356.2075,-476.7683 427.8604,-458.0493 444.4455,-453.7165 462.3876,-449.6956 479.4769,-446.1743"/>
<polygon fill="#757575" stroke="#757575" points="480.3171,-449.5752 489.4235,-444.1601 478.9278,-442.7145 480.3171,-449.5752"/>
</g>
<!-- core&#45;lib/src/logs.ts -->
<g id="node26" class="node">
<title>core&#45;lib/src/logs.ts</title>
<path fill="none" stroke="#c6c5fe" d="M613.487,-402.1482C613.487,-402.1482 501.0052,-402.1482 501.0052,-402.1482 496.9723,-402.1482 492.9393,-398.1152 492.9393,-394.0823 492.9393,-394.0823 492.9393,-386.0164 492.9393,-386.0164 492.9393,-381.9834 496.9723,-377.9505 501.0052,-377.9505 501.0052,-377.9505 613.487,-377.9505 613.487,-377.9505 617.5199,-377.9505 621.5529,-381.9834 621.5529,-386.0164 621.5529,-386.0164 621.5529,-394.0823 621.5529,-394.0823 621.5529,-398.1152 617.5199,-402.1482 613.487,-402.1482"/>
<text text-anchor="middle" x="557.2461" y="-386.8986" font-family="Arial" font-size="14.00" fill="#c6c5fe">core&#45;lib/src/logs.ts</text>
</g>
<!-- core&#45;lib/src/index.ts&#45;&gt;core&#45;lib/src/logs.ts -->
<g id="edge21" class="edge">
<title>core&#45;lib/src/index.ts&#45;&gt;core&#45;lib/src/logs.ts</title>
<path fill="none" stroke="#757575" d="M213.9518,-520.9345C251.7987,-496.1029 343.0706,-439.3902 427.8604,-411.0493 445.2515,-405.2363 464.5133,-401.0022 482.7451,-397.9289"/>
<polygon fill="#757575" stroke="#757575" points="483.4231,-401.3651 492.7494,-396.3383 482.3239,-394.452 483.4231,-401.3651"/>
</g>
<!-- core&#45;lib/src/packageFile.ts -->
<g id="node27" class="node">
<title>core&#45;lib/src/packageFile.ts</title>
<path fill="none" stroke="#cfffac" d="M638.2939,-360.1482C638.2939,-360.1482 476.1983,-360.1482 476.1983,-360.1482 472.1653,-360.1482 468.1324,-356.1152 468.1324,-352.0823 468.1324,-352.0823 468.1324,-344.0164 468.1324,-344.0164 468.1324,-339.9834 472.1653,-335.9505 476.1983,-335.9505 476.1983,-335.9505 638.2939,-335.9505 638.2939,-335.9505 642.3268,-335.9505 646.3598,-339.9834 646.3598,-344.0164 646.3598,-344.0164 646.3598,-352.0823 646.3598,-352.0823 646.3598,-356.1152 642.3268,-360.1482 638.2939,-360.1482"/>
<text text-anchor="middle" x="557.2461" y="-344.8986" font-family="Arial" font-size="14.00" fill="#cfffac">core&#45;lib/src/packageFile.ts</text>
</g>
<!-- core&#45;lib/src/index.ts&#45;&gt;core&#45;lib/src/packageFile.ts -->
<g id="edge22" class="edge">
<title>core&#45;lib/src/index.ts&#45;&gt;core&#45;lib/src/packageFile.ts</title>
<path fill="none" stroke="#757575" d="M208.7359,-520.6723C241.8515,-489.4612 334.2862,-407.3158 427.8604,-369.0493 437.4377,-365.1327 447.6945,-361.945 458.0874,-359.3506"/>
<polygon fill="#757575" stroke="#757575" points="459.1214,-362.704 468.0756,-357.0407 457.5441,-355.884 459.1214,-362.704"/>
</g>
<!-- core&#45;lib/src/random&#45;hex.ts -->
<g id="node28" class="node">
<title>core&#45;lib/src/random&#45;hex.ts</title>
<path fill="none" stroke="#cfffac" d="M638.0074,-318.1482C638.0074,-318.1482 476.4848,-318.1482 476.4848,-318.1482 472.4518,-318.1482 468.4189,-314.1152 468.4189,-310.0823 468.4189,-310.0823 468.4189,-302.0164 468.4189,-302.0164 468.4189,-297.9834 472.4518,-293.9505 476.4848,-293.9505 476.4848,-293.9505 638.0074,-293.9505 638.0074,-293.9505 642.0404,-293.9505 646.0733,-297.9834 646.0733,-302.0164 646.0733,-302.0164 646.0733,-310.0823 646.0733,-310.0823 646.0733,-314.1152 642.0404,-318.1482 638.0074,-318.1482"/>
<text text-anchor="middle" x="557.2461" y="-302.8986" font-family="Arial" font-size="14.00" fill="#cfffac">core&#45;lib/src/random&#45;hex.ts</text>
</g>
<!-- core&#45;lib/src/index.ts&#45;&gt;core&#45;lib/src/random&#45;hex.ts -->
<g id="edge23" class="edge">
<title>core&#45;lib/src/index.ts&#45;&gt;core&#45;lib/src/random&#45;hex.ts</title>
<path fill="none" stroke="#757575" d="M205.192,-520.971C233.7871,-484.6517 324.9801,-375.9339 427.8604,-327.0493 437.4599,-322.488 447.8631,-318.892 458.4573,-316.061"/>
<polygon fill="#757575" stroke="#757575" points="459.3418,-319.4479 468.2227,-313.6704 457.6772,-312.6487 459.3418,-319.4479"/>
</g>
<!-- core&#45;lib/src/requireLib.ts -->
<g id="node29" class="node">
<title>core&#45;lib/src/requireLib.ts</title>
<path fill="none" stroke="#c6c5fe" d="M632.0664,-730.1482C632.0664,-730.1482 482.4258,-730.1482 482.4258,-730.1482 478.3928,-730.1482 474.3599,-726.1152 474.3599,-722.0823 474.3599,-722.0823 474.3599,-714.0164 474.3599,-714.0164 474.3599,-709.9834 478.3928,-705.9505 482.4258,-705.9505 482.4258,-705.9505 632.0664,-705.9505 632.0664,-705.9505 636.0993,-705.9505 640.1323,-709.9834 640.1323,-714.0164 640.1323,-714.0164 640.1323,-722.0823 640.1323,-722.0823 640.1323,-726.1152 636.0993,-730.1482 632.0664,-730.1482"/>
<text text-anchor="middle" x="557.2461" y="-714.8986" font-family="Arial" font-size="14.00" fill="#c6c5fe">core&#45;lib/src/requireLib.ts</text>
</g>
<!-- core&#45;lib/src/index.ts&#45;&gt;core&#45;lib/src/requireLib.ts -->
<g id="edge24" class="edge">
<title>core&#45;lib/src/index.ts&#45;&gt;core&#45;lib/src/requireLib.ts</title>
<path fill="none" stroke="#757575" d="M208.7359,-545.4263C241.8515,-576.6374 334.2862,-658.7828 427.8604,-697.0493 439.3285,-701.7391 451.7709,-705.384 464.2544,-708.2162"/>
<polygon fill="#757575" stroke="#757575" points="463.751,-711.6868 474.257,-710.3178 465.1904,-704.8363 463.751,-711.6868"/>
</g>
<!-- core&#45;lib/src/resolveLib.ts -->
<g id="node30" class="node">
<title>core&#45;lib/src/resolveLib.ts</title>
<path fill="none" stroke="#cfffac" d="M632.6177,-688.1482C632.6177,-688.1482 481.8745,-688.1482 481.8745,-688.1482 477.8415,-688.1482 473.8086,-684.1152 473.8086,-680.0823 473.8086,-680.0823 473.8086,-672.0164 473.8086,-672.0164 473.8086,-667.9834 477.8415,-663.9505 481.8745,-663.9505 481.8745,-663.9505 632.6177,-663.9505 632.6177,-663.9505 636.6507,-663.9505 640.6836,-667.9834 640.6836,-672.0164 640.6836,-672.0164 640.6836,-680.0823 640.6836,-680.0823 640.6836,-684.1152 636.6507,-688.1482 632.6177,-688.1482"/>
<text text-anchor="middle" x="557.2461" y="-672.8986" font-family="Arial" font-size="14.00" fill="#cfffac">core&#45;lib/src/resolveLib.ts</text>
</g>
<!-- core&#45;lib/src/index.ts&#45;&gt;core&#45;lib/src/resolveLib.ts -->
<g id="edge25" class="edge">
<title>core&#45;lib/src/index.ts&#45;&gt;core&#45;lib/src/resolveLib.ts</title>
<path fill="none" stroke="#757575" d="M213.9518,-545.1642C251.7987,-569.9957 343.0706,-626.7084 427.8604,-655.0493 439.3558,-658.8917 451.6686,-662.0442 463.961,-664.6276"/>
<polygon fill="#757575" stroke="#757575" points="463.3088,-668.0664 473.7988,-666.5798 464.6713,-661.2003 463.3088,-668.0664"/>
</g>
<!-- core&#45;lib/src/wrapMiddleware.ts -->
<g id="node31" class="node">
<title>core&#45;lib/src/wrapMiddleware.ts</title>
<path fill="none" stroke="#cfffac" d="M651.7349,-646.1482C651.7349,-646.1482 462.7573,-646.1482 462.7573,-646.1482 458.7243,-646.1482 454.6914,-642.1152 454.6914,-638.0823 454.6914,-638.0823 454.6914,-630.0164 454.6914,-630.0164 454.6914,-625.9834 458.7243,-621.9505 462.7573,-621.9505 462.7573,-621.9505 651.7349,-621.9505 651.7349,-621.9505 655.7678,-621.9505 659.8008,-625.9834 659.8008,-630.0164 659.8008,-630.0164 659.8008,-638.0823 659.8008,-638.0823 659.8008,-642.1152 655.7678,-646.1482 651.7349,-646.1482"/>
<text text-anchor="middle" x="557.2461" y="-630.8986" font-family="Arial" font-size="14.00" fill="#cfffac">core&#45;lib/src/wrapMiddleware.ts</text>
</g>
<!-- core&#45;lib/src/index.ts&#45;&gt;core&#45;lib/src/wrapMiddleware.ts -->
<g id="edge27" class="edge">
<title>core&#45;lib/src/index.ts&#45;&gt;core&#45;lib/src/wrapMiddleware.ts</title>
<path fill="none" stroke="#757575" d="M229.3743,-545.2012C274.1365,-561.1562 356.2075,-589.3304 427.8604,-608.0493 444.4455,-612.3821 462.3876,-616.4031 479.4769,-619.9244"/>
<polygon fill="#757575" stroke="#757575" points="478.9278,-623.3842 489.4235,-621.9385 480.3171,-616.5234 478.9278,-623.3842"/>
</g>
<!-- core&#45;lib/src/logs.ts&#45;&gt;core&#45;lib/src/colors.ts -->
<g id="edge28" class="edge">
<title>core&#45;lib/src/logs.ts&#45;&gt;core&#45;lib/src/colors.ts</title>
<path fill="none" stroke="#757575" d="M621.6246,-397.8796C642.5484,-401.1184 665.7498,-405.4531 686.6318,-411.0493 730.5188,-422.8106 779.0461,-442.1581 811.1715,-455.9084"/>
<polygon fill="#757575" stroke="#757575" points="810.0238,-459.2252 820.5916,-459.9814 812.8019,-452.8001 810.0238,-459.2252"/>
</g>
<!-- core&#45;lib/src/requireLib.ts&#45;&gt;core&#45;lib/src/Error.ts -->
<g id="edge29" class="edge">
<title>core&#45;lib/src/requireLib.ts&#45;&gt;core&#45;lib/src/Error.ts</title>
<path fill="none" stroke="#757575" d="M639.9867,-724.039C681.0529,-727.0118 730.346,-730.5801 770.5655,-733.4917"/>
<polygon fill="#757575" stroke="#757575" points="770.3582,-736.9857 780.5848,-734.217 770.8636,-730.004 770.3582,-736.9857"/>
</g>
<!-- core&#45;lib/src/types/index.ts -->
<g id="node32" class="node">
<title>core&#45;lib/src/types/index.ts</title>
<path fill="none" stroke="#cfffac" d="M274.8086,-856.1482C274.8086,-856.1482 117.0517,-856.1482 117.0517,-856.1482 113.0188,-856.1482 108.9858,-852.1152 108.9858,-848.0823 108.9858,-848.0823 108.9858,-840.0164 108.9858,-840.0164 108.9858,-835.9834 113.0188,-831.9505 117.0517,-831.9505 117.0517,-831.9505 274.8086,-831.9505 274.8086,-831.9505 278.8416,-831.9505 282.8745,-835.9834 282.8745,-840.0164 282.8745,-840.0164 282.8745,-848.0823 282.8745,-848.0823 282.8745,-852.1152 278.8416,-856.1482 274.8086,-856.1482"/>
<text text-anchor="middle" x="195.9302" y="-840.8986" font-family="Arial" font-size="14.00" fill="#cfffac">core&#45;lib/src/types/index.ts</text>
</g>
<!-- core&#45;server/src/errors.ts -->
<g id="node33" class="node">
<title>core&#45;server/src/errors.ts</title>
<path fill="none" stroke="#cfffac" d="M921.3453,-1024.1482C921.3453,-1024.1482 773.3314,-1024.1482 773.3314,-1024.1482 769.2985,-1024.1482 765.2656,-1020.1152 765.2656,-1016.0823 765.2656,-1016.0823 765.2656,-1008.0164 765.2656,-1008.0164 765.2656,-1003.9834 769.2985,-999.9505 773.3314,-999.9505 773.3314,-999.9505 921.3453,-999.9505 921.3453,-999.9505 925.3783,-999.9505 929.4112,-1003.9834 929.4112,-1008.0164 929.4112,-1008.0164 929.4112,-1016.0823 929.4112,-1016.0823 929.4112,-1020.1152 925.3783,-1024.1482 921.3453,-1024.1482"/>
<text text-anchor="middle" x="847.3384" y="-1008.8986" font-family="Arial" font-size="14.00" fill="#cfffac">core&#45;server/src/errors.ts</text>
</g>
<!-- core&#45;server/src/lib/App/errors.ts -->
<g id="node34" class="node">
<title>core&#45;server/src/lib/App/errors.ts</title>
<path fill="none" stroke="#cfffac" d="M654.9489,-1003.1482C654.9489,-1003.1482 459.5433,-1003.1482 459.5433,-1003.1482 455.5103,-1003.1482 451.4774,-999.1152 451.4774,-995.0823 451.4774,-995.0823 451.4774,-987.0164 451.4774,-987.0164 451.4774,-982.9834 455.5103,-978.9505 459.5433,-978.9505 459.5433,-978.9505 654.9489,-978.9505 654.9489,-978.9505 658.9819,-978.9505 663.0148,-982.9834 663.0148,-987.0164 663.0148,-987.0164 663.0148,-995.0823 663.0148,-995.0823 663.0148,-999.1152 658.9819,-1003.1482 654.9489,-1003.1482"/>
<text text-anchor="middle" x="557.2461" y="-987.8986" font-family="Arial" font-size="14.00" fill="#cfffac">core&#45;server/src/lib/App/errors.ts</text>
</g>
<!-- core&#45;server/src/lib/App/index.ts -->
<g id="node35" class="node">
<title>core&#45;server/src/lib/App/index.ts</title>
<path fill="none" stroke="#c6c5fe" d="M292.0431,-1003.1482C292.0431,-1003.1482 99.8173,-1003.1482 99.8173,-1003.1482 95.7843,-1003.1482 91.7514,-999.1152 91.7514,-995.0823 91.7514,-995.0823 91.7514,-987.0164 91.7514,-987.0164 91.7514,-982.9834 95.7843,-978.9505 99.8173,-978.9505 99.8173,-978.9505 292.0431,-978.9505 292.0431,-978.9505 296.076,-978.9505 300.109,-982.9834 300.109,-987.0164 300.109,-987.0164 300.109,-995.0823 300.109,-995.0823 300.109,-999.1152 296.076,-1003.1482 292.0431,-1003.1482"/>
<text text-anchor="middle" x="195.9302" y="-987.8986" font-family="Arial" font-size="14.00" fill="#c6c5fe">core&#45;server/src/lib/App/index.ts</text>
</g>
<!-- core&#45;server/src/lib/App/index.ts&#45;&gt;core&#45;server/src/lib/App/errors.ts -->
<g id="edge31" class="edge">
<title>core&#45;server/src/lib/App/index.ts&#45;&gt;core&#45;server/src/lib/App/errors.ts</title>
<path fill="none" stroke="#757575" d="M300.4377,-991.0493C344.5191,-991.0493 396.0044,-991.0493 441.2543,-991.0493"/>
<polygon fill="#757575" stroke="#757575" points="441.4082,-994.5494 451.4081,-991.0493 441.4081,-987.5494 441.4082,-994.5494"/>
</g>
<!-- core&#45;server/src/server.ts -->
<g id="node36" class="node">
<title>core&#45;server/src/server.ts</title>
<path fill="none" stroke="#c6c5fe" d="M632.318,-961.1482C632.318,-961.1482 482.1742,-961.1482 482.1742,-961.1482 478.1413,-961.1482 474.1083,-957.1152 474.1083,-953.0823 474.1083,-953.0823 474.1083,-945.0164 474.1083,-945.0164 474.1083,-940.9834 478.1413,-936.9505 482.1742,-936.9505 482.1742,-936.9505 632.318,-936.9505 632.318,-936.9505 636.3509,-936.9505 640.3838,-940.9834 640.3838,-945.0164 640.3838,-945.0164 640.3838,-953.0823 640.3838,-953.0823 640.3838,-957.1152 636.3509,-961.1482 632.318,-961.1482"/>
<text text-anchor="middle" x="557.2461" y="-945.8986" font-family="Arial" font-size="14.00" fill="#c6c5fe">core&#45;server/src/server.ts</text>
</g>
<!-- core&#45;server/src/lib/App/index.ts&#45;&gt;core&#45;server/src/server.ts -->
<g id="edge32" class="edge">
<title>core&#45;server/src/lib/App/index.ts&#45;&gt;core&#45;server/src/server.ts</title>
<path fill="none" stroke="#757575" d="M300.1974,-980.2559C329.8325,-977.0844 362.1292,-973.5299 391.8604,-970.0493 415.2532,-967.3108 440.4852,-964.1914 464.0234,-961.2099"/>
<polygon fill="#757575" stroke="#757575" points="464.5184,-964.6752 473.9972,-959.9421 463.6356,-957.7311 464.5184,-964.6752"/>
</g>
<!-- core&#45;server/src/server.ts&#45;&gt;core&#45;server/src/errors.ts -->
<g id="edge37" class="edge">
<title>core&#45;server/src/server.ts&#45;&gt;core&#45;server/src/errors.ts</title>
<path fill="none" stroke="#757575" d="M640.5289,-957.9361C656.1098,-960.8919 672.0664,-964.8233 686.6318,-970.0493 704.0668,-976.3049 705.2155,-984.7421 722.6318,-991.0493 733.0099,-994.8077 744.1213,-997.8998 755.2776,-1000.4423"/>
<polygon fill="#757575" stroke="#757575" points="754.565,-1003.869 765.076,-1002.5382 756.0293,-997.0239 754.565,-1003.869"/>
</g>
<!-- core&#45;server/src/middleware/content.ts -->
<g id="node42" class="node">
<title>core&#45;server/src/middleware/content.ts</title>
<path fill="none" stroke="#cfffac" d="M964.1859,-982.1482C964.1859,-982.1482 730.4908,-982.1482 730.4908,-982.1482 726.4579,-982.1482 722.425,-978.1152 722.425,-974.0823 722.425,-974.0823 722.425,-966.0164 722.425,-966.0164 722.425,-961.9834 726.4579,-957.9505 730.4908,-957.9505 730.4908,-957.9505 964.1859,-957.9505 964.1859,-957.9505 968.2189,-957.9505 972.2518,-961.9834 972.2518,-966.0164 972.2518,-966.0164 972.2518,-974.0823 972.2518,-974.0823 972.2518,-978.1152 968.2189,-982.1482 964.1859,-982.1482"/>
<text text-anchor="middle" x="847.3384" y="-966.8986" font-family="Arial" font-size="14.00" fill="#cfffac">core&#45;server/src/middleware/content.ts</text>
</g>
<!-- core&#45;server/src/server.ts&#45;&gt;core&#45;server/src/middleware/content.ts -->
<g id="edge38" class="edge">
<title>core&#45;server/src/server.ts&#45;&gt;core&#45;server/src/middleware/content.ts</title>
<path fill="none" stroke="#757575" d="M640.3749,-955.0671C662.889,-956.6969 687.8533,-958.5041 712.4278,-960.283"/>
<polygon fill="#757575" stroke="#757575" points="712.3289,-963.7849 722.5556,-961.0162 712.8344,-956.8032 712.3289,-963.7849"/>
</g>
<!-- core&#45;server/src/middleware/errors.ts -->
<g id="node43" class="node">
<title>core&#45;server/src/middleware/errors.ts</title>
<path fill="none" stroke="#c6c5fe" d="M959.3203,-940.1482C959.3203,-940.1482 735.3564,-940.1482 735.3564,-940.1482 731.3235,-940.1482 727.2905,-936.1152 727.2905,-932.0823 727.2905,-932.0823 727.2905,-924.0164 727.2905,-924.0164 727.2905,-919.9834 731.3235,-915.9505 735.3564,-915.9505 735.3564,-915.9505 959.3203,-915.9505 959.3203,-915.9505 963.3533,-915.9505 967.3862,-919.9834 967.3862,-924.0164 967.3862,-924.0164 967.3862,-932.0823 967.3862,-932.0823 967.3862,-936.1152 963.3533,-940.1482 959.3203,-940.1482"/>
<text text-anchor="middle" x="847.3384" y="-924.8986" font-family="Arial" font-size="14.00" fill="#c6c5fe">core&#45;server/src/middleware/errors.ts</text>
</g>
<!-- core&#45;server/src/server.ts&#45;&gt;core&#45;server/src/middleware/errors.ts -->
<g id="edge39" class="edge">
<title>core&#45;server/src/server.ts&#45;&gt;core&#45;server/src/middleware/errors.ts</title>
<path fill="none" stroke="#757575" d="M640.3749,-943.0316C664.2454,-941.3036 690.8703,-939.3762 716.8645,-937.4944"/>
<polygon fill="#757575" stroke="#757575" points="717.4537,-940.961 727.1749,-936.748 716.9483,-933.9793 717.4537,-940.961"/>
</g>
<!-- core&#45;server/src/middleware/format.ts -->
<g id="node44" class="node">
<title>core&#45;server/src/middleware/format.ts</title>
<path fill="none" stroke="#c6c5fe" d="M960.9376,-898.1482C960.9376,-898.1482 733.7392,-898.1482 733.7392,-898.1482 729.7062,-898.1482 725.6733,-894.1152 725.6733,-890.0823 725.6733,-890.0823 725.6733,-882.0164 725.6733,-882.0164 725.6733,-877.9834 729.7062,-873.9505 733.7392,-873.9505 733.7392,-873.9505 960.9376,-873.9505 960.9376,-873.9505 964.9705,-873.9505 969.0035,-877.9834 969.0035,-882.0164 969.0035,-882.0164 969.0035,-890.0823 969.0035,-890.0823 969.0035,-894.1152 964.9705,-898.1482 960.9376,-898.1482"/>
<text text-anchor="middle" x="847.3384" y="-882.8986" font-family="Arial" font-size="14.00" fill="#c6c5fe">core&#45;server/src/middleware/format.ts</text>
</g>
<!-- core&#45;server/src/server.ts&#45;&gt;core&#45;server/src/middleware/format.ts -->
<g id="edge40" class="edge">
<title>core&#45;server/src/server.ts&#45;&gt;core&#45;server/src/middleware/format.ts</title>
<path fill="none" stroke="#757575" d="M600.8927,-936.9253C634.1061,-927.9531 681.0353,-915.818 722.6318,-907.0493 734.5827,-904.53 747.2282,-902.114 759.7023,-899.8754"/>
<polygon fill="#757575" stroke="#757575" points="760.4133,-903.3041 769.6529,-898.1194 759.1968,-896.4106 760.4133,-903.3041"/>
</g>
<!-- core&#45;server/src/lib/Content/errors.ts -->
<g id="node37" class="node">
<title>core&#45;server/src/lib/Content/errors.ts</title>
<path fill="none" stroke="#cfffac" d="M667.0731,-1045.1482C667.0731,-1045.1482 447.4191,-1045.1482 447.4191,-1045.1482 443.3861,-1045.1482 439.3532,-1041.1152 439.3532,-1037.0823 439.3532,-1037.0823 439.3532,-1029.0164 439.3532,-1029.0164 439.3532,-1024.9834 443.3861,-1020.9505 447.4191,-1020.9505 447.4191,-1020.9505 667.0731,-1020.9505 667.0731,-1020.9505 671.1061,-1020.9505 675.139,-1024.9834 675.139,-1029.0164 675.139,-1029.0164 675.139,-1037.0823 675.139,-1037.0823 675.139,-1041.1152 671.1061,-1045.1482 667.0731,-1045.1482"/>
<text text-anchor="middle" x="557.2461" y="-1029.8986" font-family="Arial" font-size="14.00" fill="#cfffac">core&#45;server/src/lib/Content/errors.ts</text>
</g>
<!-- core&#45;server/src/lib/Content/index.ts -->
<g id="node38" class="node">
<title>core&#45;server/src/lib/Content/index.ts</title>
<path fill="none" stroke="#c6c5fe" d="M304.1672,-1045.1482C304.1672,-1045.1482 87.6931,-1045.1482 87.6931,-1045.1482 83.6602,-1045.1482 79.6272,-1041.1152 79.6272,-1037.0823 79.6272,-1037.0823 79.6272,-1029.0164 79.6272,-1029.0164 79.6272,-1024.9834 83.6602,-1020.9505 87.6931,-1020.9505 87.6931,-1020.9505 304.1672,-1020.9505 304.1672,-1020.9505 308.2002,-1020.9505 312.2331,-1024.9834 312.2331,-1029.0164 312.2331,-1029.0164 312.2331,-1037.0823 312.2331,-1037.0823 312.2331,-1041.1152 308.2002,-1045.1482 304.1672,-1045.1482"/>
<text text-anchor="middle" x="195.9302" y="-1029.8986" font-family="Arial" font-size="14.00" fill="#c6c5fe">core&#45;server/src/lib/Content/index.ts</text>
</g>
<!-- core&#45;server/src/lib/Content/index.ts&#45;&gt;core&#45;server/src/lib/Content/errors.ts -->
<g id="edge33" class="edge">
<title>core&#45;server/src/lib/Content/index.ts&#45;&gt;core&#45;server/src/lib/Content/errors.ts</title>
<path fill="none" stroke="#757575" d="M312.2416,-1033.0493C349.5484,-1033.0493 391.0663,-1033.0493 429.1665,-1033.0493"/>
<polygon fill="#757575" stroke="#757575" points="429.2933,-1036.5494 439.2932,-1033.0493 429.2932,-1029.5494 429.2933,-1036.5494"/>
</g>
<!-- core&#45;server/src/lib/Resource/index.ts -->
<g id="node39" class="node">
<title>core&#45;server/src/lib/Resource/index.ts</title>
<path fill="none" stroke="#cfffac" d="M309.5499,-1087.1482C309.5499,-1087.1482 82.3104,-1087.1482 82.3104,-1087.1482 78.2775,-1087.1482 74.2446,-1083.1152 74.2446,-1079.0823 74.2446,-1079.0823 74.2446,-1071.0164 74.2446,-1071.0164 74.2446,-1066.9834 78.2775,-1062.9505 82.3104,-1062.9505 82.3104,-1062.9505 309.5499,-1062.9505 309.5499,-1062.9505 313.5828,-1062.9505 317.6158,-1066.9834 317.6158,-1071.0164 317.6158,-1071.0164 317.6158,-1079.0823 317.6158,-1079.0823 317.6158,-1083.1152 313.5828,-1087.1482 309.5499,-1087.1482"/>
<text text-anchor="middle" x="195.9302" y="-1071.8986" font-family="Arial" font-size="14.00" fill="#cfffac">core&#45;server/src/lib/Resource/index.ts</text>
</g>
<!-- core&#45;server/src/lib/index.ts -->
<g id="node40" class="node">
<title>core&#45;server/src/lib/index.ts</title>
<path fill="none" stroke="#cfffac" d="M277.7436,-1129.1482C277.7436,-1129.1482 114.1168,-1129.1482 114.1168,-1129.1482 110.0838,-1129.1482 106.0509,-1125.1152 106.0509,-1121.0823 106.0509,-1121.0823 106.0509,-1113.0164 106.0509,-1113.0164 106.0509,-1108.9834 110.0838,-1104.9505 114.1168,-1104.9505 114.1168,-1104.9505 277.7436,-1104.9505 277.7436,-1104.9505 281.7765,-1104.9505 285.8095,-1108.9834 285.8095,-1113.0164 285.8095,-1113.0164 285.8095,-1121.0823 285.8095,-1121.0823 285.8095,-1125.1152 281.7765,-1129.1482 277.7436,-1129.1482"/>
<text text-anchor="middle" x="195.9302" y="-1113.8986" font-family="Arial" font-size="14.00" fill="#cfffac">core&#45;server/src/lib/index.ts</text>
</g>
<!-- core&#45;server/src/lib/status.ts -->
<g id="node41" class="node">
<title>core&#45;server/src/lib/status.ts</title>
<path fill="none" stroke="#cfffac" d="M1183.3718,-919.1482C1183.3718,-919.1482 1015.9798,-919.1482 1015.9798,-919.1482 1011.9468,-919.1482 1007.9139,-915.1152 1007.9139,-911.0823 1007.9139,-911.0823 1007.9139,-903.0164 1007.9139,-903.0164 1007.9139,-898.9834 1011.9468,-894.9505 1015.9798,-894.9505 1015.9798,-894.9505 1183.3718,-894.9505 1183.3718,-894.9505 1187.4047,-894.9505 1191.4377,-898.9834 1191.4377,-903.0164 1191.4377,-903.0164 1191.4377,-911.0823 1191.4377,-911.0823 1191.4377,-915.1152 1187.4047,-919.1482 1183.3718,-919.1482"/>
<text text-anchor="middle" x="1099.6758" y="-903.8986" font-family="Arial" font-size="14.00" fill="#cfffac">core&#45;server/src/lib/status.ts</text>
</g>
<!-- core&#45;server/src/middleware/errors.ts&#45;&gt;core&#45;server/src/lib/status.ts -->
<g id="edge34" class="edge">
<title>core&#45;server/src/middleware/errors.ts&#45;&gt;core&#45;server/src/lib/status.ts</title>
<path fill="none" stroke="#757575" d="M967.5948,-918.0413C977.6755,-917.2024 987.8066,-916.3593 997.73,-915.5334"/>
<polygon fill="#757575" stroke="#757575" points="998.3099,-918.9974 1007.9851,-914.68 997.7293,-912.0215 998.3099,-918.9974"/>
</g>
<!-- core&#45;server/src/middleware/format.ts&#45;&gt;core&#45;server/src/lib/status.ts -->
<g id="edge35" class="edge">
<title>core&#45;server/src/middleware/format.ts&#45;&gt;core&#45;server/src/lib/status.ts</title>
<path fill="none" stroke="#757575" d="M969.0723,-896.1802C978.6978,-896.9813 988.3578,-897.7852 997.8278,-898.5733"/>
<polygon fill="#757575" stroke="#757575" points="997.7628,-902.0799 1008.0186,-899.4214 998.3434,-895.104 997.7628,-902.0799"/>
</g>
<!-- core&#45;server/src/scripts/index.ts -->
<g id="node45" class="node">
<title>core&#45;server/src/scripts/index.ts</title>
<path fill="none" stroke="#c6c5fe" d="M290.6847,-961.1482C290.6847,-961.1482 101.1757,-961.1482 101.1757,-961.1482 97.1427,-961.1482 93.1098,-957.1152 93.1098,-953.0823 93.1098,-953.0823 93.1098,-945.0164 93.1098,-945.0164 93.1098,-940.9834 97.1427,-936.9505 101.1757,-936.9505 101.1757,-936.9505 290.6847,-936.9505 290.6847,-936.9505 294.7176,-936.9505 298.7506,-940.9834 298.7506,-945.0164 298.7506,-945.0164 298.7506,-953.0823 298.7506,-953.0823 298.7506,-957.1152 294.7176,-961.1482 290.6847,-961.1482"/>
<text text-anchor="middle" x="195.9302" y="-945.8986" font-family="Arial" font-size="14.00" fill="#c6c5fe">core&#45;server/src/scripts/index.ts</text>
</g>
<!-- core&#45;server/src/scripts/index.ts&#45;&gt;core&#45;server/src/server.ts -->
<g id="edge36" class="edge">
<title>core&#45;server/src/scripts/index.ts&#45;&gt;core&#45;server/src/server.ts</title>
<path fill="none" stroke="#757575" d="M298.9853,-949.0493C350.8926,-949.0493 413.3529,-949.0493 463.8452,-949.0493"/>
<polygon fill="#757575" stroke="#757575" points="464.1032,-952.5494 474.1031,-949.0493 464.1031,-945.5494 464.1032,-952.5494"/>
</g>
<!-- core&#45;server/src/statuses/enUS.ts -->
<g id="node46" class="node">
<title>core&#45;server/src/statuses/enUS.ts</title>
<path fill="none" stroke="#cfffac" d="M658.7417,-1171.1482C658.7417,-1171.1482 455.7505,-1171.1482 455.7505,-1171.1482 451.7175,-1171.1482 447.6846,-1167.1152 447.6846,-1163.0823 447.6846,-1163.0823 447.6846,-1155.0164 447.6846,-1155.0164 447.6846,-1150.9834 451.7175,-1146.9505 455.7505,-1146.9505 455.7505,-1146.9505 658.7417,-1146.9505 658.7417,-1146.9505 662.7747,-1146.9505 666.8076,-1150.9834 666.8076,-1155.0164 666.8076,-1155.0164 666.8076,-1163.0823 666.8076,-1163.0823 666.8076,-1167.1152 662.7747,-1171.1482 658.7417,-1171.1482"/>
<text text-anchor="middle" x="557.2461" y="-1155.8986" font-family="Arial" font-size="14.00" fill="#cfffac">core&#45;server/src/statuses/enUS.ts</text>
</g>
<!-- core&#45;server/src/statuses/index.ts -->
<g id="node47" class="node">
<title>core&#45;server/src/statuses/index.ts</title>
<path fill="none" stroke="#c6c5fe" d="M296.3746,-1171.1482C296.3746,-1171.1482 95.4857,-1171.1482 95.4857,-1171.1482 91.4528,-1171.1482 87.4199,-1167.1152 87.4199,-1163.0823 87.4199,-1163.0823 87.4199,-1155.0164 87.4199,-1155.0164 87.4199,-1150.9834 91.4528,-1146.9505 95.4857,-1146.9505 95.4857,-1146.9505 296.3746,-1146.9505 296.3746,-1146.9505 300.4075,-1146.9505 304.4405,-1150.9834 304.4405,-1155.0164 304.4405,-1155.0164 304.4405,-1163.0823 304.4405,-1163.0823 304.4405,-1167.1152 300.4075,-1171.1482 296.3746,-1171.1482"/>
<text text-anchor="middle" x="195.9302" y="-1155.8986" font-family="Arial" font-size="14.00" fill="#c6c5fe">core&#45;server/src/statuses/index.ts</text>
</g>
<!-- core&#45;server/src/statuses/index.ts&#45;&gt;core&#45;server/src/statuses/enUS.ts -->
<g id="edge41" class="edge">
<title>core&#45;server/src/statuses/index.ts&#45;&gt;core&#45;server/src/statuses/enUS.ts</title>
<path fill="none" stroke="#757575" d="M304.8268,-1159.0493C346.6663,-1159.0493 394.6375,-1159.0493 437.4464,-1159.0493"/>
<polygon fill="#757575" stroke="#757575" points="437.6369,-1162.5494 447.6369,-1159.0493 437.6369,-1155.5494 437.6369,-1162.5494"/>
</g>
<!-- core/src/index.ts -->
<g id="node48" class="node">
<title>core/src/index.ts</title>
<path fill="none" stroke="#cfffac" d="M246.7881,-1213.1482C246.7881,-1213.1482 145.0722,-1213.1482 145.0722,-1213.1482 141.0393,-1213.1482 137.0063,-1209.1152 137.0063,-1205.0823 137.0063,-1205.0823 137.0063,-1197.0164 137.0063,-1197.0164 137.0063,-1192.9834 141.0393,-1188.9505 145.0722,-1188.9505 145.0722,-1188.9505 246.7881,-1188.9505 246.7881,-1188.9505 250.8211,-1188.9505 254.854,-1192.9834 254.854,-1197.0164 254.854,-1197.0164 254.854,-1205.0823 254.854,-1205.0823 254.854,-1209.1152 250.8211,-1213.1482 246.7881,-1213.1482"/>
<text text-anchor="middle" x="195.9302" y="-1197.8986" font-family="Arial" font-size="14.00" fill="#cfffac">core/src/index.ts</text>
</g>
<!-- oclif/src/commands/example/index.ts -->
<g id="node49" class="node">
<title>oclif/src/commands/example/index.ts</title>
<path fill="none" stroke="#c6c5fe" d="M310.1154,-1297.1482C310.1154,-1297.1482 81.745,-1297.1482 81.745,-1297.1482 77.712,-1297.1482 73.6791,-1293.1152 73.6791,-1289.0823 73.6791,-1289.0823 73.6791,-1281.0164 73.6791,-1281.0164 73.6791,-1276.9834 77.712,-1272.9505 81.745,-1272.9505 81.745,-1272.9505 310.1154,-1272.9505 310.1154,-1272.9505 314.1483,-1272.9505 318.1813,-1276.9834 318.1813,-1281.0164 318.1813,-1281.0164 318.1813,-1289.0823 318.1813,-1289.0823 318.1813,-1293.1152 314.1483,-1297.1482 310.1154,-1297.1482"/>
<text text-anchor="middle" x="195.9302" y="-1281.8986" font-family="Arial" font-size="14.00" fill="#c6c5fe">oclif/src/commands/example/index.ts</text>
</g>
<!-- oclif/src/lib/examples.ts -->
<g id="node50" class="node">
<title>oclif/src/lib/examples.ts</title>
<path fill="none" stroke="#c6c5fe" d="M629.1109,-1276.1482C629.1109,-1276.1482 485.3813,-1276.1482 485.3813,-1276.1482 481.3484,-1276.1482 477.3154,-1272.1152 477.3154,-1268.0823 477.3154,-1268.0823 477.3154,-1260.0164 477.3154,-1260.0164 477.3154,-1255.9834 481.3484,-1251.9505 485.3813,-1251.9505 485.3813,-1251.9505 629.1109,-1251.9505 629.1109,-1251.9505 633.1438,-1251.9505 637.1768,-1255.9834 637.1768,-1260.0164 637.1768,-1260.0164 637.1768,-1268.0823 637.1768,-1268.0823 637.1768,-1272.1152 633.1438,-1276.1482 629.1109,-1276.1482"/>
<text text-anchor="middle" x="557.2461" y="-1260.8986" font-family="Arial" font-size="14.00" fill="#c6c5fe">oclif/src/lib/examples.ts</text>
</g>
<!-- oclif/src/commands/example/index.ts&#45;&gt;oclif/src/lib/examples.ts -->
<g id="edge42" class="edge">
<title>oclif/src/commands/example/index.ts&#45;&gt;oclif/src/lib/examples.ts</title>
<path fill="none" stroke="#757575" d="M318.2553,-1277.9397C366.9804,-1275.1077 422.0475,-1271.9072 467.0319,-1269.2926"/>
<polygon fill="#757575" stroke="#757575" points="467.2783,-1272.7843 477.0584,-1268.7099 466.8721,-1265.7961 467.2783,-1272.7843"/>
</g>
<!-- oclif/src/lib/spinner.ts -->
<g id="node57" class="node">
<title>oclif/src/lib/spinner.ts</title>
<path fill="none" stroke="#cfffac" d="M911.9308,-1276.1482C911.9308,-1276.1482 782.746,-1276.1482 782.746,-1276.1482 778.713,-1276.1482 774.6801,-1272.1152 774.6801,-1268.0823 774.6801,-1268.0823 774.6801,-1260.0164 774.6801,-1260.0164 774.6801,-1255.9834 778.713,-1251.9505 782.746,-1251.9505 782.746,-1251.9505 911.9308,-1251.9505 911.9308,-1251.9505 915.9637,-1251.9505 919.9967,-1255.9834 919.9967,-1260.0164 919.9967,-1260.0164 919.9967,-1268.0823 919.9967,-1268.0823 919.9967,-1272.1152 915.9637,-1276.1482 911.9308,-1276.1482"/>
<text text-anchor="middle" x="847.3384" y="-1260.8986" font-family="Arial" font-size="14.00" fill="#cfffac">oclif/src/lib/spinner.ts</text>
</g>
<!-- oclif/src/lib/examples.ts&#45;&gt;oclif/src/lib/spinner.ts -->
<g id="edge46" class="edge">
<title>oclif/src/lib/examples.ts&#45;&gt;oclif/src/lib/spinner.ts</title>
<path fill="none" stroke="#757575" d="M637.283,-1264.0493C676.7778,-1264.0493 724.3807,-1264.0493 764.2771,-1264.0493"/>
<polygon fill="#757575" stroke="#757575" points="764.5103,-1267.5494 774.5103,-1264.0493 764.5103,-1260.5494 764.5103,-1267.5494"/>
</g>
<!-- oclif/src/commands/example/list.ts -->
<g id="node51" class="node">
<title>oclif/src/commands/example/list.ts</title>
<path fill="none" stroke="#c6c5fe" d="M302.2572,-1255.1482C302.2572,-1255.1482 89.6032,-1255.1482 89.6032,-1255.1482 85.5702,-1255.1482 81.5373,-1251.1152 81.5373,-1247.0823 81.5373,-1247.0823 81.5373,-1239.0164 81.5373,-1239.0164 81.5373,-1234.9834 85.5702,-1230.9505 89.6032,-1230.9505 89.6032,-1230.9505 302.2572,-1230.9505 302.2572,-1230.9505 306.2901,-1230.9505 310.3231,-1234.9834 310.3231,-1239.0164 310.3231,-1239.0164 310.3231,-1247.0823 310.3231,-1247.0823 310.3231,-1251.1152 306.2901,-1255.1482 302.2572,-1255.1482"/>
<text text-anchor="middle" x="195.9302" y="-1239.8986" font-family="Arial" font-size="14.00" fill="#c6c5fe">oclif/src/commands/example/list.ts</text>
</g>
<!-- oclif/src/commands/example/list.ts&#45;&gt;oclif/src/lib/examples.ts -->
<g id="edge43" class="edge">
<title>oclif/src/commands/example/list.ts&#45;&gt;oclif/src/lib/examples.ts</title>
<path fill="none" stroke="#757575" d="M310.2528,-1249.6938C360.8138,-1252.6325 419.425,-1256.039 466.8607,-1258.796"/>
<polygon fill="#757575" stroke="#757575" points="466.9282,-1262.3058 477.1144,-1259.392 467.3344,-1255.3176 466.9282,-1262.3058"/>
</g>
<!-- oclif/src/commands/new/index.ts -->
<g id="node52" class="node">
<title>oclif/src/commands/new/index.ts</title>
<path fill="none" stroke="#cfffac" d="M296.3814,-1339.1482C296.3814,-1339.1482 95.4789,-1339.1482 95.4789,-1339.1482 91.446,-1339.1482 87.413,-1335.1152 87.413,-1331.0823 87.413,-1331.0823 87.413,-1323.0164 87.413,-1323.0164 87.413,-1318.9834 91.446,-1314.9505 95.4789,-1314.9505 95.4789,-1314.9505 296.3814,-1314.9505 296.3814,-1314.9505 300.4144,-1314.9505 304.4473,-1318.9834 304.4473,-1323.0164 304.4473,-1323.0164 304.4473,-1331.0823 304.4473,-1331.0823 304.4473,-1335.1152 300.4144,-1339.1482 296.3814,-1339.1482"/>
<text text-anchor="middle" x="195.9302" y="-1323.8986" font-family="Arial" font-size="14.00" fill="#cfffac">oclif/src/commands/new/index.ts</text>
</g>
<!-- oclif/src/commands/run.ts -->
<g id="node53" class="node">
<title>oclif/src/commands/run.ts</title>
<path fill="none" stroke="#c6c5fe" d="M636.3904,-1381.1482C636.3904,-1381.1482 478.1018,-1381.1482 478.1018,-1381.1482 474.0688,-1381.1482 470.0359,-1377.1152 470.0359,-1373.0823 470.0359,-1373.0823 470.0359,-1365.0164 470.0359,-1365.0164 470.0359,-1360.9834 474.0688,-1356.9505 478.1018,-1356.9505 478.1018,-1356.9505 636.3904,-1356.9505 636.3904,-1356.9505 640.4233,-1356.9505 644.4563,-1360.9834 644.4563,-1365.0164 644.4563,-1365.0164 644.4563,-1373.0823 644.4563,-1373.0823 644.4563,-1377.1152 640.4233,-1381.1482 636.3904,-1381.1482"/>
<text text-anchor="middle" x="557.2461" y="-1365.8986" font-family="Arial" font-size="14.00" fill="#c6c5fe">oclif/src/commands/run.ts</text>
</g>
<!-- oclif/src/lib/run.ts -->
<g id="node54" class="node">
<title>oclif/src/lib/run.ts</title>
<path fill="none" stroke="#cfffac" d="M899.5208,-1381.1482C899.5208,-1381.1482 795.156,-1381.1482 795.156,-1381.1482 791.123,-1381.1482 787.0901,-1377.1152 787.0901,-1373.0823 787.0901,-1373.0823 787.0901,-1365.0164 787.0901,-1365.0164 787.0901,-1360.9834 791.123,-1356.9505 795.156,-1356.9505 795.156,-1356.9505 899.5208,-1356.9505 899.5208,-1356.9505 903.5537,-1356.9505 907.5867,-1360.9834 907.5867,-1365.0164 907.5867,-1365.0164 907.5867,-1373.0823 907.5867,-1373.0823 907.5867,-1377.1152 903.5537,-1381.1482 899.5208,-1381.1482"/>
<text text-anchor="middle" x="847.3384" y="-1365.8986" font-family="Arial" font-size="14.00" fill="#cfffac">oclif/src/lib/run.ts</text>
</g>
<!-- oclif/src/commands/run.ts&#45;&gt;oclif/src/lib/run.ts -->
<g id="edge44" class="edge">
<title>oclif/src/commands/run.ts&#45;&gt;oclif/src/lib/run.ts</title>
<path fill="none" stroke="#757575" d="M644.6767,-1369.0493C687.0339,-1369.0493 737.2186,-1369.0493 777.0514,-1369.0493"/>
<polygon fill="#757575" stroke="#757575" points="777.2063,-1372.5494 787.2063,-1369.0493 777.2063,-1365.5494 777.2063,-1372.5494"/>
</g>
<!-- oclif/src/index.ts -->
<g id="node55" class="node">
<title>oclif/src/index.ts</title>
<path fill="none" stroke="#cfffac" d="M245.451,-1444.1482C245.451,-1444.1482 146.4094,-1444.1482 146.4094,-1444.1482 142.3764,-1444.1482 138.3435,-1440.1152 138.3435,-1436.0823 138.3435,-1436.0823 138.3435,-1428.0164 138.3435,-1428.0164 138.3435,-1423.9834 142.3764,-1419.9505 146.4094,-1419.9505 146.4094,-1419.9505 245.451,-1419.9505 245.451,-1419.9505 249.4839,-1419.9505 253.5169,-1423.9834 253.5169,-1428.0164 253.5169,-1428.0164 253.5169,-1436.0823 253.5169,-1436.0823 253.5169,-1440.1152 249.4839,-1444.1482 245.451,-1444.1482"/>
<text text-anchor="middle" x="195.9302" y="-1428.8986" font-family="Arial" font-size="14.00" fill="#cfffac">oclif/src/index.ts</text>
</g>
<!-- oclif/src/lib/entry.ts -->
<g id="node56" class="node">
<title>oclif/src/lib/entry.ts</title>
<path fill="none" stroke="#c6c5fe" d="M252.963,-1381.1482C252.963,-1381.1482 138.8974,-1381.1482 138.8974,-1381.1482 134.8645,-1381.1482 130.8315,-1377.1152 130.8315,-1373.0823 130.8315,-1373.0823 130.8315,-1365.0164 130.8315,-1365.0164 130.8315,-1360.9834 134.8645,-1356.9505 138.8974,-1356.9505 138.8974,-1356.9505 252.963,-1356.9505 252.963,-1356.9505 256.9959,-1356.9505 261.0288,-1360.9834 261.0288,-1365.0164 261.0288,-1365.0164 261.0288,-1373.0823 261.0288,-1373.0823 261.0288,-1377.1152 256.9959,-1381.1482 252.963,-1381.1482"/>
<text text-anchor="middle" x="195.9302" y="-1365.8986" font-family="Arial" font-size="14.00" fill="#c6c5fe">oclif/src/lib/entry.ts</text>
</g>
<!-- oclif/src/lib/entry.ts&#45;&gt;oclif/src/commands/run.ts -->
<g id="edge45" class="edge">
<title>oclif/src/lib/entry.ts&#45;&gt;oclif/src/commands/run.ts</title>
<path fill="none" stroke="#757575" d="M261.3618,-1369.0493C316.6488,-1369.0493 396.6462,-1369.0493 459.5241,-1369.0493"/>
<polygon fill="#757575" stroke="#757575" points="459.859,-1372.5494 469.859,-1369.0493 459.859,-1365.5494 459.859,-1372.5494"/>
</g>
<!-- oclif/src/lib/new/defaultData.ts -->
<g id="node58" class="node">
<title>oclif/src/lib/new/defaultData.ts</title>
<path fill="none" stroke="#cfffac" d="M939.965,-1423.1482C939.965,-1423.1482 754.7118,-1423.1482 754.7118,-1423.1482 750.6788,-1423.1482 746.6459,-1419.1152 746.6459,-1415.0823 746.6459,-1415.0823 746.6459,-1407.0164 746.6459,-1407.0164 746.6459,-1402.9834 750.6788,-1398.9505 754.7118,-1398.9505 754.7118,-1398.9505 939.965,-1398.9505 939.965,-1398.9505 943.9979,-1398.9505 948.0309,-1402.9834 948.0309,-1407.0164 948.0309,-1407.0164 948.0309,-1415.0823 948.0309,-1415.0823 948.0309,-1419.1152 943.9979,-1423.1482 939.965,-1423.1482"/>
<text text-anchor="middle" x="847.3384" y="-1407.8986" font-family="Arial" font-size="14.00" fill="#cfffac">oclif/src/lib/new/defaultData.ts</text>
</g>
<!-- oclif/src/lib/new/index.ts -->
<g id="node59" class="node">
<title>oclif/src/lib/new/index.ts</title>
<path fill="none" stroke="#c6c5fe" d="M269.419,-1507.1482C269.419,-1507.1482 122.4414,-1507.1482 122.4414,-1507.1482 118.4084,-1507.1482 114.3755,-1503.1152 114.3755,-1499.0823 114.3755,-1499.0823 114.3755,-1491.0164 114.3755,-1491.0164 114.3755,-1486.9834 118.4084,-1482.9505 122.4414,-1482.9505 122.4414,-1482.9505 269.419,-1482.9505 269.419,-1482.9505 273.4519,-1482.9505 277.4849,-1486.9834 277.4849,-1491.0164 277.4849,-1491.0164 277.4849,-1499.0823 277.4849,-1499.0823 277.4849,-1503.1152 273.4519,-1507.1482 269.419,-1507.1482"/>
<text text-anchor="middle" x="195.9302" y="-1491.8986" font-family="Arial" font-size="14.00" fill="#c6c5fe">oclif/src/lib/new/index.ts</text>
</g>
<!-- oclif/src/lib/new/initDirectory.ts -->
<g id="node60" class="node">
<title>oclif/src/lib/new/initDirectory.ts</title>
<path fill="none" stroke="#cfffac" d="M650.6309,-1591.1482C650.6309,-1591.1482 463.8613,-1591.1482 463.8613,-1591.1482 459.8283,-1591.1482 455.7954,-1587.1152 455.7954,-1583.0823 455.7954,-1583.0823 455.7954,-1575.0164 455.7954,-1575.0164 455.7954,-1570.9834 459.8283,-1566.9505 463.8613,-1566.9505 463.8613,-1566.9505 650.6309,-1566.9505 650.6309,-1566.9505 654.6638,-1566.9505 658.6968,-1570.9834 658.6968,-1575.0164 658.6968,-1575.0164 658.6968,-1583.0823 658.6968,-1583.0823 658.6968,-1587.1152 654.6638,-1591.1482 650.6309,-1591.1482"/>
<text text-anchor="middle" x="557.2461" y="-1575.8986" font-family="Arial" font-size="14.00" fill="#cfffac">oclif/src/lib/new/initDirectory.ts</text>
</g>
<!-- oclif/src/lib/new/index.ts&#45;&gt;oclif/src/lib/new/initDirectory.ts -->
<g id="edge47" class="edge">
<title>oclif/src/lib/new/index.ts&#45;&gt;oclif/src/lib/new/initDirectory.ts</title>
<path fill="none" stroke="#757575" d="M235.4293,-1507.1325C281.3411,-1520.8607 359.5519,-1543.2706 427.8604,-1558.0493 439.7069,-1560.6123 452.2246,-1563.0179 464.6215,-1565.2205"/>
<polygon fill="#757575" stroke="#757575" points="464.0706,-1568.6772 474.5225,-1566.9426 465.2702,-1561.7807 464.0706,-1568.6772"/>
</g>
<!-- oclif/src/lib/new/initPackage.ts -->
<g id="node61" class="node">
<title>oclif/src/lib/new/initPackage.ts</title>
<path fill="none" stroke="#cfffac" d="M650.1451,-1549.1482C650.1451,-1549.1482 464.3471,-1549.1482 464.3471,-1549.1482 460.3142,-1549.1482 456.2812,-1545.1152 456.2812,-1541.0823 456.2812,-1541.0823 456.2812,-1533.0164 456.2812,-1533.0164 456.2812,-1528.9834 460.3142,-1524.9505 464.3471,-1524.9505 464.3471,-1524.9505 650.1451,-1524.9505 650.1451,-1524.9505 654.178,-1524.9505 658.2109,-1528.9834 658.2109,-1533.0164 658.2109,-1533.0164 658.2109,-1541.0823 658.2109,-1541.0823 658.2109,-1545.1152 654.178,-1549.1482 650.1451,-1549.1482"/>
<text text-anchor="middle" x="557.2461" y="-1533.8986" font-family="Arial" font-size="14.00" fill="#cfffac">oclif/src/lib/new/initPackage.ts</text>
</g>
<!-- oclif/src/lib/new/index.ts&#45;&gt;oclif/src/lib/new/initPackage.ts -->
<g id="edge48" class="edge">
<title>oclif/src/lib/new/index.ts&#45;&gt;oclif/src/lib/new/initPackage.ts</title>
<path fill="none" stroke="#757575" d="M277.467,-1504.5273C327.2363,-1510.3126 391.542,-1517.7876 445.951,-1524.1122"/>
<polygon fill="#757575" stroke="#757575" points="445.6521,-1527.6009 455.9894,-1525.2791 446.4605,-1520.6477 445.6521,-1527.6009"/>
</g>
<!-- oclif/src/lib/new/install.ts -->
<g id="node62" class="node">
<title>oclif/src/lib/new/install.ts</title>
<path fill="none" stroke="#cfffac" d="M632.0595,-1507.1482C632.0595,-1507.1482 482.4326,-1507.1482 482.4326,-1507.1482 478.3997,-1507.1482 474.3668,-1503.1152 474.3668,-1499.0823 474.3668,-1499.0823 474.3668,-1491.0164 474.3668,-1491.0164 474.3668,-1486.9834 478.3997,-1482.9505 482.4326,-1482.9505 482.4326,-1482.9505 632.0595,-1482.9505 632.0595,-1482.9505 636.0925,-1482.9505 640.1254,-1486.9834 640.1254,-1491.0164 640.1254,-1491.0164 640.1254,-1499.0823 640.1254,-1499.0823 640.1254,-1503.1152 636.0925,-1507.1482 632.0595,-1507.1482"/>
<text text-anchor="middle" x="557.2461" y="-1491.8986" font-family="Arial" font-size="14.00" fill="#cfffac">oclif/src/lib/new/install.ts</text>
</g>
<!-- oclif/src/lib/new/index.ts&#45;&gt;oclif/src/lib/new/install.ts -->
<g id="edge49" class="edge">
<title>oclif/src/lib/new/index.ts&#45;&gt;oclif/src/lib/new/install.ts</title>
<path fill="none" stroke="#757575" d="M277.467,-1495.0493C332.9355,-1495.0493 406.4601,-1495.0493 464.2164,-1495.0493"/>
<polygon fill="#757575" stroke="#757575" points="464.4419,-1498.5494 474.4419,-1495.0493 464.4418,-1491.5494 464.4419,-1498.5494"/>
</g>
<!-- oclif/src/lib/new/override.ts -->
<g id="node63" class="node">
<title>oclif/src/lib/new/override.ts</title>
<path fill="none" stroke="#cfffac" d="M639.3453,-1465.1482C639.3453,-1465.1482 475.1469,-1465.1482 475.1469,-1465.1482 471.1139,-1465.1482 467.081,-1461.1152 467.081,-1457.0823 467.081,-1457.0823 467.081,-1449.0164 467.081,-1449.0164 467.081,-1444.9834 471.1139,-1440.9505 475.1469,-1440.9505 475.1469,-1440.9505 639.3453,-1440.9505 639.3453,-1440.9505 643.3783,-1440.9505 647.4112,-1444.9834 647.4112,-1449.0164 647.4112,-1449.0164 647.4112,-1457.0823 647.4112,-1457.0823 647.4112,-1461.1152 643.3783,-1465.1482 639.3453,-1465.1482"/>
<text text-anchor="middle" x="557.2461" y="-1449.8986" font-family="Arial" font-size="14.00" fill="#cfffac">oclif/src/lib/new/override.ts</text>
</g>
<!-- oclif/src/lib/new/index.ts&#45;&gt;oclif/src/lib/new/override.ts -->
<g id="edge50" class="edge">
<title>oclif/src/lib/new/index.ts&#45;&gt;oclif/src/lib/new/override.ts</title>
<path fill="none" stroke="#757575" d="M277.467,-1485.5713C330.6775,-1479.3861 400.504,-1471.2693 457.0869,-1464.692"/>
<polygon fill="#757575" stroke="#757575" points="457.6002,-1468.156 467.1292,-1463.5247 456.7919,-1461.2028 457.6002,-1468.156"/>
</g>
<!-- oclif/src/lib/new/prompt.ts -->
<g id="node64" class="node">
<title>oclif/src/lib/new/prompt.ts</title>
<path fill="none" stroke="#c6c5fe" d="M635.8385,-1423.1482C635.8385,-1423.1482 478.6537,-1423.1482 478.6537,-1423.1482 474.6208,-1423.1482 470.5878,-1419.1152 470.5878,-1415.0823 470.5878,-1415.0823 470.5878,-1407.0164 470.5878,-1407.0164 470.5878,-1402.9834 474.6208,-1398.9505 478.6537,-1398.9505 478.6537,-1398.9505 635.8385,-1398.9505 635.8385,-1398.9505 639.8714,-1398.9505 643.9044,-1402.9834 643.9044,-1407.0164 643.9044,-1407.0164 643.9044,-1415.0823 643.9044,-1415.0823 643.9044,-1419.1152 639.8714,-1423.1482 635.8385,-1423.1482"/>
<text text-anchor="middle" x="557.2461" y="-1407.8986" font-family="Arial" font-size="14.00" fill="#c6c5fe">oclif/src/lib/new/prompt.ts</text>
</g>
<!-- oclif/src/lib/new/index.ts&#45;&gt;oclif/src/lib/new/prompt.ts -->
<g id="edge51" class="edge">
<title>oclif/src/lib/new/index.ts&#45;&gt;oclif/src/lib/new/prompt.ts</title>
<path fill="none" stroke="#757575" d="M277.6814,-1483.4934C313.485,-1476.9237 355.5287,-1467.1252 391.8604,-1453.0493 409.1326,-1446.3576 410.4254,-1438.3049 427.8604,-1432.0493 438.2975,-1428.3045 449.4489,-1425.2245 460.6646,-1422.6918"/>
<polygon fill="#757575" stroke="#757575" points="461.4633,-1426.1004 470.521,-1420.6041 460.0127,-1419.2523 461.4633,-1426.1004"/>
</g>
<!-- oclif/src/lib/new/prompt.ts&#45;&gt;oclif/src/lib/new/defaultData.ts -->
<g id="edge52" class="edge">
<title>oclif/src/lib/new/prompt.ts&#45;&gt;oclif/src/lib/new/defaultData.ts</title>
<path fill="none" stroke="#757575" d="M643.8904,-1411.0493C672.915,-1411.0493 705.685,-1411.0493 736.3107,-1411.0493"/>
<polygon fill="#757575" stroke="#757575" points="736.6061,-1414.5494 746.6061,-1411.0493 736.6061,-1407.5494 736.6061,-1414.5494"/>
</g>
<!-- origami/src/Origami.ts -->
<g id="node65" class="node">
<title>origami/src/Origami.ts</title>
<path fill="none" stroke="#c6c5fe" d="M625.3111,-1633.1482C625.3111,-1633.1482 489.1811,-1633.1482 489.1811,-1633.1482 485.1481,-1633.1482 481.1152,-1629.1152 481.1152,-1625.0823 481.1152,-1625.0823 481.1152,-1617.0164 481.1152,-1617.0164 481.1152,-1612.9834 485.1481,-1608.9505 489.1811,-1608.9505 489.1811,-1608.9505 625.3111,-1608.9505 625.3111,-1608.9505 629.3441,-1608.9505 633.377,-1612.9834 633.377,-1617.0164 633.377,-1617.0164 633.377,-1625.0823 633.377,-1625.0823 633.377,-1629.1152 629.3441,-1633.1482 625.3111,-1633.1482"/>
<text text-anchor="middle" x="557.2461" y="-1617.8986" font-family="Arial" font-size="14.00" fill="#c6c5fe">origami/src/Origami.ts</text>
</g>
<!-- origami/src/defaultPlugins.ts -->
<g id="node66" class="node">
<title>origami/src/defaultPlugins.ts</title>
<path fill="none" stroke="#cfffac" d="M934.8477,-1633.1482C934.8477,-1633.1482 759.8291,-1633.1482 759.8291,-1633.1482 755.7961,-1633.1482 751.7632,-1629.1152 751.7632,-1625.0823 751.7632,-1625.0823 751.7632,-1617.0164 751.7632,-1617.0164 751.7632,-1612.9834 755.7961,-1608.9505 759.8291,-1608.9505 759.8291,-1608.9505 934.8477,-1608.9505 934.8477,-1608.9505 938.8806,-1608.9505 942.9136,-1612.9834 942.9136,-1617.0164 942.9136,-1617.0164 942.9136,-1625.0823 942.9136,-1625.0823 942.9136,-1629.1152 938.8806,-1633.1482 934.8477,-1633.1482"/>
<text text-anchor="middle" x="847.3384" y="-1617.8986" font-family="Arial" font-size="14.00" fill="#cfffac">origami/src/defaultPlugins.ts</text>
</g>
<!-- origami/src/Origami.ts&#45;&gt;origami/src/defaultPlugins.ts -->
<g id="edge53" class="edge">
<title>origami/src/Origami.ts&#45;&gt;origami/src/defaultPlugins.ts</title>
<path fill="none" stroke="#757575" d="M633.4644,-1621.0493C666.5315,-1621.0493 705.8116,-1621.0493 741.6295,-1621.0493"/>
<polygon fill="#757575" stroke="#757575" points="741.6322,-1624.5494 751.6322,-1621.0493 741.6322,-1617.5494 741.6322,-1624.5494"/>
</g>
<!-- origami/src/index.ts -->
<g id="node67" class="node">
<title>origami/src/index.ts</title>
<path fill="none" stroke="#c6c5fe" d="M255.9577,-1633.1482C255.9577,-1633.1482 135.9027,-1633.1482 135.9027,-1633.1482 131.8697,-1633.1482 127.8368,-1629.1152 127.8368,-1625.0823 127.8368,-1625.0823 127.8368,-1617.0164 127.8368,-1617.0164 127.8368,-1612.9834 131.8697,-1608.9505 135.9027,-1608.9505 135.9027,-1608.9505 255.9577,-1608.9505 255.9577,-1608.9505 259.9906,-1608.9505 264.0236,-1612.9834 264.0236,-1617.0164 264.0236,-1617.0164 264.0236,-1625.0823 264.0236,-1625.0823 264.0236,-1629.1152 259.9906,-1633.1482 255.9577,-1633.1482"/>
<text text-anchor="middle" x="195.9302" y="-1617.8986" font-family="Arial" font-size="14.00" fill="#c6c5fe">origami/src/index.ts</text>
</g>
<!-- origami/src/index.ts&#45;&gt;origami/src/Origami.ts -->
<g id="edge54" class="edge">
<title>origami/src/index.ts&#45;&gt;origami/src/Origami.ts</title>
<path fill="none" stroke="#757575" d="M264.3157,-1621.0493C322.8432,-1621.0493 407.4171,-1621.0493 470.6596,-1621.0493"/>
<polygon fill="#757575" stroke="#757575" points="471.0153,-1624.5494 481.0153,-1621.0493 471.0152,-1617.5494 471.0153,-1624.5494"/>
</g>
<!-- plugin&#45;core&#45;api/src/index.ts -->
<g id="node68" class="node">
<title>plugin&#45;core&#45;api/src/index.ts</title>
<path fill="none" stroke="#cfffac" d="M279.6604,-1675.1482C279.6604,-1675.1482 112.1999,-1675.1482 112.1999,-1675.1482 108.167,-1675.1482 104.134,-1671.1152 104.134,-1667.0823 104.134,-1667.0823 104.134,-1659.0164 104.134,-1659.0164 104.134,-1654.9834 108.167,-1650.9505 112.1999,-1650.9505 112.1999,-1650.9505 279.6604,-1650.9505 279.6604,-1650.9505 283.6934,-1650.9505 287.7263,-1654.9834 287.7263,-1659.0164 287.7263,-1659.0164 287.7263,-1667.0823 287.7263,-1667.0823 287.7263,-1671.1152 283.6934,-1675.1482 279.6604,-1675.1482"/>
<text text-anchor="middle" x="195.9302" y="-1659.8986" font-family="Arial" font-size="14.00" fill="#cfffac">plugin&#45;core&#45;api/src/index.ts</text>
</g>
<!-- plugin&#45;core&#45;api/src/lib/npm.ts -->
<g id="node69" class="node">
<title>plugin&#45;core&#45;api/src/lib/npm.ts</title>
<path fill="none" stroke="#cfffac" d="M646.6382,-1717.1482C646.6382,-1717.1482 467.854,-1717.1482 467.854,-1717.1482 463.821,-1717.1482 459.7881,-1713.1152 459.7881,-1709.0823 459.7881,-1709.0823 459.7881,-1701.0164 459.7881,-1701.0164 459.7881,-1696.9834 463.821,-1692.9505 467.854,-1692.9505 467.854,-1692.9505 646.6382,-1692.9505 646.6382,-1692.9505 650.6712,-1692.9505 654.7041,-1696.9834 654.7041,-1701.0164 654.7041,-1701.0164 654.7041,-1709.0823 654.7041,-1709.0823 654.7041,-1713.1152 650.6712,-1717.1482 646.6382,-1717.1482"/>
<text text-anchor="middle" x="557.2461" y="-1701.8986" font-family="Arial" font-size="14.00" fill="#cfffac">plugin&#45;core&#45;api/src/lib/npm.ts</text>
</g>
<!-- plugin&#45;core&#45;api/src/v1/controllers/apps/index.ts -->
<g id="node70" class="node">
<title>plugin&#45;core&#45;api/src/v1/controllers/apps/index.ts</title>
<path fill="none" stroke="#cfffac" d="M340.0529,-1759.1482C340.0529,-1759.1482 51.8074,-1759.1482 51.8074,-1759.1482 47.7745,-1759.1482 43.7415,-1755.1152 43.7415,-1751.0823 43.7415,-1751.0823 43.7415,-1743.0164 43.7415,-1743.0164 43.7415,-1738.9834 47.7745,-1734.9505 51.8074,-1734.9505 51.8074,-1734.9505 340.0529,-1734.9505 340.0529,-1734.9505 344.0859,-1734.9505 348.1188,-1738.9834 348.1188,-1743.0164 348.1188,-1743.0164 348.1188,-1751.0823 348.1188,-1751.0823 348.1188,-1755.1152 344.0859,-1759.1482 340.0529,-1759.1482"/>
<text text-anchor="middle" x="195.9302" y="-1743.8986" font-family="Arial" font-size="14.00" fill="#cfffac">plugin&#45;core&#45;api/src/v1/controllers/apps/index.ts</text>
</g>
<!-- plugin&#45;core&#45;api/src/v1/controllers/auth/login.ts -->
<g id="node71" class="node">
<title>plugin&#45;core&#45;api/src/v1/controllers/auth/login.ts</title>
<path fill="none" stroke="#cfffac" d="M336.5529,-1801.1482C336.5529,-1801.1482 55.3074,-1801.1482 55.3074,-1801.1482 51.2745,-1801.1482 47.2415,-1797.1152 47.2415,-1793.0823 47.2415,-1793.0823 47.2415,-1785.0164 47.2415,-1785.0164 47.2415,-1780.9834 51.2745,-1776.9505 55.3074,-1776.9505 55.3074,-1776.9505 336.5529,-1776.9505 336.5529,-1776.9505 340.5859,-1776.9505 344.6188,-1780.9834 344.6188,-1785.0164 344.6188,-1785.0164 344.6188,-1793.0823 344.6188,-1793.0823 344.6188,-1797.1152 340.5859,-1801.1482 336.5529,-1801.1482"/>
<text text-anchor="middle" x="195.9302" y="-1785.8986" font-family="Arial" font-size="14.00" fill="#cfffac">plugin&#45;core&#45;api/src/v1/controllers/auth/login.ts</text>
</g>
<!-- plugin&#45;core&#45;api/src/v1/controllers/auth/refresh.ts -->
<g id="node72" class="node">
<title>plugin&#45;core&#45;api/src/v1/controllers/auth/refresh.ts</title>
<path fill="none" stroke="#cfffac" d="M343.5461,-1843.1482C343.5461,-1843.1482 48.3143,-1843.1482 48.3143,-1843.1482 44.2813,-1843.1482 40.2484,-1839.1152 40.2484,-1835.0823 40.2484,-1835.0823 40.2484,-1827.0164 40.2484,-1827.0164 40.2484,-1822.9834 44.2813,-1818.9505 48.3143,-1818.9505 48.3143,-1818.9505 343.5461,-1818.9505 343.5461,-1818.9505 347.579,-1818.9505 351.612,-1822.9834 351.612,-1827.0164 351.612,-1827.0164 351.612,-1835.0823 351.612,-1835.0823 351.612,-1839.1152 347.579,-1843.1482 343.5461,-1843.1482"/>
<text text-anchor="middle" x="195.9302" y="-1827.8986" font-family="Arial" font-size="14.00" fill="#cfffac">plugin&#45;core&#45;api/src/v1/controllers/auth/refresh.ts</text>
</g>
<!-- plugin&#45;core&#45;api/src/v1/controllers/auth/verify.ts -->
<g id="node73" class="node">
<title>plugin&#45;core&#45;api/src/v1/controllers/auth/verify.ts</title>
<path fill="none" stroke="#cfffac" d="M337.8832,-1885.1482C337.8832,-1885.1482 53.9771,-1885.1482 53.9771,-1885.1482 49.9442,-1885.1482 45.9112,-1881.1152 45.9112,-1877.0823 45.9112,-1877.0823 45.9112,-1869.0164 45.9112,-1869.0164 45.9112,-1864.9834 49.9442,-1860.9505 53.9771,-1860.9505 53.9771,-1860.9505 337.8832,-1860.9505 337.8832,-1860.9505 341.9162,-1860.9505 345.9491,-1864.9834 345.9491,-1869.0164 345.9491,-1869.0164 345.9491,-1877.0823 345.9491,-1877.0823 345.9491,-1881.1152 341.9162,-1885.1482 337.8832,-1885.1482"/>
<text text-anchor="middle" x="195.9302" y="-1869.8986" font-family="Arial" font-size="14.00" fill="#cfffac">plugin&#45;core&#45;api/src/v1/controllers/auth/verify.ts</text>
</g>
<!-- plugin&#45;core&#45;api/src/v1/controllers/pages/:pageId/move.ts -->
<g id="node74" class="node">
<title>plugin&#45;core&#45;api/src/v1/controllers/pages/:pageId/move.ts</title>
<path fill="none" stroke="#cfffac" d="M369.7042,-1927.1482C369.7042,-1927.1482 22.1562,-1927.1482 22.1562,-1927.1482 18.1232,-1927.1482 14.0903,-1923.1152 14.0903,-1919.0823 14.0903,-1919.0823 14.0903,-1911.0164 14.0903,-1911.0164 14.0903,-1906.9834 18.1232,-1902.9505 22.1562,-1902.9505 22.1562,-1902.9505 369.7042,-1902.9505 369.7042,-1902.9505 373.7371,-1902.9505 377.7701,-1906.9834 377.7701,-1911.0164 377.7701,-1911.0164 377.7701,-1919.0823 377.7701,-1919.0823 377.7701,-1923.1152 373.7371,-1927.1482 369.7042,-1927.1482"/>
<text text-anchor="middle" x="195.9302" y="-1911.8986" font-family="Arial" font-size="14.00" fill="#cfffac">plugin&#45;core&#45;api/src/v1/controllers/pages/:pageId/move.ts</text>
</g>
<!-- plugin&#45;core&#45;api/src/v1/controllers/pages/:pageId/properties.ts -->
<g id="node75" class="node">
<title>plugin&#45;core&#45;api/src/v1/controllers/pages/:pageId/properties.ts</title>
<path fill="none" stroke="#cfffac" d="M383.7247,-1969.1482C383.7247,-1969.1482 8.1357,-1969.1482 8.1357,-1969.1482 4.1027,-1969.1482 .0698,-1965.1152 .0698,-1961.0823 .0698,-1961.0823 .0698,-1953.0164 .0698,-1953.0164 .0698,-1948.9834 4.1027,-1944.9505 8.1357,-1944.9505 8.1357,-1944.9505 383.7247,-1944.9505 383.7247,-1944.9505 387.7576,-1944.9505 391.7906,-1948.9834 391.7906,-1953.0164 391.7906,-1953.0164 391.7906,-1961.0823 391.7906,-1961.0823 391.7906,-1965.1152 387.7576,-1969.1482 383.7247,-1969.1482"/>
<text text-anchor="middle" x="195.9302" y="-1953.8986" font-family="Arial" font-size="14.00" fill="#cfffac">plugin&#45;core&#45;api/src/v1/controllers/pages/:pageId/properties.ts</text>
</g>
<!-- plugin&#45;core&#45;api/src/v1/controllers/pages/tree/index.ts -->
<g id="node76" class="node">
<title>plugin&#45;core&#45;api/src/v1/controllers/pages/tree/index.ts</title>
<path fill="none" stroke="#cfffac" d="M358.3529,-2011.1482C358.3529,-2011.1482 33.5074,-2011.1482 33.5074,-2011.1482 29.4745,-2011.1482 25.4415,-2007.1152 25.4415,-2003.0823 25.4415,-2003.0823 25.4415,-1995.0164 25.4415,-1995.0164 25.4415,-1990.9834 29.4745,-1986.9505 33.5074,-1986.9505 33.5074,-1986.9505 358.3529,-1986.9505 358.3529,-1986.9505 362.3859,-1986.9505 366.4188,-1990.9834 366.4188,-1995.0164 366.4188,-1995.0164 366.4188,-2003.0823 366.4188,-2003.0823 366.4188,-2007.1152 362.3859,-2011.1482 358.3529,-2011.1482"/>
<text text-anchor="middle" x="195.9302" y="-1995.8986" font-family="Arial" font-size="14.00" fill="#cfffac">plugin&#45;core&#45;api/src/v1/controllers/pages/tree/index.ts</text>
</g>
<!-- plugin&#45;core&#45;api/src/v1/controllers/themes/index.ts -->
<g id="node77" class="node">
<title>plugin&#45;core&#45;api/src/v1/controllers/themes/index.ts</title>
<path fill="none" stroke="#c6c5fe" d="M348.1046,-1717.1482C348.1046,-1717.1482 43.7557,-1717.1482 43.7557,-1717.1482 39.7228,-1717.1482 35.6899,-1713.1152 35.6899,-1709.0823 35.6899,-1709.0823 35.6899,-1701.0164 35.6899,-1701.0164 35.6899,-1696.9834 39.7228,-1692.9505 43.7557,-1692.9505 43.7557,-1692.9505 348.1046,-1692.9505 348.1046,-1692.9505 352.1376,-1692.9505 356.1705,-1696.9834 356.1705,-1701.0164 356.1705,-1701.0164 356.1705,-1709.0823 356.1705,-1709.0823 356.1705,-1713.1152 352.1376,-1717.1482 348.1046,-1717.1482"/>
<text text-anchor="middle" x="195.9302" y="-1701.8986" font-family="Arial" font-size="14.00" fill="#c6c5fe">plugin&#45;core&#45;api/src/v1/controllers/themes/index.ts</text>
</g>
<!-- plugin&#45;core&#45;api/src/v1/controllers/themes/index.ts&#45;&gt;plugin&#45;core&#45;api/src/lib/npm.ts -->
<g id="edge55" class="edge">
<title>plugin&#45;core&#45;api/src/v1/controllers/themes/index.ts&#45;&gt;plugin&#45;core&#45;api/src/lib/npm.ts</title>
<path fill="none" stroke="#757575" d="M356.2496,-1705.0493C387.801,-1705.0493 420.1906,-1705.0493 449.5028,-1705.0493"/>
<polygon fill="#757575" stroke="#757575" points="449.7362,-1708.5494 459.7361,-1705.0493 449.7361,-1701.5494 449.7362,-1708.5494"/>
</g>
<!-- plugin&#45;core&#45;api/src/v1/models/index.ts -->
<g id="node78" class="node">
<title>plugin&#45;core&#45;api/src/v1/models/index.ts</title>
<path fill="none" stroke="#c6c5fe" d="M313.3565,-2053.1482C313.3565,-2053.1482 78.5039,-2053.1482 78.5039,-2053.1482 74.4709,-2053.1482 70.438,-2049.1152 70.438,-2045.0823 70.438,-2045.0823 70.438,-2037.0164 70.438,-2037.0164 70.438,-2032.9834 74.4709,-2028.9505 78.5039,-2028.9505 78.5039,-2028.9505 313.3565,-2028.9505 313.3565,-2028.9505 317.3894,-2028.9505 321.4224,-2032.9834 321.4224,-2037.0164 321.4224,-2037.0164 321.4224,-2045.0823 321.4224,-2045.0823 321.4224,-2049.1152 317.3894,-2053.1482 313.3565,-2053.1482"/>
<text text-anchor="middle" x="195.9302" y="-2037.8986" font-family="Arial" font-size="14.00" fill="#c6c5fe">plugin&#45;core&#45;api/src/v1/models/index.ts</text>
</g>
<!-- plugin&#45;core&#45;api/src/v1/models/setting.ts -->
<g id="node79" class="node">
<title>plugin&#45;core&#45;api/src/v1/models/setting.ts</title>
<path fill="none" stroke="#cfffac" d="M678.4518,-2095.1482C678.4518,-2095.1482 436.0404,-2095.1482 436.0404,-2095.1482 432.0075,-2095.1482 427.9745,-2091.1152 427.9745,-2087.0823 427.9745,-2087.0823 427.9745,-2079.0164 427.9745,-2079.0164 427.9745,-2074.9834 432.0075,-2070.9505 436.0404,-2070.9505 436.0404,-2070.9505 678.4518,-2070.9505 678.4518,-2070.9505 682.4847,-2070.9505 686.5177,-2074.9834 686.5177,-2079.0164 686.5177,-2079.0164 686.5177,-2087.0823 686.5177,-2087.0823 686.5177,-2091.1152 682.4847,-2095.1482 678.4518,-2095.1482"/>
<text text-anchor="middle" x="557.2461" y="-2079.8986" font-family="Arial" font-size="14.00" fill="#cfffac">plugin&#45;core&#45;api/src/v1/models/setting.ts</text>
</g>
<!-- plugin&#45;core&#45;api/src/v1/models/index.ts&#45;&gt;plugin&#45;core&#45;api/src/v1/models/setting.ts -->
<g id="edge56" class="edge">
<title>plugin&#45;core&#45;api/src/v1/models/index.ts&#45;&gt;plugin&#45;core&#45;api/src/v1/models/setting.ts</title>
<path fill="none" stroke="#757575" d="M312.0082,-2053.112C338.2776,-2055.9473 366.0367,-2059.0262 391.8604,-2062.0493 412.118,-2064.4208 433.7548,-2067.078 454.4765,-2069.6838"/>
<polygon fill="#757575" stroke="#757575" points="454.2058,-2073.1773 464.5654,-2070.9574 455.0826,-2066.2324 454.2058,-2073.1773"/>
</g>
<!-- plugin&#45;core&#45;api/src/v1/models/theme.ts -->
<g id="node80" class="node">
<title>plugin&#45;core&#45;api/src/v1/models/theme.ts</title>
<path fill="none" stroke="#cfffac" d="M677.6142,-2053.1482C677.6142,-2053.1482 436.878,-2053.1482 436.878,-2053.1482 432.8451,-2053.1482 428.8121,-2049.1152 428.8121,-2045.0823 428.8121,-2045.0823 428.8121,-2037.0164 428.8121,-2037.0164 428.8121,-2032.9834 432.8451,-2028.9505 436.878,-2028.9505 436.878,-2028.9505 677.6142,-2028.9505 677.6142,-2028.9505 681.6471,-2028.9505 685.6801,-2032.9834 685.6801,-2037.0164 685.6801,-2037.0164 685.6801,-2045.0823 685.6801,-2045.0823 685.6801,-2049.1152 681.6471,-2053.1482 677.6142,-2053.1482"/>
<text text-anchor="middle" x="557.2461" y="-2037.8986" font-family="Arial" font-size="14.00" fill="#cfffac">plugin&#45;core&#45;api/src/v1/models/theme.ts</text>
</g>
<!-- plugin&#45;core&#45;api/src/v1/models/index.ts&#45;&gt;plugin&#45;core&#45;api/src/v1/models/theme.ts -->
<g id="edge57" class="edge">
<title>plugin&#45;core&#45;api/src/v1/models/index.ts&#45;&gt;plugin&#45;core&#45;api/src/v1/models/theme.ts</title>
<path fill="none" stroke="#757575" d="M321.5403,-2041.0493C352.886,-2041.0493 386.6762,-2041.0493 418.6116,-2041.0493"/>
<polygon fill="#757575" stroke="#757575" points="418.9097,-2044.5494 428.9096,-2041.0493 418.9096,-2037.5494 418.9097,-2044.5494"/>
</g>
<!-- plugin&#45;core&#45;api/src/v1/models/user.ts -->
<g id="node81" class="node">
<title>plugin&#45;core&#45;api/src/v1/models/user.ts</title>
<path fill="none" stroke="#cfffac" d="M671.1656,-2011.1482C671.1656,-2011.1482 443.3266,-2011.1482 443.3266,-2011.1482 439.2937,-2011.1482 435.2607,-2007.1152 435.2607,-2003.0823 435.2607,-2003.0823 435.2607,-1995.0164 435.2607,-1995.0164 435.2607,-1990.9834 439.2937,-1986.9505 443.3266,-1986.9505 443.3266,-1986.9505 671.1656,-1986.9505 671.1656,-1986.9505 675.1985,-1986.9505 679.2314,-1990.9834 679.2314,-1995.0164 679.2314,-1995.0164 679.2314,-2003.0823 679.2314,-2003.0823 679.2314,-2007.1152 675.1985,-2011.1482 671.1656,-2011.1482"/>
<text text-anchor="middle" x="557.2461" y="-1995.8986" font-family="Arial" font-size="14.00" fill="#cfffac">plugin&#45;core&#45;api/src/v1/models/user.ts</text>
</g>
<!-- plugin&#45;core&#45;api/src/v1/models/index.ts&#45;&gt;plugin&#45;core&#45;api/src/v1/models/user.ts -->
<g id="edge58" class="edge">
<title>plugin&#45;core&#45;api/src/v1/models/index.ts&#45;&gt;plugin&#45;core&#45;api/src/v1/models/user.ts</title>
<path fill="none" stroke="#757575" d="M312.0082,-2028.9866C338.2776,-2026.1514 366.0367,-2023.0724 391.8604,-2020.0493 412.118,-2017.6778 433.7548,-2015.0207 454.4765,-2012.4149"/>
<polygon fill="#757575" stroke="#757575" points="455.0826,-2015.8662 464.5654,-2011.1412 454.2058,-2008.9213 455.0826,-2015.8662"/>
</g>
<!-- plugin&#45;core&#45;api/src/v1/resources/index.ts -->
<g id="node82" class="node">
<title>plugin&#45;core&#45;api/src/v1/resources/index.ts</title>
<path fill="none" stroke="#cfffac" d="M321.6946,-2095.1482C321.6946,-2095.1482 70.1658,-2095.1482 70.1658,-2095.1482 66.1328,-2095.1482 62.0999,-2091.1152 62.0999,-2087.0823 62.0999,-2087.0823 62.0999,-2079.0164 62.0999,-2079.0164 62.0999,-2074.9834 66.1328,-2070.9505 70.1658,-2070.9505 70.1658,-2070.9505 321.6946,-2070.9505 321.6946,-2070.9505 325.7275,-2070.9505 329.7605,-2074.9834 329.7605,-2079.0164 329.7605,-2079.0164 329.7605,-2087.0823 329.7605,-2087.0823 329.7605,-2091.1152 325.7275,-2095.1482 321.6946,-2095.1482"/>
<text text-anchor="middle" x="195.9302" y="-2079.8986" font-family="Arial" font-size="14.00" fill="#cfffac">plugin&#45;core&#45;api/src/v1/resources/index.ts</text>
</g>
<!-- plugin&#45;core&#45;api/src/v1/resources/setting.ts -->
<g id="node83" class="node">
<title>plugin&#45;core&#45;api/src/v1/resources/setting.ts</title>
<path fill="none" stroke="#cfffac" d="M325.4737,-2137.1482C325.4737,-2137.1482 66.3867,-2137.1482 66.3867,-2137.1482 62.3537,-2137.1482 58.3208,-2133.1152 58.3208,-2129.0823 58.3208,-2129.0823 58.3208,-2121.0164 58.3208,-2121.0164 58.3208,-2116.9834 62.3537,-2112.9505 66.3867,-2112.9505 66.3867,-2112.9505 325.4737,-2112.9505 325.4737,-2112.9505 329.5066,-2112.9505 333.5396,-2116.9834 333.5396,-2121.0164 333.5396,-2121.0164 333.5396,-2129.0823 333.5396,-2129.0823 333.5396,-2133.1152 329.5066,-2137.1482 325.4737,-2137.1482"/>
<text text-anchor="middle" x="195.9302" y="-2121.8986" font-family="Arial" font-size="14.00" fill="#cfffac">plugin&#45;core&#45;api/src/v1/resources/setting.ts</text>
</g>
</g>
</svg>
