<?xml version="1.0" encoding="utf-8"?>
<!-- Generator: Adobe Illustrator 21.1.0, SVG Export Plug-In . SVG Version: 6.00 Build 0)  -->
<svg version="1.1" id="Layer_1" xmlns="http://www.w3.org/2000/svg" xmlns:xlink="http://www.w3.org/1999/xlink" x="0px" y="0px"
	 viewBox="0 0 45 40" style="enable-background:new 0 0 45 40;" xml:space="preserve">
<style type="text/css">
	.st0{fill:url(#SVGID_1_);}
</style>
<g>
	<linearGradient id="SVGID_1_" gradientUnits="userSpaceOnUse" x1="14.3259" y1="-3.6611" x2="40.2048" y2="29.5314">
		<stop  offset="0" style="stop-color:#9C4BA4"/>
		<stop  offset="1" style="stop-color:#693A91"/>
	</linearGradient>
	<path class="st0" d="M43.9,2.2H26.3c-0.3,0-0.6,0.1-0.8,0.3l-6.8,6.7L9.9,0.3C9.8,0.2,9.6,0.1,9.5,0.1C9.4,0,9.2,0,9.1,0
		c0,0,0,0-0.1,0l0,0C8.9,0,8.7,0,8.6,0.1c-0.1,0-0.2,0.1-0.3,0.2l-8,8C0,8.6-0.1,9.1,0.1,9.5s0.6,0.7,1,0.7h6.8v10.3l0,0l0,0l0,0
		c0,0.1,0,0.3,0.1,0.4V21c0,0.1,0.1,0.2,0.2,0.2c0,0,0,0,0,0.1l8.9,8.7l0,0l9.7,9.7c0.2,0.2,0.5,0.3,0.8,0.3c0.1,0,0.3,0,0.4-0.1
		c0.4-0.2,0.7-0.6,0.7-1V22.7v-2.6l2.8-3l13.2-13C45,3.8,45.1,3.3,45,2.9C44.8,2.5,44.4,2.2,43.9,2.2z M10.2,17.7V9.1V3.9l6.9,6.9
		L10.2,17.7z M3.9,7.9L8,3.8v4.1H3.9z M19.7,29.4l0.8-0.5l6-4v11.3L19.7,29.4z M30,15.6l-2,2.2l-1,1.1l-1.2,1L18,27.7l-7.3-7.1
		l8.8-8.9l0,0l7.3-7.1h14.4L30,15.6z"/>
</g>
</svg>
