<?xml version="1.0" encoding="utf-8"?>
<!-- Generator: Adobe Illustrator 21.1.0, SVG Export Plug-In . SVG Version: 6.00 Build 0)  -->
<svg version="1.1" id="Layer_1" xmlns="http://www.w3.org/2000/svg" xmlns:xlink="http://www.w3.org/1999/xlink" x="0px" y="0px"
	 viewBox="0 0 400 100" style="enable-background:new 0 0 400 100;" xml:space="preserve">
<style type="text/css">
	.st0{fill:#693A91;}
</style>
<g>
	<g>
		<path class="st0" d="M50.9,80.3c-16.8,0-30.5-13.7-30.5-30.5c0-16.8,13.7-30.5,30.5-30.5c16.8,0,30.5,13.7,30.5,30.5
			C81.4,66.7,67.8,80.3,50.9,80.3z M50.9,26.1c-13.1,0-23.7,10.6-23.7,23.7s10.6,23.7,23.7,23.7c13.1,0,23.7-10.6,23.7-23.7
			S64,26.1,50.9,26.1z"/>
	</g>
	<g>
		<path class="st0" d="M151.2,80.3c-1.9,0-3.4-1.5-3.4-3.4V22.8c0-1.9,1.5-3.4,3.4-3.4s3.4,1.5,3.4,3.4V77
			C154.6,78.8,153.1,80.3,151.2,80.3z"/>
	</g>
	<g>
		<path class="st0" d="M376.2,80.3c-1.9,0-3.4-1.5-3.4-3.4V22.8c0-1.9,1.5-3.4,3.4-3.4s3.4,1.5,3.4,3.4V77
			C379.5,78.8,378,80.3,376.2,80.3z"/>
	</g>
	<g>
		<g>
			<path class="st0" d="M128.9,80.4c-1.1,0-2.2-0.5-2.8-1.5l-15.8-24.2h-9.1V77c0,1.9-1.5,3.4-3.4,3.4s-3.4-1.5-3.4-3.4V22.8
				c0-1.9,1.5-3.4,3.4-3.4H112c9.8,0,17.7,7.9,17.7,17.7c0,7.8-5,14.4-12,16.8l14,21.4c1,1.6,0.6,3.7-1,4.7
				C130.1,80.3,129.5,80.4,128.9,80.4z M101.1,48H112c6,0,10.9-4.9,10.9-10.9c0-6-4.9-10.9-10.9-10.9h-10.9V48z"/>
		</g>
	</g>
	<g>
		<g>
			<path class="st0" d="M200,80.3c-16.8,0-30.5-13.7-30.5-30.5c0-16.8,13.7-30.5,30.5-30.5c1.9,0,3.4,1.5,3.4,3.4s-1.5,3.4-3.4,3.4
				c-13.1,0-23.7,10.6-23.7,23.7S187,73.6,200,73.6c13.1,0,23.7-10.6,23.7-23.7c0-1.9,1.5-3.4,3.4-3.4s3.4,1.5,3.4,3.4
				C230.5,66.7,216.9,80.3,200,80.3z"/>
		</g>
		<g>
			<path class="st0" d="M227.2,53.2H200c-1.9,0-3.4-1.5-3.4-3.4c0-1.9,1.5-3.4,3.4-3.4h27.1c1.9,0,3.4,1.5,3.4,3.4
				C230.5,51.7,229,53.2,227.2,53.2z"/>
		</g>
	</g>
	<g>
		<path class="st0" d="M288,80.6h-51.5c-1.2,0-2.2-0.6-2.9-1.6c-0.6-1-0.7-2.2-0.2-3.3l25.8-54.2c0.6-1.2,1.8-1.9,3.1-1.9
			c0,0,0,0,0,0c1.3,0,2.5,0.8,3.1,1.9l25.7,54.2c0.5,1,0.4,2.3-0.2,3.3C290.3,80,289.2,80.6,288,80.6z M241.9,73.9h40.8l-20.4-42.9
			L241.9,73.9z"/>
	</g>
	<g>
		<path class="st0" d="M355.8,80.3c-1.9,0-3.4-1.5-3.4-3.4V32.2l-19.8,24.1c-0.6,0.8-1.6,1.2-2.6,1.2c0,0,0,0,0,0
			c-1,0-2-0.5-2.6-1.2l-19.7-24.1V77c0,1.9-1.5,3.4-3.4,3.4S301,78.8,301,77V22.8c0-1.4,0.9-2.7,2.2-3.2c1.3-0.5,2.9-0.1,3.8,1
			l23.1,28.2l23.2-28.2c0.9-1.1,2.4-1.5,3.8-1c1.3,0.5,2.2,1.8,2.2,3.2V77C359.2,78.8,357.7,80.3,355.8,80.3z"/>
	</g>
</g>
</svg>
