<?xml version="1.0" encoding="utf-8"?>
<!-- Generator: Adobe Illustrator 22.1.0, SVG Export Plug-In . SVG Version: 6.00 Build 0)  -->
<svg version="1.1" id="Layer_1" xmlns="http://www.w3.org/2000/svg" xmlns:xlink="http://www.w3.org/1999/xlink" x="0px" y="0px"
	 viewBox="0 0 382 206" style="enable-background:new 0 0 382 206;" xml:space="preserve">
<style type="text/css">
	.st0{fill:#E31D20;}
</style>
<path class="st0" d="M17,13.6c-4.7,4.2-8.4,9.9-7.7,11.7c0.5,1.2,50.1,31.7,54,33.3C67.9,60.3,75,53.5,75,47.3
	c0-2.6-2.1-4.8-17.4-17.9C37.5,12.2,33.9,10,26.3,10C21.6,10,20.5,10.4,17,13.6z"/>
<path class="st0" d="M118.4,35.3c-14.9,7.3-27.9,13.8-28.8,14.6c-2.1,1.8-2.1,8.5,0.1,12.1c3.2,5.5,4.3,5.5,27-1.2
	c28-8.2,34-11.4,36.3-19.6c1.6-5.9-2.5-19.3-5.9-19.1C146.2,22.1,133.3,28,118.4,35.3z"/>
<path class="st0" d="M66.7,73.2c-0.9,0.7-4.8,11-8.7,23c-5.7,17.7-7,23-7,28.1c0,7.6,2.4,11.9,8.1,14.9c3.1,1.6,13.9,4.1,14.6,3.4
	c0.9-0.8,9.5-62.8,9-64.7C81.5,73.1,71,70,66.7,73.2z"/>
<path d="M121.8,84.7L100,85v4.8c0,8.7,0.4,9.2,7.2,9.2h6l-0.4,35.9c-0.1,19.8-0.7,36.3-1.1,36.7c-0.5,0.5-3.2,1.1-6,1.4l-5.2,0.5
	l-0.3,4.4c-0.2,2.5-0.1,5.5,0.3,6.8l0.5,2.3h22.4c12.4,0,23.2-0.3,24.1-0.6c2-0.8,4.5-5.6,4.5-8.8c0-5-0.8-5.6-7.4-5.6h-6.1l0.3-36
	l0.2-36h3.6c4.9,0,9.4-4.5,9.4-9.3c0-5.7-0.8-6.7-4.9-6.5C145.1,84.4,133.7,84.6,121.8,84.7z"/>
<path d="M299.3,84.7c-24.1,0.4-23.1-0.1-21.8,9.4l0.7,4.9h5.9h5.9v33.2c0,18.3-0.3,35-0.6,37.1c-0.6,3.3-1,3.7-3.8,3.7
	c-7.6,0-9.3,2-8.1,9.6l0.6,4.4h39.4H357l0.4-2.2c0.8-4.3,2.6-21.7,2.6-25.7V155h-4c-8.2,0-14,5.7-14,13.7v4.3h-13h-13v-36.5V100h3.4
	c2.3,0,4.5-0.9,6.6-2.6c2.8-2.4,3.1-3.1,2.8-7.8l-0.3-5.1h-4C322.3,84.4,311,84.6,299.3,84.7z"/>
<path d="M178.4,87.5c-0.3,1.4-0.3,4.5,0,7l0.7,4.5h5.7c11.3,0,11.7-3.3-4,36.3c-7.7,19.4-14.4,35.6-14.9,36.2
	c-0.5,0.5-3.3,1.2-6.2,1.5l-5.2,0.5l-0.3,6.8l-0.3,6.7h18.9c17.6,0,19.1-0.1,21.6-2.1c2.2-1.8,2.6-2.8,2.6-7.5V172h-5.9h-6l2.4-5.8
	l2.3-5.7l21-0.3l21-0.2l1.8,5.2c1.1,2.9,1.9,5.7,1.9,6.3c0,0.5-2.2,1.2-5,1.5l-5,0.5l-0.3,6.8l-0.3,6.7h22.9
	c21.7,0,23.1-0.1,25.6-2.1c2.2-1.8,2.6-2.8,2.6-7.5V172h-6.4h-6.4l-2.4-6.3c-1.3-3.4-8.7-23-16.3-43.4l-14-37.3h-25.7H179
	L178.4,87.5z M218.9,124.1c3.9,10.8,7.1,19.9,7.1,20.3c0,0.3-6.8,0.6-15.1,0.6c-14,0-15.1-0.1-14.5-1.8c2.7-7.3,15.1-39.1,15.2-38.9
	C211.7,104.4,215,113.3,218.9,124.1z"/>
</svg>
