<svg xmlns="http://www.w3.org/2000/svg" xmlns:xlink="http://www.w3.org/1999/xlink" viewBox="0 0 218 60" style="width: 218px; height: 60px;"
    xml:space="preserve">
    <style>
        path {
            opacity: 0;
            animation: slide-up 2s forwards cubic-bezier(0, 0, 0, 1);
        }
        @keyframes slide-up {
            from {transform: translateY(2rem); opacity: 0;}
            to {transform: translateY(0); opacity: 1;}
        }
    </style>
    <defs>
        <linearGradient id="g1" gradientUnits="userSpaceOnUse" x1="0.1111" y1="22" x2="236.4351" y2="22"
            gradientTransform="matrix(1 0 0 -1 0 42)">
            <stop offset="0" style="stop-color:#B155BA" />
            <stop offset="1" style="stop-color:#69299A" />
        </linearGradient>
        <linearGradient id="g2" gradientUnits="userSpaceOnUse" x1="0.1111" y1="21.9" x2="236.4351" y2="21.9"
            gradientTransform="matrix(1 0 0 -1 0 42)">
            <stop offset="0" style="stop-color:#B155BA" />
            <stop offset="1" style="stop-color:#69299A" />
        </linearGradient>
        <linearGradient id="g3" gradientUnits="userSpaceOnUse" x1="0.1111" y1="21.85" x2="236.4351" y2="21.85"
            gradientTransform="matrix(1 0 0 -1 0 42)">
            <stop offset="0" style="stop-color:#B155BA" />
            <stop offset="1" style="stop-color:#69299A" />
        </linearGradient>
        <linearGradient id="g4" gradientUnits="userSpaceOnUse" x1="0.1111" y1="21.85" x2="236.4351" y2="21.85"
            gradientTransform="matrix(1 0 0 -1 0 42)">
            <stop offset="0" style="stop-color:#B155BA" />
            <stop offset="1" style="stop-color:#69299A" />
        </linearGradient>
        <linearGradient id="g5" gradientUnits="userSpaceOnUse" x1="0.1111" y1="21.8" x2="236.4351" y2="21.8"
            gradientTransform="matrix(1 0 0 -1 0 42)">
            <stop offset="0" style="stop-color:#B155BA" />
            <stop offset="1" style="stop-color:#69299A" />
        </linearGradient>
        <linearGradient id="g6" gradientUnits="userSpaceOnUse" x1="0.1111" y1="21.9" x2="236.4351" y2="21.9"
            gradientTransform="matrix(1 0 0 -1 0 42)">
            <stop offset="0" style="stop-color:#B155BA" />
            <stop offset="1" style="stop-color:#69299A" />
        </linearGradient>
        <linearGradient id="g7" gradientUnits="userSpaceOnUse" x1="0.1111" y1="21.75" x2="236.4351" y2="21.75"
            gradientTransform="matrix(1 0 0 -1 0 42)">
            <stop offset="0" style="stop-color:#B155BA" />
            <stop offset="1" style="stop-color:#69299A" />
        </linearGradient>
        <linearGradient id="g8" gradientUnits="userSpaceOnUse" x1="0.1111" y1="21.8689" x2="236.4351" y2="21.8689"
            gradientTransform="matrix(1 0 0 -1 0 42)">
            <stop offset="0" style="stop-color:#B155BA" />
            <stop offset="1" style="stop-color:#69299A" />
        </linearGradient>
    </defs>
    <path style="animation-delay: 0.5s;" d="M43.9 2.2H26.3c-.3 0-.6.1-.8.3l-6.8 6.7L9.8.3C9.7.2 9.6.2 9.5.1S9.2 0 9.1 0H9c-.1 0-.3 0-.4.1-.1 0-.2.1-.3.2l-8 8c-.3.3-.4.8-.2 1.2s.6.7 1 .7h6.8v10.3c0 .1 0 .3.1.4 0 0 0 .1.1.1.1.1.1.2.2.3v.1l8.9 8.7 9.7 9.7c.2.2.5.3.8.3.2 0 .3 0 .4-.1.4-.2.7-.6.7-1V20.1l2.8-3 13.1-13c.3-.3.4-.8.3-1.2-.2-.4-.6-.7-1.1-.7zM10.2 17.8V3.9l6.9 6.9-6.9 7zM3.8 7.9l4.1-4.1v4.1H3.8zm15.9 21.5l.8-.5 6-4v11.3l-6.8-6.8zm10.2-13.8l-2 2.2-1.1 1.1-1.2 1-7.8 7.8-7.3-7.1 8.9-8.9 7.3-7.1h14.4l-11.2 11z"
        fill="url(#g8)"></path>
    <path style="animation-delay: 0.6s;" d="M62.8 2.2c-8 0-14.4 6.4-14.4 14.4S54.8 31 62.8 31s14.4-6.4 14.4-14.4S70.7 2.2 62.8 2.2zm0 25.7c-6.2 0-11.2-5-11.2-11.2s5-11.2 11.2-11.2S74 10.5 74 16.6c0 6.2-5 11.3-11.2 11.3z"
        fill="url(#g7)"></path>
    <path style="animation-delay: 0.65s;" d="M94.3 18.5c3.3-1.1 5.7-4.2 5.7-7.9 0-4.6-3.7-8.3-8.3-8.3H85c-.9 0-1.6.7-1.6 1.6v25.6c0 .9.7 1.6 1.6 1.6s1.6-.7 1.6-1.6V18.9h4.3l7.5 11.4c.3.5.8.7 1.4.7.3 0 .6-.1.9-.3.8-.5.9-1.5.5-2.2l-6.9-10zm-7.8-2.8V5.4h5.1c2.8 0 5.1 2.3 5.1 5.1s-2.3 5.1-5.1 5.1l-5.1.1z"
        fill="url(#g6)"></path>
    <path style="animation-delay: 0.7s;" d="M110.2 2.2c-.9 0-1.6.7-1.6 1.6v25.6c0 .9.7 1.6 1.6 1.6s1.6-.7 1.6-1.6V3.8c-.1-.8-.8-1.6-1.6-1.6z"
        fill="url(#g5)"></path>
    <path style="animation-delay: 0.75s;" d="M146 15.1h-12.8c-.9 0-1.6.7-1.6 1.6 0 .9.7 1.6 1.6 1.6h11.1c-.8 5.4-5.4 9.6-11.1 9.6-6.2 0-11.2-5-11.2-11.2s5-11.2 11.2-11.2c.9 0 1.6-.7 1.6-1.6s-.7-1.6-1.6-1.6c-8 0-14.4 6.4-14.4 14.4s6.4 14.4 14.4 14.4 14.4-6.4 14.4-14.4c0-.9-.7-1.6-1.6-1.6z"
        fill="url(#g4)"></path>
    <path style="animation-delay: 0.8s;" d="M164.1 3.3c-.3-.6-.8-.9-1.4-.9s-1.2.3-1.4.9L149 28.9c-.2.5-.2 1.1.1 1.5.3.5.8.8 1.4.8h24.3c.6 0 1.1-.3 1.4-.8.3-.5.3-1.1.1-1.5L164.1 3.3zM153 28l9.6-20.3 9.6 20.3H153z"
        fill="url(#g3)"></path>
    <path style="animation-delay: 0.85s;" d="M207.3 2.4c-.6-.2-1.4 0-1.8.5l-10.9 13.3-10.9-13.4c-.4-.5-1.1-.7-1.8-.5-.6.2-1.1.8-1.1 1.5v25.6c0 .9.7 1.6 1.6 1.6.9 0 1.6-.7 1.6-1.6v-21l9.3 11.4c.6.8 1.9.8 2.5 0l9.3-11.4v21.1c0 .9.7 1.6 1.6 1.6s1.6-.7 1.6-1.6V3.9c.1-.7-.3-1.3-1-1.5z"
        fill="url(#g2)"></path>
    <path style="animation-delay: 0.9s;" d="M216.4 2.2c-.9 0-1.6.7-1.6 1.6v25.6c0 .9.7 1.6 1.6 1.6s1.6-.7 1.6-1.6V3.8c0-.8-.7-1.6-1.6-1.6z"
        fill="url(#g1)"></path>
</svg>
