<?xml version="1.0" encoding="utf-8"?>
<!-- Generator: Adobe Illustrator 22.1.0, SVG Export Plug-In . SVG Version: 6.00 Build 0)  -->
<svg version="1.1" id="Layer_1" xmlns="http://www.w3.org/2000/svg" xmlns:xlink="http://www.w3.org/1999/xlink" x="0px" y="0px"
	 viewBox="0 0 682 331.3" style="enable-background:new 0 0 682 331.3;" xml:space="preserve">
<style type="text/css">
	.st0{opacity:0.1;fill:url(#SVGID_1_);}
	.st1{opacity:0.1;fill:url(#SVGID_2_);}
	.st2{opacity:0.1;fill:url(#SVGID_3_);}
	.st3{fill:url(#SVGID_4_);}
	.st4{fill:url(#SVGID_5_);}
	.st5{fill:url(#SVGID_6_);}
	.st6{fill:url(#SVGID_7_);}
	.st7{fill:url(#SVGID_8_);}
	.st8{fill:url(#SVGID_9_);}
	.st9{fill:url(#SVGID_10_);}
</style>
<g>
	<linearGradient id="SVGID_1_" gradientUnits="userSpaceOnUse" x1="125.1598" y1="40.7466" x2="125.1598" y2="281.0688">
		<stop  offset="0" style="stop-color:#A359A2"/>
		<stop  offset="1" style="stop-color:#6A3191"/>
	</linearGradient>
	<path class="st0" d="M223.7,221.3h-37.6v54.5h-43.9v-54.5H26.6v-25.7L128.1,43.8h58v142.3h37.6V221.3z M73.3,186.1h68.9v-71l1.1-38
		h-0.7c-5.2,11.9-12.2,24.7-21.1,38.3L73.3,186.1z"/>
	<linearGradient id="SVGID_2_" gradientUnits="userSpaceOnUse" x1="347.7563" y1="40.7466" x2="347.7563" y2="281.0688">
		<stop  offset="0" style="stop-color:#A359A2"/>
		<stop  offset="1" style="stop-color:#6A3191"/>
	</linearGradient>
	<path class="st1" d="M278.4,249c-15.6-20.1-23.4-49.9-23.4-89.3c0-39.4,7.8-69.1,23.4-89.3c15.6-20.1,38.7-30.2,69.4-30.2
		c30.7,0,53.8,10.1,69.4,30.2c15.6,20.2,23.4,49.9,23.4,89.3c0,39.4-7.8,69.1-23.4,89.3c-15.6,20.2-38.7,30.2-69.4,30.2
		C317.1,279.3,293.9,269.2,278.4,249z M381.1,220.6c7.3-13.1,10.9-33.4,10.9-60.8s-3.6-47.7-10.9-60.8
		c-7.3-13.1-18.4-19.7-33.4-19.7c-15,0-26.1,6.6-33.4,19.7c-7.3,13.1-10.9,33.4-10.9,60.8s3.6,47.7,10.9,60.8
		c7.3,13.1,18.4,19.7,33.4,19.7C362.7,240.3,373.9,233.7,381.1,220.6z"/>
	<linearGradient id="SVGID_3_" gradientUnits="userSpaceOnUse" x1="547.5401" y1="40.7466" x2="547.5401" y2="281.0688">
		<stop  offset="0" style="stop-color:#A359A2"/>
		<stop  offset="1" style="stop-color:#6A3191"/>
	</linearGradient>
	<path class="st2" d="M602.4,43.8v231.9h-47.1V102.9c0-3.7,0.1-6.7,0.4-8.8c-8.4,7.7-17.5,14.3-27.2,19.7c-9.7,5.4-19.5,9-29.3,10.9
		l-6.3-40.8c10.8-1.2,23.7-6,38.8-14.6c15.1-8.5,25.6-17,31.4-25.5H602.4z"/>
	<linearGradient id="SVGID_4_" gradientUnits="userSpaceOnUse" x1="523.8351" y1="179.2117" x2="523.8351" y2="230.9926">
		<stop  offset="0" style="stop-color:#6A3191"/>
		<stop  offset="1" style="stop-color:#A359A2"/>
	</linearGradient>
	<path class="st3" d="M490.1,178.6h67.4v49c0,1.8-1.5,3.3-3.3,3.3h-1.5c-1.8,0-3.3-1.5-3.3-3.3v-29.1h-11.6v10.8
		c0,1.8-1.5,3.3-3.3,3.3H533c-1.8,0-3.3-1.5-3.3-3.3v-10.8H518v10.8c0,1.8-1.5,3.3-3.3,3.3h-1.5c-1.8,0-3.3-1.5-3.3-3.3v-10.8h-11.6
		v29.1c0,1.8-1.5,3.3-3.3,3.3h-1.5c-1.8,0-3.3-1.5-3.3-3.3V178.6z"/>
	<linearGradient id="SVGID_5_" gradientUnits="userSpaceOnUse" x1="439.8147" y1="163.3571" x2="575.6742" y2="163.3571">
		<stop  offset="0" style="stop-color:#6A3191"/>
		<stop  offset="1" style="stop-color:#A359A2"/>
	</linearGradient>
	<path class="st4" d="M575.7,158v10.8c0,5.9-4.8,10.7-10.7,10.7H439.8c0.5-6.3,0.7-12.8,0.7-19.6c0-4.3-0.1-8.4-0.3-12.5H565
		C570.9,147.3,575.7,152.1,575.7,158z"/>
	<linearGradient id="SVGID_6_" gradientUnits="userSpaceOnUse" x1="468.8775" y1="144.5485" x2="468.8775" y2="184.6156">
		<stop  offset="0" style="stop-color:#A359A2"/>
		<stop  offset="1" style="stop-color:#6A3191"/>
	</linearGradient>
	<path class="st5" d="M472.9,184.1h-8.1c-2.6,0-4.8-2.1-4.8-4.8v-31.9c0-2.6,2.1-4.8,4.8-4.8h8.1c2.6,0,4.8,2.1,4.8,4.8v31.9
		C477.7,181.9,475.5,184.1,472.9,184.1z"/>
	<linearGradient id="SVGID_7_" gradientUnits="userSpaceOnUse" x1="97.2932" y1="164.8039" x2="392.0357" y2="164.8039">
		<stop  offset="0" style="stop-color:#A359A2"/>
		<stop  offset="1" style="stop-color:#6A3191"/>
	</linearGradient>
	<path class="st6" d="M391.8,147.3H272.2c-7.4,0-12.7,1.4-17,1.8c-7.2,0.7-11.7-1.3-18.4-16.9c0,0,0,0,0-0.1
		c-8.7-24.8-27.5-43.9-50.6-50.9v31.5c12.1,6,20.2,17.4,20.2,30.4c0,7.5-2.7,14.5-7.3,20.2c4.6,5.7,7.3,12.7,7.3,20.2
		c0,0.9,0,1.8-0.1,2.6c-1.5,18.1-18.7,32.3-39.7,32.3c-21,0-38.2-14.2-39.7-32.3c-0.1-0.9-0.1-1.7-0.1-2.6c0-7.5,2.7-14.5,7.3-20.2
		c-4.6-5.7-7.3-12.7-7.3-20.2c0-11.2,6.1-21.3,15.5-27.6v-0.4l0.9-32.4c-1.3,0.5-2.6,1.1-3.9,1.7c-4.7,9.8-10.6,20.2-17.8,31
		l-23.4,34.3c-0.5,4.4-0.8,8.9-0.8,13.5c0,7.9,0.8,15.5,2.3,22.8c2.7,13.3,7.9,25.3,15.1,35.1c7.3,10,16.6,17.7,27.6,22.3
		c7.4,3.1,15.6,4.8,24.3,4.8c6.8,0,13.3-1,19.6-2.9c13.9-4.2,26.2-12.7,35.7-24.2c0.7-0.8,1.3-1.6,1.9-2.4c5.5-7.1,9.9-15.3,13-24.2
		c0,0,0,0,0-0.1c6.8-15.9,11.4-17.7,18.8-16.9c4.3,0.5,9.5,1.8,16.6,1.8h119.1c0.5-6.1,0.7-12.6,0.7-19.6
		C392,155.4,391.9,151.3,391.8,147.3z"/>
	
		<radialGradient id="SVGID_8_" cx="502.8122" cy="353.0026" r="43.3055" gradientTransform="matrix(1.715 0 0 0.3379 -282.8233 157.0196)" gradientUnits="userSpaceOnUse">
		<stop  offset="0" style="stop-color:#6C3E92;stop-opacity:0.1"/>
		<stop  offset="1" style="stop-color:#6C3E92;stop-opacity:0"/>
	</radialGradient>
	<rect x="503.6" y="275.7" class="st7" width="151.8" height="15.3"/>
	
		<radialGradient id="SVGID_9_" cx="308.1496" cy="353.0026" r="43.3055" gradientTransform="matrix(1.6602 0 0 0.3379 -346.5959 157.0196)" gradientUnits="userSpaceOnUse">
		<stop  offset="0" style="stop-color:#6C3E92;stop-opacity:0.1"/>
		<stop  offset="1" style="stop-color:#6C3E92;stop-opacity:0"/>
	</radialGradient>
	<rect x="91.5" y="275.7" class="st8" width="147" height="15.3"/>
	
		<radialGradient id="SVGID_10_" cx="342.8204" cy="276.287" r="78.2994" gradientTransform="matrix(1 0 0 0.1997 0 221.1247)" gradientUnits="userSpaceOnUse">
		<stop  offset="0" style="stop-color:#6C3E92;stop-opacity:0.1"/>
		<stop  offset="1" style="stop-color:#6C3E92;stop-opacity:0"/>
	</radialGradient>
	<path class="st9" d="M347.8,279.3c-10.4,0-20-1.2-28.6-3.5h-71.2V291h189.9v-15.3h-61.4C367.7,278.1,358.2,279.3,347.8,279.3z"/>
</g>
</svg>
