<?xml version="1.0" encoding="utf-8"?>
<!-- Generator: Adobe Illustrator 22.1.0, SVG Export Plug-In . SVG Version: 6.00 Build 0)  -->
<svg version="1.1" id="Layer_1" xmlns="http://www.w3.org/2000/svg" xmlns:xlink="http://www.w3.org/1999/xlink" x="0px" y="0px"
	 viewBox="0 0 682 331.3" style="enable-background:new 0 0 682 331.3;" xml:space="preserve">
<style type="text/css">
	.st0{opacity:0.1;}
	.st1{fill:url(#SVGID_1_);}
	.st2{fill:url(#SVGID_2_);}
	.st3{fill:url(#SVGID_3_);}
	.st4{fill:#FFFFFF;}
	.st5{fill:#FFFFFF;stroke:#EAE3F1;stroke-linecap:round;stroke-miterlimit:10;}
	.st6{fill:url(#SVGID_4_);}
	.st7{fill:url(#SVGID_5_);}
	.st8{fill:url(#SVGID_6_);}
	.st9{fill:none;stroke:#BDAACF;stroke-miterlimit:10;}
	.st10{fill:#BDAACF;}
	.st11{fill:none;stroke:#F5F6F6;stroke-linecap:round;stroke-miterlimit:10;}
	.st12{fill:#F5F6F6;stroke:#EAE3F1;stroke-linecap:round;stroke-miterlimit:10;}
	.st13{fill:#FFFFFF;stroke:#BDAACF;stroke-miterlimit:10;}
	.st14{fill:#FFFFFF;stroke:#BDAACF;stroke-linecap:round;stroke-miterlimit:10;}
	.st15{fill:none;stroke:#E2DAEC;stroke-miterlimit:10;}
</style>
<g class="st0">
	<linearGradient id="SVGID_1_" gradientUnits="userSpaceOnUse" x1="135.5739" y1="58.1195" x2="135.5739" y2="281.7642">
		<stop  offset="0" style="stop-color:#A45AA4"/>
		<stop  offset="1" style="stop-color:#6A3193"/>
	</linearGradient>
	<path class="st1" d="M228.9,230.3h-35.6v51.6h-41.6v-51.6H42.2V206l96.2-143.7h54.9V197h35.6V230.3z M86.5,197h65.2v-67.2l1-35.9
		H152c-4.9,11.3-11.5,23.4-20,36.3L86.5,197z"/>
	<linearGradient id="SVGID_2_" gradientUnits="userSpaceOnUse" x1="341.6708" y1="58.1317" x2="341.6708" y2="278.4844">
		<stop  offset="0" style="stop-color:#A45AA4"/>
		<stop  offset="1" style="stop-color:#6A3193"/>
	</linearGradient>
	<path class="st2" d="M429.5,172.1c0-37.3-7.4-65.4-22.1-84.5C392.6,68.5,370.7,59,341.7,59c-29.1,0-51,9.5-65.7,28.6
		c-14.7,19.1-22.1,47.2-22.1,84.5v109.8h45.9V172.1c0-26,0.1-45.1,7.5-57.6c7.5-12.4,20.2-18.6,34.4-18.6c14.2,0,26.9,6.2,34.4,18.6
		c7.5,12.4,7.6,31.6,7.6,57.6v109.8h45.9L429.5,172.1L429.5,172.1z"/>
	<linearGradient id="SVGID_3_" gradientUnits="userSpaceOnUse" x1="537.7783" y1="58.1195" x2="537.7783" y2="281.7642">
		<stop  offset="0" style="stop-color:#A45AA4"/>
		<stop  offset="1" style="stop-color:#6A3193"/>
	</linearGradient>
	<path class="st3" d="M596.9,78.4c13.3,10.8,20,25.3,20,43.6c0,11-2.3,20.2-6.9,27.6c-4.6,7.4-10.1,12.9-16.5,16.3
		c-6.4,3.4-11.9,5.2-16.6,5.2v1c6,0,12.4,1.6,19.2,4.7c6.8,3.1,12.6,8.3,17.6,15.5c5,7.2,7.4,16.6,7.4,28.3c0,12.1-3.6,22.7-10.7,32
		c-7.1,9.3-16.9,16.5-29.4,21.6c-12.5,5.2-26.7,7.8-42.6,7.8c-22.8,0-41.1-4.2-54.7-12.6c-13.7-8.4-23.4-21.8-29.2-40.4l50.4-21.6
		c1.1,11.2,4.4,19.3,9.8,24.2c5.5,5,13.2,7.4,23.1,7.4c9.3,0,16.5-2.2,21.8-6.6c5.3-4.4,7.9-10.6,7.9-18.6c0-8.4-2.5-14.4-7.6-18.1
		c-5.1-3.7-13.1-5.5-24.1-5.5h-11.9V155h9.4c10.3,0,17.9-2.1,22.6-6.3c4.7-4.2,7.1-10.6,7.1-19.2c0-7.8-2.2-13.7-6.6-17.9
		c-4.4-4.2-10.6-6.3-18.6-6.3c-18.1,0-28,9.6-29.7,28.7l-48.8-16.5c3.4-18.9,12.4-32.9,27-41.8c14.5-8.9,32.8-13.4,54.7-13.4
		C564.9,62.3,583.5,67.7,596.9,78.4z"/>
</g>
<g>
	<rect x="1.4" y="241.9" class="st4" width="680.6" height="89.4"/>
	<line class="st5" x1="427.7" y1="299.3" x2="510.7" y2="299.3"/>
	<line class="st5" x1="505.4" y1="267.3" x2="540.8" y2="267.3"/>
	<line class="st5" x1="550.8" y1="267.3" x2="572.1" y2="267.3"/>
	<line class="st5" x1="135.6" y1="278.3" x2="218.6" y2="278.3"/>
	<line class="st5" x1="152.9" y1="286.6" x2="117.5" y2="286.6"/>
	<line class="st5" x1="107.5" y1="286.6" x2="86.3" y2="286.6"/>
	<line class="st5" x1="505.4" y1="267.3" x2="540.8" y2="267.3"/>
	<line class="st5" x1="550.8" y1="267.3" x2="572.1" y2="267.3"/>
	
		<radialGradient id="SVGID_4_" cx="340.5985" cy="285.9094" r="41.0042" gradientTransform="matrix(2.1453 0 0 0.3379 -389.0076 145.7931)" gradientUnits="userSpaceOnUse">
		<stop  offset="0" style="stop-color:#6C3E93;stop-opacity:0.1"/>
		<stop  offset="1" style="stop-color:#6C3E93;stop-opacity:0"/>
	</radialGradient>
	<rect x="251.8" y="241.9" class="st6" width="179.8" height="14.4"/>
	
		<radialGradient id="SVGID_5_" cx="481.9407" cy="285.9094" r="41.0042" gradientTransform="matrix(2.274 0 0 0.3379 -558.1391 145.7931)" gradientUnits="userSpaceOnUse">
		<stop  offset="0" style="stop-color:#6C3E93;stop-opacity:0.1"/>
		<stop  offset="1" style="stop-color:#6C3E93;stop-opacity:0"/>
	</radialGradient>
	<rect x="442.5" y="241.9" class="st7" width="190.6" height="14.4"/>
	
		<radialGradient id="SVGID_6_" cx="312.6205" cy="285.9094" r="41.0042" gradientTransform="matrix(1.6602 0 0 0.3379 -345.7184 145.7931)" gradientUnits="userSpaceOnUse">
		<stop  offset="0" style="stop-color:#6C3E93;stop-opacity:0.1"/>
		<stop  offset="1" style="stop-color:#6C3E93;stop-opacity:0"/>
	</radialGradient>
	<rect x="103.7" y="241.9" class="st8" width="139.1" height="14.4"/>
</g>
<g>
	<g>
		<g id="XMLID_1_">
			<path class="st4" d="M299.7,241.9v-69.8c0-26,0.1-45.1,7.5-57.6c7.5-12.4,20.2-18.6,34.4-18.6c14.2,0,26.9,6.2,34.4,18.6
				c7.5,12.4,7.6,31.6,7.6,57.6v69.8H299.7z"/>
			<path class="st9" d="M299.7,241.9v-69.8c0-26,0.1-45.1,7.5-57.6c7.5-12.4,20.2-18.6,34.4-18.6c14.2,0,26.9,6.2,34.4,18.6
				c7.5,12.4,7.6,31.6,7.6,57.6v69.8H299.7z"/>
		</g>
		<rect x="381.6" y="152.7" class="st10" width="4" height="12"/>
		<rect x="381.6" y="219.3" class="st10" width="4" height="12"/>
	</g>
	<g>
		<line class="st11" x1="366.8" y1="105.4" x2="366.8" y2="242.2"/>
		<line class="st11" x1="350.1" y1="97.7" x2="350.1" y2="241.9"/>
		<line class="st11" x1="333.3" y1="97.7" x2="333.3" y2="241.9"/>
		<line class="st11" x1="316.5" y1="105.4" x2="316.5" y2="242.2"/>
	</g>
	<g>
		<circle class="st5" cx="341.7" cy="134.6" r="16.8"/>
		<circle class="st12" cx="341.7" cy="134.6" r="13.8"/>
	</g>
	<g>
		<circle class="st13" cx="316.5" cy="199.5" r="6"/>
		<circle class="st13" cx="316.5" cy="183.5" r="4"/>
		<line class="st14" x1="316.5" y1="181.9" x2="316.5" y2="185.1"/>
		<path class="st13" d="M330.6,202.5h-14c-1.7,0-3-1.3-3-3l0,0c0-1.7,1.3-3,3-3h14c1.7,0,3,1.3,3,3l0,0
			C333.6,201.2,332.3,202.5,330.6,202.5z"/>
	</g>
</g>
<g>
	<g>
		<rect x="642.1" y="148.7" class="st5" width="34.3" height="13.6"/>
		<rect x="625" y="162.4" class="st5" width="34.3" height="13.6"/>
	</g>
	<g>
		<rect x="430.1" y="0.5" class="st5" width="34.3" height="13.6"/>
		<rect x="447.3" y="14.1" class="st5" width="34.3" height="13.6"/>
	</g>
	<g>
		
			<rect x="235.7" y="38.6" transform="matrix(-1 4.488975e-11 -4.488975e-11 -1 505.8312 90.9207)" class="st5" width="34.3" height="13.6"/>
		
			<rect x="218.6" y="52.3" transform="matrix(-1 4.488975e-11 -4.488975e-11 -1 471.4895 118.2151)" class="st5" width="34.3" height="13.6"/>
	</g>
	<g>
		
			<rect x="17.7" y="135.1" transform="matrix(-1 4.488975e-11 -4.488975e-11 -1 69.6833 283.8305)" class="st5" width="34.3" height="13.6"/>
		
			<rect x="0.5" y="148.7" transform="matrix(-1 4.488975e-11 -4.488975e-11 -1 35.3417 311.125)" class="st5" width="34.3" height="13.6"/>
		
			<rect x="0.5" y="121.4" transform="matrix(-1 4.488975e-11 -4.488975e-11 -1 35.3417 256.5361)" class="st5" width="34.3" height="13.6"/>
	</g>
</g>
<line class="st15" x1="1.4" y1="241.9" x2="682" y2="241.9"/>
</svg>
