<?xml version="1.0" encoding="utf-8"?>
<!-- Generator: Adobe Illustrator 22.1.0, SVG Export Plug-In . SVG Version: 6.00 Build 0)  -->
<svg version="1.1" id="Layer_1" xmlns="http://www.w3.org/2000/svg" xmlns:xlink="http://www.w3.org/1999/xlink" x="0px" y="0px"
	 viewBox="0 0 520 320" style="enable-background:new 0 0 520 320;" xml:space="preserve">
<style type="text/css">
	.st0{fill:none;stroke:#F5F5F5;stroke-width:2;stroke-miterlimit:10;}
	.st1{fill:#EAE3F0;}
	.st2{fill:none;stroke:#EAE3F0;stroke-width:4;stroke-miterlimit:10;}
	.st3{fill:none;stroke:#EAE3F0;stroke-width:10;stroke-miterlimit:10;}
	.st4{fill:none;stroke:#F5F5F5;stroke-width:10;stroke-miterlimit:10;}
	.st5{fill:#F5F5F5;}
</style>
<g>
	<line class="st0" x1="100" y1="0.5" x2="100" y2="319.5"/>
</g>
<g>
	<circle class="st1" cx="451" cy="20" r="8"/>
	<line class="st2" x1="468.5" y1="20" x2="498.5" y2="20"/>
</g>
<line class="st3" x1="120" y1="20" x2="201" y2="20"/>
<line class="st4" x1="29" y1="298" x2="70" y2="298"/>
<line class="st3" x1="29" y1="20" x2="70" y2="20"/>
<g>
	<path class="st0" d="M229.333,165.167H124c-2.209,0-4-1.791-4-4V55.833c0-2.209,1.791-4,4-4h105.333c2.209,0,4,1.791,4,4v105.333
		C233.333,163.376,231.542,165.167,229.333,165.167z"/>
	<path class="st0" d="M362.333,165.167H257c-2.209,0-4-1.791-4-4V55.833c0-2.209,1.791-4,4-4h105.333c2.209,0,4,1.791,4,4v105.333
		C366.333,163.376,364.542,165.167,362.333,165.167z"/>
	<path class="st0" d="M495.333,165.167H390c-2.209,0-4-1.791-4-4V55.833c0-2.209,1.791-4,4-4h105.333c2.209,0,4,1.791,4,4v105.333
		C499.333,163.376,497.542,165.167,495.333,165.167z"/>
	<path class="st0" d="M229.333,298.167H124c-2.209,0-4-1.791-4-4V188.833c0-2.209,1.791-4,4-4h105.333c2.209,0,4,1.791,4,4v105.333
		C233.333,296.376,231.542,298.167,229.333,298.167z"/>
	<path class="st0" d="M495.333,298.167H257c-2.209,0-4-1.791-4-4V188.833c0-2.209,1.791-4,4-4h238.333c2.209,0,4,1.791,4,4v105.333
		C499.333,296.376,497.542,298.167,495.333,298.167z"/>
</g>
<line class="st0" x1="100" y1="40" x2="0" y2="40"/>
<g>
	<path class="st5" d="M516,2.5c1.103,0,2,0.897,2,2v312c0,1.103-0.897,2-2,2H4c-1.103,0-2-0.897-2-2V4.5c0-1.103,0.897-2,2-2H516
		 M516,0.5H4c-2.209,0-4,1.791-4,4v312c0,2.209,1.791,4,4,4h512c2.209,0,4-1.791,4-4V4.5C520,2.291,518.209,0.5,516,0.5L516,0.5z"/>
</g>
<path class="st0" d="M56,69.5H44c-2.209,0-4-1.791-4-4v-12c0-2.209,1.791-4,4-4h12c2.209,0,4,1.791,4,4v12
	C60,67.709,58.209,69.5,56,69.5z"/>
<path class="st0" d="M26,70H14c-2.209,0-4-1.791-4-4V54c0-2.209,1.791-4,4-4h12c2.209,0,4,1.791,4,4v12C30,68.209,28.209,70,26,70z"
	/>
<path class="st0" d="M86,70H74c-2.209,0-4-1.791-4-4V54c0-2.209,1.791-4,4-4h12c2.209,0,4,1.791,4,4v12C90,68.209,88.209,70,86,70z"
	/>
<path class="st0" d="M56,99.5H44c-2.209,0-4-1.791-4-4v-12c0-2.209,1.791-4,4-4h12c2.209,0,4,1.791,4,4v12
	C60,97.709,58.209,99.5,56,99.5z"/>
<path class="st0" d="M26,100H14c-2.209,0-4-1.791-4-4V84c0-2.209,1.791-4,4-4h12c2.209,0,4,1.791,4,4v12
	C30,98.209,28.209,100,26,100z"/>
</svg>
