<?xml version="1.0" encoding="utf-8"?>
<!-- Generator: Adobe Illustrator 22.1.0, SVG Export Plug-In . SVG Version: 6.00 Build 0)  -->
<svg version="1.1" id="Layer_1" xmlns="http://www.w3.org/2000/svg" xmlns:xlink="http://www.w3.org/1999/xlink" x="0px" y="0px"
	 viewBox="0 0 200 200" style="enable-background:new 0 0 200 200;" xml:space="preserve">
<style type="text/css">
	.st0{opacity:0.2;fill:url(#SVGID_1_);}
	.st1{opacity:0.2;fill:url(#SVGID_2_);}
	.st2{fill:url(#SVGID_3_);}
	.st3{fill:url(#SVGID_4_);}
</style>
<linearGradient id="SVGID_1_" gradientUnits="userSpaceOnUse" x1="0.8715" y1="113.2611" x2="199.1285" y2="86.7389" gradientTransform="matrix(0.7071 0.7071 -0.7071 0.7071 100 -41.4214)">
	<stop  offset="0" style="stop-color:#FF5554"/>
	<stop  offset="1" style="stop-color:#C92954"/>
</linearGradient>
<circle class="st0" cx="100" cy="100" r="100"/>
<linearGradient id="SVGID_2_" gradientUnits="userSpaceOnUse" x1="16.0115" y1="111.2358" x2="183.9885" y2="88.7642" gradientTransform="matrix(0.7071 0.7071 -0.7071 0.7071 100 -41.4214)">
	<stop  offset="0" style="stop-color:#FF5554"/>
	<stop  offset="1" style="stop-color:#C92954"/>
</linearGradient>
<circle class="st1" cx="100" cy="100" r="84.7"/>
<g>
	<linearGradient id="SVGID_3_" gradientUnits="userSpaceOnUse" x1="54.6667" y1="85.404" x2="177.4162" y2="166.0095">
		<stop  offset="0" style="stop-color:#FF5554"/>
		<stop  offset="1" style="stop-color:#C92954"/>
	</linearGradient>
	<path class="st2" d="M182.3,151.6L106.5,19.7c-3.3-4.9-11.5-4.9-14,0L16.6,151.6c-1.6,2.5-1.6,5.8,0,8.2c1.6,2.5,4.1,4.1,7.4,4.1
		h152.5c3.3,0,5.8-1.6,7.4-4.1S184,154.1,182.3,151.6z M37.2,147.5L99,40.3l61.8,107.2H37.2z"/>
	<linearGradient id="SVGID_4_" gradientUnits="userSpaceOnUse" x1="58.7448" y1="79.1936" x2="181.4944" y2="159.7992">
		<stop  offset="0" style="stop-color:#FF5554"/>
		<stop  offset="1" style="stop-color:#C92954"/>
	</linearGradient>
	<path class="st3" d="M91.8,89.8v33c0,4.9,3.3,8.2,8.2,8.2s8.2-3.3,8.2-8.2v-33c0-4.9-3.3-8.2-8.2-8.2S91.8,84.8,91.8,89.8z"/>
</g>
</svg>
