<?xml version="1.0" encoding="utf-8"?>
<!-- Generator: Adobe Illustrator 22.1.0, SVG Export Plug-In . SVG Version: 6.00 Build 0)  -->
<svg version="1.1" id="Layer_1" xmlns="http://www.w3.org/2000/svg" xmlns:xlink="http://www.w3.org/1999/xlink" x="0px" y="0px"
	 viewBox="0 0 200 200" style="enable-background:new 0 0 200 200;" xml:space="preserve">
<style type="text/css">
	.st0{fill:url(#SVGID_1_);}
	.st1{fill:url(#SVGID_2_);}
	.st2{fill:#FFFFFF;}
	.st3{opacity:0.1;}
	.st4{fill:url(#SVGID_3_);}
	.st5{fill:url(#SVGID_4_);}
	.st6{fill:none;stroke:#EFA6C9;stroke-width:2;stroke-linecap:round;stroke-miterlimit:10;}
	.st7{fill:none;stroke:#A39FC8;stroke-width:2;stroke-linecap:round;stroke-miterlimit:10;}
	.st8{fill:url(#SVGID_5_);}
</style>
<g>
	
		<linearGradient id="SVGID_1_" gradientUnits="userSpaceOnUse" x1="11.01" y1="100" x2="188.99" y2="100" gradientTransform="matrix(0.9948 0.1018 -0.1018 0.9948 10.7218 -10.1103)">
		<stop  offset="0" style="stop-color:#EAE3F0"/>
		<stop  offset="1" style="stop-color:#FBD7E7"/>
	</linearGradient>
	<path class="st0" d="M143.5,15.9c13.8,3.6,27.9,14.2,35.2,26.4s10.5,26.6,11.2,40.8c0.6,10.9-0.3,22-4.4,32.1
		c-4,9.8-10.9,18.2-18.4,25.6c-29.2,28.6-70.6,44.3-111.4,42.3c-16.4-0.8-34.8-5.9-42.5-20.4c-3.7-7.1-4.3-15.5-4.6-23.5
		c-0.6-14.1-0.7-28.7,4.2-41.9s16-25.1,30-27.1C52,69,61,71.9,70.1,73.3c8.9,1.4,18.1,1.4,27.1-0.1c2.6-0.4,5.3-1,7.5-2.5
		c2-1.3,3.5-3.2,4.7-5.3c3.8-6.3,5.3-13.8,6.9-21s3.5-14.6,8-20.5C128.7,18,136.4,14,143.5,15.9L143.5,15.9z"/>
</g>
<g>
	<g>
		
			<linearGradient id="SVGID_2_" gradientUnits="userSpaceOnUse" x1="63.7079" y1="138.1798" x2="136.442" y2="65.4456" gradientTransform="matrix(1 0 0 -1 0 202)">
			<stop  offset="0" style="stop-color:#A45AA4"/>
			<stop  offset="1" style="stop-color:#6A3193"/>
		</linearGradient>
		<path class="st1" d="M136.2,63.9c-20-20.3-52.3-20.3-72.3,0c-20.3,20-20.3,52.3,0,72.3c20,20,52.6,20,72.6,0
			C156.4,116.3,156.4,83.9,136.2,63.9z"/>
	</g>
	<path class="st2" d="M112.3,105.5c3.6-3.3,5.6-8,5.6-13.1c0-10-8-18-18-18c-10,0-18,8-18,18c0,5.1,2.1,9.7,5.6,13.1
		c-6.2,1-10.8,6.2-10.8,12.6v5.1c0,1.5,1,2.6,2.6,2.6h41c1.5,0,2.6-1,2.6-2.6v-5.1C123.1,111.6,118.5,106.5,112.3,105.5z M87.2,92.4
		c0-7.1,5.7-12.8,12.8-12.8c7.1,0,12.8,5.7,12.8,12.8c0,7.1-5.7,12.8-12.8,12.8C92.9,105.2,87.2,99.5,87.2,92.4z M117.9,120.6H82
		v-2.6c0-4.4,3.3-7.7,7.7-7.7h20.5c4.4,0,7.7,3.3,7.7,7.7V120.6z"/>
</g>
<g>
	<g class="st3">
		
			<linearGradient id="SVGID_3_" gradientUnits="userSpaceOnUse" x1="56.6446" y1="145.2212" x2="143.5345" y2="58.3314" gradientTransform="matrix(1 0 0 -1 0 202)">
			<stop  offset="0" style="stop-color:#A45AA4"/>
			<stop  offset="1" style="stop-color:#6A3193"/>
		</linearGradient>
		<path class="st4" d="M143.2,56.9c-23.9-24.2-62.5-24.2-86.4,0c-24.2,23.9-24.2,62.5,0,86.4c23.9,23.9,62.8,23.9,86.7,0
			S167.4,80.8,143.2,56.9z"/>
	</g>
	<g>
		
			<linearGradient id="SVGID_4_" gradientUnits="userSpaceOnUse" x1="63.7079" y1="138.1798" x2="136.442" y2="65.4456" gradientTransform="matrix(1 0 0 -1 0 202)">
			<stop  offset="0" style="stop-color:#A45AA4"/>
			<stop  offset="1" style="stop-color:#6A3193"/>
		</linearGradient>
		<path class="st5" d="M136.2,63.9c-20-20.3-52.3-20.3-72.3,0c-20.3,20-20.3,52.3,0,72.3c20,20,52.6,20,72.6,0
			C156.4,116.3,156.4,83.9,136.2,63.9z"/>
	</g>
	<path class="st2" d="M112.3,105.5c3.6-3.3,5.6-8,5.6-13.1c0-10-8-18-18-18c-10,0-18,8-18,18c0,5.1,2.1,9.7,5.6,13.1
		c-6.2,1-10.8,6.2-10.8,12.6v5.1c0,1.5,1,2.6,2.6,2.6h41c1.5,0,2.6-1,2.6-2.6v-5.1C123.1,111.6,118.5,106.5,112.3,105.5z M87.2,92.4
		c0-7.1,5.7-12.8,12.8-12.8c7.1,0,12.8,5.7,12.8,12.8c0,7.1-5.7,12.8-12.8,12.8C92.9,105.2,87.2,99.5,87.2,92.4z M117.9,120.6H82
		v-2.6c0-4.4,3.3-7.7,7.7-7.7h20.5c4.4,0,7.7,3.3,7.7,7.7V120.6z"/>
</g>
<g>
	<line class="st6" x1="38.6" y1="156.2" x2="38.6" y2="166.2"/>
	<line class="st6" x1="33.6" y1="161.2" x2="43.6" y2="161.2"/>
</g>
<g>
	<line class="st6" x1="164.2" y1="167.9" x2="164.2" y2="177.9"/>
	<line class="st6" x1="159.2" y1="172.9" x2="169.2" y2="172.9"/>
</g>
<g>
	<line class="st7" x1="176.2" y1="85.3" x2="169.2" y2="92.4"/>
	<line class="st7" x1="169.2" y1="85.3" x2="176.2" y2="92.4"/>
</g>
<g>
	<line class="st7" x1="60.2" y1="25" x2="53.1" y2="32.1"/>
	<line class="st7" x1="53.1" y1="25" x2="60.2" y2="32.1"/>
</g>
<linearGradient id="SVGID_5_" gradientUnits="userSpaceOnUse" x1="120.3847" y1="57.869" x2="164.1564" y2="57.869" gradientTransform="matrix(0.7071 0.7071 -0.7071 0.7071 82.5896 -83.651)">
	<stop  offset="0" style="stop-color:#89CB98"/>
	<stop  offset="1" style="stop-color:#09BED0"/>
</linearGradient>
<circle class="st8" cx="142.3" cy="57.9" r="21.9"/>
<path class="st2" d="M152.3,56.9h-9v-9c0-0.6-0.4-1-1-1c-0.6,0-1,0.4-1,1v9h-9c-0.6,0-1,0.4-1,1c0,0.6,0.4,1,1,1h9v9
	c0,0.6,0.4,1,1,1c0.6,0,1-0.4,1-1v-9h9c0.6,0,1-0.4,1-1C153.3,57.3,152.9,56.9,152.3,56.9z"/>
</svg>
