<?xml version="1.0" encoding="utf-8"?>
<!-- Generator: Adobe Illustrator 22.1.0, SVG Export Plug-In . SVG Version: 6.00 Build 0)  -->
<svg version="1.1" id="Layer_1" xmlns="http://www.w3.org/2000/svg" xmlns:xlink="http://www.w3.org/1999/xlink" x="0px" y="0px"
	 viewBox="0 0 200 200" style="enable-background:new 0 0 200 200;" xml:space="preserve">
<style type="text/css">
	.st0{fill:url(#SVGID_1_);}
	.st1{opacity:0.2;fill:url(#SVGID_2_);}
	.st2{opacity:0.2;fill:url(#SVGID_3_);}
</style>
<g>
	
		<linearGradient id="SVGID_1_" gradientUnits="userSpaceOnUse" x1="28.9899" y1="100" x2="171.0101" y2="100" gradientTransform="matrix(1 0 0 -1 0 200)">
		<stop  offset="0" style="stop-color:#89CB98"/>
		<stop  offset="1" style="stop-color:#09BED0"/>
	</linearGradient>
	<path class="st0" d="M169.8,47.6L87.4,161.2c-1.4,1.4-3.5,2.9-5.8,2.9c-2.1,0-4.3-1.4-5.8-2.9l-45.4-56.9c-2.1-2.9-2.1-6.4,0-9.2
		s6.4-3.5,9.2-1.4l40.5,25.5l78.1-80.9c2.9-2.9,7.2-2.9,9.9-0.6C171.3,40.6,171.9,44.9,169.8,47.6z"/>
</g>
<linearGradient id="SVGID_2_" gradientUnits="userSpaceOnUse" x1="0.8715" y1="113.2611" x2="199.1285" y2="86.7389" gradientTransform="matrix(0.7071 0.7071 -0.7071 0.7071 100 -41.4214)">
	<stop  offset="0" style="stop-color:#89CB98"/>
	<stop  offset="1" style="stop-color:#09BED0"/>
</linearGradient>
<circle class="st1" cx="100" cy="100" r="100"/>
<linearGradient id="SVGID_3_" gradientUnits="userSpaceOnUse" x1="16.0115" y1="111.2358" x2="183.9885" y2="88.7642" gradientTransform="matrix(0.7071 0.7071 -0.7071 0.7071 100 -41.4214)">
	<stop  offset="0" style="stop-color:#89CB98"/>
	<stop  offset="1" style="stop-color:#09BED0"/>
</linearGradient>
<circle class="st2" cx="100" cy="100" r="84.7"/>
</svg>
