<svg xmlns="http://www.w3.org/2000/svg" viewBox="0 0 236.3 40">
	<linearGradient id="a" gradientUnits="userSpaceOnUse" x1=".107" y1="20" x2="236.431" y2="20">
		<stop offset="0" stop-color="#b155ba" />
		<stop offset="1" stop-color="#69299a" />
	</linearGradient>
	<path d="M43.9 2.1H26.3c-.3 0-.6.1-.8.3l-6.7 6.7L9.9.3C9.7.1 9.4 0 9.1 0c-.3 0-.6.1-.8.3l-8 8c-.3.3-.4.8-.2 1.3.2.4.6.7 1 .7H8v10.5c0 .1.1.2.1.3 0 .1.1.1.1.2l8.8 8.8 9.6 9.6c.2.2.5.3.8.3.1 0 .3 0 .4-.1.4-.2.7-.6.7-1V20.1l.8-.7 2.1-2.2L44.7 4.1c.3-.3.4-.8.2-1.2s-.6-.8-1-.8zM10.3 17.7V3.9l6.9 6.9-6.9 6.9zM3.9 8L8 3.9V8H3.9zm22.5 28.1l-6.7-6.7 6.4-4.4.3-.2v11.3zM30 15.6l-2.1 2.2-1.1 1.1-8.8 8.8-7.2-7.2 16-16h14.4L30 15.6z"
	    fill="url(#a)" />
	<linearGradient id="b" gradientUnits="userSpaceOnUse" x1=".107" y1="20.099" x2="236.431" y2="20.099">
		<stop offset="0" stop-color="#b155ba" />
		<stop offset="1" stop-color="#69299a" />
	</linearGradient>
	<path d="M73.1 5C64.8 5 58 11.8 58 20.1s6.8 15.1 15.1 15.1 15.1-6.8 15.1-15.1C88.3 11.8 81.5 5 73.1 5zm0 26.9c-6.5 0-11.8-5.3-11.8-11.8 0-6.5 5.3-11.8 11.8-11.8 6.5 0 11.8 5.3 11.8 11.8 0 6.5-5.3 11.8-11.8 11.8z"
	    fill="url(#b)" />
	<linearGradient id="c" gradientUnits="userSpaceOnUse" x1=".107" y1="20.099" x2="236.431" y2="20.099">
		<stop offset="0" stop-color="#b155ba" />
		<stop offset="1" stop-color="#69299a" />
	</linearGradient>
	<path d="M122.9 5c-.9 0-1.7.8-1.7 1.7v26.9c0 .9.8 1.7 1.7 1.7s1.7-.8 1.7-1.7v-27c0-.9-.7-1.6-1.7-1.6z" fill="url(#c)" />
	<linearGradient id="d" gradientUnits="userSpaceOnUse" x1=".107" y1="20.099" x2="236.431" y2="20.099">
		<stop offset="0" stop-color="#b155ba" />
		<stop offset="1" stop-color="#69299a" />
	</linearGradient>
	<path d="M234.6 5c-.9 0-1.7.8-1.7 1.7v26.9c0 .9.8 1.7 1.7 1.7.9 0 1.7-.8 1.7-1.7v-27c0-.9-.7-1.6-1.7-1.6z" fill="url(#d)"
	/>
	<linearGradient id="e" gradientUnits="userSpaceOnUse" x1=".107" y1="20.124" x2="236.431" y2="20.124">
		<stop offset="0" stop-color="#b155ba" />
		<stop offset="1" stop-color="#69299a" />
	</linearGradient>
	<path d="M106.3 22.1c3.5-1.2 6-4.5 6-8.3 0-4.8-3.9-8.8-8.8-8.8h-7.1c-.9 0-1.7.8-1.7 1.7v26.9c0 .9.8 1.7 1.7 1.7s1.7-.8 1.7-1.7v-11h4.5l7.8 12c.3.5.9.8 1.4.8.3 0 .6-.1.9-.3.8-.5 1-1.6.5-2.3l-6.9-10.7zm-8.2-2.9V8.3h5.4c3 0 5.4 2.4 5.4 5.4 0 3-2.4 5.4-5.4 5.4h-5.4z"
	    fill="url(#e)" />
	<linearGradient id="f" gradientUnits="userSpaceOnUse" x1=".107" y1="20.099" x2="236.431" y2="20.099">
		<stop offset="0" stop-color="#b155ba" />
		<stop offset="1" stop-color="#69299a" />
	</linearGradient>
	<path d="M161 18.5h-13.8c-.9 0-1.7.8-1.7 1.7s.8 1.7 1.7 1.7h11.7c-.8 5.7-5.7 10.1-11.7 10.1-6.5 0-11.8-5.3-11.8-11.8 0-6.5 5.3-11.8 11.8-11.8.9 0 1.7-.8 1.7-1.7s-.8-1.7-1.7-1.7c-8.3 0-15.1 6.8-15.1 15.1s6.8 15.1 15.1 15.1 15.1-6.8 15.1-15.1c0-.8-.6-1.5-1.3-1.6z"
	    fill="url(#f)" />
	<linearGradient id="g" gradientUnits="userSpaceOnUse" x1=".107" y1="20.248" x2="236.431" y2="20.248">
		<stop offset="0" stop-color="#b155ba" />
		<stop offset="1" stop-color="#69299a" />
	</linearGradient>
	<path d="M179.6 6.1c-.3-.6-.9-1-1.5-1s-1.2.4-1.5 1L163.8 33c-.2.5-.2 1.1.1 1.6.3.5.8.8 1.4.8h25.6c.6 0 1.1-.3 1.4-.8.3-.5.3-1.1.1-1.6L179.6 6.1zM168 32l10.1-21.3L188.2 32H168z"
	    fill="url(#g)" />
	<linearGradient id="h" gradientUnits="userSpaceOnUse" x1=".107" y1="20.099" x2="236.431" y2="20.099">
		<stop offset="0" stop-color="#b155ba" />
		<stop offset="1" stop-color="#69299a" />
	</linearGradient>
	<path d="M225.1 5.1c-.7-.2-1.4 0-1.9.5l-11.5 14-11.5-14c-.5-.6-1.2-.8-1.9-.5-.7.2-1.1.9-1.1 1.6v26.9c0 .9.8 1.7 1.7 1.7.9 0 1.7-.8 1.7-1.7V11.4l9.8 11.9c.3.4.8.6 1.3.6s1-.2 1.3-.6l9.8-12v22.2c0 .9.8 1.7 1.7 1.7.9 0 1.7-.8 1.7-1.7V6.6c0-.7-.4-1.3-1.1-1.5z"
	    fill="url(#h)" />
</svg>
