<?xml version="1.0" encoding="utf-8"?><svg width="442" height="402" viewBox="0 0 442 402" xmlns="http://www.w3.org/2000/svg" xmlns:xlink="http://www.w3.org/1999/xlink"><view id="add" viewBox="161.09 80 40 40"/><svg viewBox="0 0 40 40" width="40" height="40" x="161.09" y="80" xmlns="http://www.w3.org/2000/svg"><path d="M30 19h-9v-9c0-.6-.4-1-1-1s-1 .4-1 1v9h-9c-.6 0-1 .4-1 1s.4 1 1 1h9v9c0 .6.4 1 1 1s1-.4 1-1v-9h9c.6 0 1-.4 1-1s-.4-1-1-1z"/></svg><view id="app" viewBox="281.09000000000003 40 40 40"/><svg viewBox="0 0 40 40" width="40" height="40" x="281.09000000000003" y="40" xmlns="http://www.w3.org/2000/svg"><path d="M20 33c-.2 0-.3 0-.5-.1l-10.4-6c-.3-.2-.5-.5-.5-.9V14c0-.4.2-.7.5-.9l10.4-6c.3-.2.7-.2 1 0l10.4 6c.3.2.5.5.5.9v12c0 .4-.2.7-.5.9l-10.4 6c-.2.1-.3.1-.5.1zm-9.4-7.6l9.4 5.4 9.4-5.4V14.6L20 9.2l-9.4 5.4v10.8z"/></svg><view id="arrow-down" viewBox="0 41.09 40 40"/><svg viewBox="0 0 40 40" width="40" height="40" y="41.09" xmlns="http://www.w3.org/2000/svg"><path d="M29.7 14.8c-.4-.4-1-.4-1.4 0L20 23.1l-8.3-8.3c-.4-.4-1-.4-1.4 0s-.4 1 0 1.4l9 9c.2.2.5.3.7.3s.5-.1.7-.3l9-9c.4-.4.4-1 0-1.4z"/></svg><view id="arrow-left" viewBox="40 41.09 40 40"/><svg viewBox="0 0 40 40" width="40" height="40" x="40" y="41.09" xmlns="http://www.w3.org/2000/svg"><path d="M25.2 29.7c.4-.4.4-1 0-1.4L16.9 20l8.3-8.3c.4-.4.4-1 0-1.4s-1-.4-1.4 0l-9 9c-.2.2-.3.5-.3.7s.1.5.3.7l9 9c.4.4 1 .4 1.4 0z"/></svg><view id="arrow-long-down" viewBox="81.09 0 40 40"/><svg viewBox="0 0 40 40" width="40" height="40" x="81.09" xmlns="http://www.w3.org/2000/svg"><path d="M19.6 32.2c.2.1.5.1.8 0 .1-.1.2-.1.3-.2l9-9c.4-.4.4-1 0-1.4s-1-.4-1.4 0L21 28.9V8.7c0-.6-.4-1-1-1s-1 .4-1 1v20.2l-7.3-7.3c-.4-.4-1-.4-1.4 0-.2.2-.3.5-.3.7s.1.5.3.7l9 9c.1.1.2.2.3.2z"/></svg><view id="arrow-long-left" viewBox="81.09 40 40 40"/><svg viewBox="0 0 40 40" width="40" height="40" x="81.09" y="40" xmlns="http://www.w3.org/2000/svg"><path d="M7.8 20.4c-.1-.2-.1-.5 0-.8.1-.1.1-.2.2-.3l9-9c.4-.4 1-.4 1.4 0s.4 1 0 1.4L11.1 19h20.2c.6 0 1 .4 1 1s-.4 1-1 1H11.1l7.3 7.3c.4.4.4 1 0 1.4-.2.2-.5.3-.7.3s-.5-.1-.7-.3l-9-9c-.1-.1-.2-.2-.2-.3z"/></svg><view id="arrow-long-right" viewBox="0 81.09 40 40"/><svg viewBox="0 0 40 40" width="40" height="40" y="81.09" xmlns="http://www.w3.org/2000/svg"><path d="M32.2 20.4c.1-.2.1-.5 0-.8-.1-.1-.1-.2-.2-.3l-9-9c-.4-.4-1-.4-1.4 0s-.4 1 0 1.4l7.3 7.3H8.7c-.6 0-1 .4-1 1s.4 1 1 1h20.2l-7.3 7.3c-.4.4-.4 1 0 1.4.2.2.5.3.7.3s.5-.1.7-.3l9-9c.1-.1.2-.2.2-.3z"/></svg><view id="arrow-long-up" viewBox="40 81.09 40 40"/><svg viewBox="0 0 40 40" width="40" height="40" x="40" y="81.09" xmlns="http://www.w3.org/2000/svg"><path d="M19.6 7.8c.2-.1.5-.1.8 0 .1.1.2.1.3.2l9 9c.4.4.4 1 0 1.4s-1 .4-1.4 0L21 11.1v20.2c0 .6-.4 1-1 1s-1-.4-1-1V11.1l-7.3 7.3c-.4.4-1 .4-1.4 0-.2-.2-.3-.5-.3-.7s.1-.5.3-.7l9-9c.1-.1.2-.2.3-.2z"/></svg><view id="arrow-right" viewBox="80 81.09 40 40"/><svg viewBox="0 0 40 40" width="40" height="40" x="80" y="81.09" xmlns="http://www.w3.org/2000/svg"><path d="M14.8 10.3c-.4.4-.4 1 0 1.4l8.3 8.3-8.3 8.3c-.4.4-.4 1 0 1.4s1 .4 1.4 0l9-9c.2-.2.3-.5.3-.7s-.1-.5-.3-.7l-9-9c-.4-.4-1-.4-1.4 0z"/></svg><view id="arrow-up" viewBox="121.09 0 40 40"/><svg viewBox="0 0 40 40" width="40" height="40" x="121.09" xmlns="http://www.w3.org/2000/svg"><path d="M29.7 25.2c-.4.4-1 .4-1.4 0L20 16.9l-8.3 8.3c-.4.4-1 .4-1.4 0s-.4-1 0-1.4l9-9c.2-.2.5-.3.7-.3s.5.1.7.3l9 9c.4.4.4 1 0 1.4z"/></svg><view id="bell" viewBox="121.09 40 40 40"/><svg viewBox="0 0 40 40" width="40" height="40" x="121.09" y="40" xmlns="http://www.w3.org/2000/svg"><path d="M26.035 20.787c-.719-.708-.717-2-.715-3.369.002-1.584.005-3.38-1.226-4.614-.526-.527-1.241-.871-2.117-1.079.009-.074.023-.148.023-.225 0-1.103-.897-2-2-2s-2 .897-2 2c0 .077.014.151.023.226-.875.207-1.591.552-2.117 1.079-1.231 1.233-1.229 3.029-1.226 4.614.002 1.369.004 2.661-.658 3.317C12.018 22.424 11 23.779 11 26.5a1 1 0 0 0 1 1h4.126c.445 1.724 2.013 3 3.874 3s3.428-1.276 3.874-3H28a1 1 0 0 0 1-1c0-2.721-1.018-4.076-2.965-5.713zM23 25.5a1 1 0 0 0-1 1c0 1.103-.897 2-2 2s-2-.897-2-2a1 1 0 0 0-1-1h-3.937c.178-1.204.775-1.995 2.305-3.287 1.318-1.296 1.315-3.156 1.312-4.797-.002-1.312-.004-2.551.642-3.198.475-.476 1.377-.718 2.678-.718s2.203.242 2.678.718c.646.646.644 1.886.642 3.198-.002 1.641-.005 3.501 1.369 4.849 1.484 1.25 2.072 2.033 2.249 3.235H23z"/></svg><view id="binoculars" viewBox="121.09 80 40 40"/><svg viewBox="0 0 40 40" width="40" height="40" x="121.09" y="80" xmlns="http://www.w3.org/2000/svg"><path d="M12 18.5c-1.654 0-3 1.346-3 3a1 1 0 1 0 2 0c0-.551.449-1 1-1a1 1 0 0 0 0-2zm16 0c-1.654 0-3 1.346-3 3a1 1 0 1 0 2 0c0-.551.448-1 1-1a1 1 0 1 0 0-2z"/><path d="M28.263 14.513l-.933-.467C26.469 12.534 24.861 11.5 23 11.5c-1.116 0-2.136.38-2.969 1h-.062c-.833-.62-1.854-1-2.969-1-1.861 0-3.469 1.034-4.33 2.547l-.933.467C8 14.653 5 17.729 5 21.5c0 3.859 3.14 7 7 7a6.968 6.968 0 0 0 6.301-4h3.4a6.97 6.97 0 0 0 6.3 4c3.859 0 7-3.141 7-7C35 17.729 32 14.653 28.263 14.513zm-11.557 8.659A4.98 4.98 0 0 1 12 26.5c-2.757 0-5-2.243-5-5s2.243-5 5-5 5 2.243 5 5c0 .573-.097 1.131-.294 1.672zM20 20.5a2 2 0 1 1-.001-3.999A2 2 0 0 1 20 20.5zm8 6a4.983 4.983 0 0 1-4.711-3.343A4.842 4.842 0 0 1 23 21.5c0-2.757 2.243-5 5-5s5 2.243 5 5-2.243 5-5 5z"/></svg><view id="box" viewBox="0 121.09 40 40"/><svg viewBox="0 0 40 40" width="40" height="40" y="121.09" xmlns="http://www.w3.org/2000/svg"><path d="M20 33a1 1 0 0 1-.5-.134l-10.392-6a1 1 0 0 1-.5-.866V14c0-.357.19-.688.5-.866l10.392-6a1.003 1.003 0 0 1 1 0l10.393 6a1 1 0 0 1 .5.866v12c0 .357-.19.688-.5.866l-10.393 6A1.005 1.005 0 0 1 20 33zm-9.392-7.577L20 30.845l9.393-5.423V14.577L20 9.154l-9.392 5.423v10.846z"/><path d="M19.999 21a.992.992 0 0 1-.499-.134l-10.392-6a1 1 0 1 1 .999-1.732l10.392 6a.999.999 0 0 1-.5 1.866z"/><path d="M20.001 21a1 1 0 0 1-.501-1.866l10.393-6a1 1 0 1 1 1 1.732l-10.393 6a.995.995 0 0 1-.499.134z"/><path d="M20 33a1 1 0 0 1-1-1V20a1 1 0 1 1 2 0v12a1 1 0 0 1-1 1zm-5.197-8.655a1 1 0 0 1-1-1V17a1 1 0 1 1 2 0v6.346a.999.999 0 0 1-1 .999z"/><path d="M14.804 18a1 1 0 0 1-.501-1.866l10.188-5.882a1 1 0 1 1 1 1.732l-10.188 5.882a.992.992 0 0 1-.499.134z"/></svg><view id="brush" viewBox="40 121.09 40 40"/><svg viewBox="0 0 40 40" width="40" height="40" x="40" y="121.09" xmlns="http://www.w3.org/2000/svg"><path d="M32.7 12.3l-2.8-2.8c-.2-.2-.4-.3-.7-.3s-.5.1-.7.3L17.3 20.6c-.7-.1-1.4-.2-2.1-.1-.9.1-1.6.5-2.2 1.2-.6.7-.8 1.6-.7 2.5 0 .3 0 .9-.4 1.2-.6.5-2 .4-3.6-.2-.3-.2-.7-.1-1 .2-.3.3-.4.7-.2 1.1.9 2.1 4 4.3 7 4.3.7 0 1.4-.1 2.1-.4 2.6-1.1 4.3-3 4.7-4.9l11.8-11.8c.4-.4.4-1 0-1.4zM15.4 28.6c-1.5.6-3.3 0-4.6-.9 1.1 0 1.9-.4 2.4-.8.9-.7 1.3-1.8 1.1-3.1 0-.3.1-.7.3-1 .2-.2.5-.4.8-.4 1.7-.1 3.1.4 3.5 1.4.6 1.6-1 3.7-3.5 4.8zm5.2-5.6c-.3-.6-.7-1.1-1.3-1.5l9.8-9.8 1.4 1.4-9.9 9.9z"/></svg><view id="calendar" viewBox="80 121.09 40 40"/><svg viewBox="0 0 40 40" width="40" height="40" x="80" y="121.09" xmlns="http://www.w3.org/2000/svg"><path d="M28 8h-2c-.6 0-1 .4-1 1s.4 1 1 1h2c.6 0 1-.4 1-1s-.4-1-1-1zM15 8h-2c-.6 0-1 .4-1 1s.4 1 1 1h2c.6 0 1-.4 1-1s-.4-1-1-1zm17 2h-1c0 1.1-.9 2-2 2h-4c-1.1 0-2-.9-2-2h-5c0 1.1-.9 2-2 2h-4c-1.1 0-2-.9-2-2H8c-.6 0-1 .4-1 1v22c0 .6.4 1 1 1h24c.6 0 1-.4 1-1V11c0-.6-.4-1-1-1zm-16 5h8c.6 0 1 .4 1 1s-.4 1-1 1h-8c-.6 0-1-.4-1-1s.4-1 1-1zm15 17H9V20h22v12z"/></svg><view id="camera" viewBox="120 121.09 40 40"/><svg viewBox="0 0 40 40" width="40" height="40" x="120" y="121.09" xmlns="http://www.w3.org/2000/svg"><path d="M30 30H10c-1.7 0-3-1.3-3-3V16c0-1.7 1.3-3 3-3h7c0-1.7 1.3-3 3-3h5c1.7 0 3 1.3 3 3h2c1.7 0 3 1.3 3 3v11c0 1.7-1.3 3-3 3zM10 15c-.5 0-1 .4-1 1v11c0 .5.4 1 1 1h20c.5 0 1-.4 1-1V16c0-.5-.4-1-1-1h-3c-.6 0-1-.4-1-1v-1c0-.6-.4-1-1-1h-5c-.6 0-1 .4-1 1v1c0 .6-.4 1-1 1h-8z"/><path d="M16 25.5c-2.2 0-4-1.8-4-4s1.8-4 4-4 4 1.8 4 4-1.8 4-4 4zm0-6c-1.1 0-2 .9-2 2s.9 2 2 2 2-.9 2-2-.9-2-2-2zm11 0h-4c-.6 0-1-.4-1-1s.4-1 1-1h4c.6 0 1 .4 1 1s-.4 1-1 1z"/></svg><view id="cloud" viewBox="161.09 0 40 40"/><svg viewBox="0 0 40 40" width="40" height="40" x="161.09" xmlns="http://www.w3.org/2000/svg"><path d="M26.4 28.1H12.2c-2.9 0-5.2-2.3-5.2-5.2s2.3-5.2 5.2-5.2c.3 0 .5 0 .8.1 1-3.3 4.1-5.7 7.7-5.7 2.4 0 4.6 1 6.1 2.8 3.4.3 6.2 3.1 6.2 6.6 0 3.6-3 6.6-6.6 6.6zm-14.2-8.5C10.5 19.6 9 21 9 22.8s1.5 3.2 3.2 3.2h14.1c2.6 0 4.6-2.1 4.6-4.6s-2.1-4.6-4.6-4.6h-.5l-.3-.4c-1.2-1.5-2.9-2.4-4.8-2.4-2.9 0-5.4 2-5.9 4.8v.2l-.2 1.3-1.2-.5c-.4-.1-.8-.2-1.2-.2z"/></svg><view id="code" viewBox="161.09 40 40 40"/><svg viewBox="0 0 40 40" width="40" height="40" x="161.09" y="40" xmlns="http://www.w3.org/2000/svg"><path d="M8.001 21a1 1 0 0 1-.449-1.895l6-3a1 1 0 0 1 .895 1.789l-6 3a.99.99 0 0 1-.446.106z"/><path d="M13.999 24c-.15 0-.303-.034-.446-.105l-6-3a1 1 0 0 1 .895-1.789l6 3A1 1 0 0 1 13.999 24zm18-3c-.15 0-.303-.034-.446-.105l-6-3a1 1 0 0 1 .895-1.789l6 3A1 1 0 0 1 31.999 21z"/><path d="M26.001 24a1 1 0 0 1-.449-1.895l6-3a1 1 0 0 1 .895 1.789l-6 3a.99.99 0 0 1-.446.106zm-7.5 3a1 1 0 0 1-.972-1.242l3-12c.135-.536.68-.861 1.213-.728a.998.998 0 0 1 .727 1.212l-3 12a.998.998 0 0 1-.968.758z"/></svg><view id="copy" viewBox="0 0 41.09 41.09"/><svg viewBox="0 0 41.09 41.09" width="41.09" height="41.09" xmlns="http://www.w3.org/2000/svg"><path d="M32.55 11.65H28.1v-4.1c0-.3-.24-.55-.55-.55h-20c-.31 0-.55.24-.55.55v20c0 .3.24.55.55.55h4.11v4.45c0 .49.4.89.89.89h20c.49 0 .89-.4.89-.89v-20c0-.5-.4-.9-.89-.9zM8.09 27V8.09H27v3.56H12.55c-.49 0-.89.4-.89.89V27H8.09zm23.56 4.65H13.44V13.44h18.21v18.21z"/></svg><view id="cross" viewBox="161.09 120 40 40"/><svg viewBox="0 0 40 40" width="40" height="40" x="161.09" y="120" xmlns="http://www.w3.org/2000/svg"><path d="M21.4 20l6.3-6.3c.4-.4.4-1 0-1.4s-1-.4-1.4 0L20 18.6l-6.3-6.3c-.4-.4-1-.4-1.4 0s-.4 1 0 1.4l6.3 6.3-6.3 6.3c-.4.4-.4 1 0 1.4.2.2.5.3.7.3s.5-.1.7-.3l6.3-6.3 6.3 6.3c.2.2.5.3.7.3s.5-.1.7-.3c.4-.4.4-1 0-1.4L21.4 20z"/></svg><view id="dashboard" viewBox="0 161.09 40 40"/><svg viewBox="0 0 40 40" width="40" height="40" y="161.09" xmlns="http://www.w3.org/2000/svg"><path d="M20 7C12.8 7 7 12.8 7 20s5.8 13 13 13 13-5.8 13-13S27.2 7 20 7zm0 24c-6.1 0-11-4.9-11-11S13.9 9 20 9s11 4.9 11 11-4.9 11-11 11z"/><path d="M20.5 17.6V12c0-.3-.2-.5-.5-.5s-.5.2-.5.5v5.6c-1.1.2-2 1.2-2 2.4 0 1.4 1.1 2.5 2.5 2.5s2.5-1.1 2.5-2.5c0-1.2-.9-2.2-2-2.4zm-6 2.4c0-.3-.2-.5-.5-.5h-2c-.3 0-.5.2-.5.5s.2.5.5.5h2c.3 0 .5-.2.5-.5zm.2-6c-.2-.2-.5-.2-.7 0s-.2.5 0 .7l1.4 1.4c.1.1.2.1.4.1s.3 0 .4-.1c.2-.2.2-.5 0-.7L14.7 14zm9.5 2.3c.1 0 .3 0 .4-.1l1.4-1.4c.2-.2.2-.5 0-.7s-.5-.2-.7 0l-1.4 1.4c-.2.2-.2.5 0 .7.1 0 .2.1.3.1zm3.8 3.2h-2c-.3 0-.5.2-.5.5s.2.5.5.5h2c.3 0 .5-.2.5-.5s-.2-.5-.5-.5zm-3.4 4.4c-.2-.2-.5-.2-.7 0s-.2.5 0 .7l1.4 1.4c.1.1.2.1.4.1s.3 0 .4-.1c.2-.2.2-.5 0-.7l-1.5-1.4zm-9.2 0L14 25.3c-.2.2-.2.5 0 .7.1.1.2.1.4.1s.3 0 .4-.1l1.4-1.4c.2-.2.2-.5 0-.7s-.6-.2-.8 0z"/></svg><view id="database" viewBox="40 161.09 40 40"/><svg viewBox="0 0 40 40" width="40" height="40" x="40" y="161.09" xmlns="http://www.w3.org/2000/svg"><path d="M20 30c-4.646 0-8.607-1.4-9.857-3.485a1 1 0 0 1 1.715-1.029C12.588 26.704 15.69 28 20 28s7.411-1.296 8.143-2.515a1 1 0 1 1 1.715 1.029C28.607 28.6 24.645 30 20 30z"/><path d="M20 26c-4.646 0-8.607-1.4-9.857-3.485a1 1 0 0 1 1.715-1.029C12.588 22.704 15.69 24 20 24s7.411-1.296 8.143-2.515a1 1 0 1 1 1.715 1.029C28.607 24.6 24.645 26 20 26z"/><path d="M20 12c4.418 0 8 1.791 8 4s-3.582 4-8 4-8-1.791-8-4 3.582-4 8-4m0-2c-5.701 0-10 2.579-10 6s4.299 6 10 6 10-2.579 10-6-4.299-6-10-6z"/></svg><view id="dollar" viewBox="80 161.09 40 40"/><svg viewBox="0 0 40 40" width="40" height="40" x="80" y="161.09" xmlns="http://www.w3.org/2000/svg"><path d="M19.303 28.569c-1.511-.139-2.783-.581-3.816-1.328a5.95 5.95 0 0 1-1.885-2.267.912.912 0 0 1 .396-1.211l.263-.135c.464-.238 1.01-.022 1.23.45.254.546.63 1.032 1.129 1.456a5.642 5.642 0 0 0 2.683 1.263v-6.042c-1.13-.244-2.062-.509-2.8-.795a4.492 4.492 0 0 1-1.837-1.289c-.486-.573-.729-1.337-.729-2.292 0-.868.217-1.659.651-2.371.435-.711 1.056-1.297 1.863-1.757.807-.46 1.758-.733 2.852-.821V9.698a.898.898 0 1 1 1.796 0v1.759c1.286.104 2.349.447 3.191 1.029.648.447 1.225 1.056 1.734 1.826a.914.914 0 0 1-.182 1.227l-.206.162c-.435.342-1.063.202-1.339-.278-.311-.539-.647-.967-1.01-1.284-.556-.485-1.286-.79-2.188-.911v6.121c1.129.243 2.062.508 2.8.794a4.482 4.482 0 0 1 1.849 1.315c.495.59.743 1.381.743 2.371 0 1.336-.486 2.426-1.459 3.268-.972.843-2.283 1.332-3.933 1.471v1.733a.898.898 0 1 1-1.796 0v-1.732zm0-15.367c-1.112.104-1.953.417-2.527.937-.573.521-.86 1.216-.86 2.084 0 .782.29 1.372.872 1.772s1.42.729 2.514.989v-5.782zm5.234 10.783c0-.798-.299-1.406-.898-1.823-.6-.417-1.446-.756-2.54-1.016v5.704c2.293-.191 3.438-1.146 3.438-2.865z"/></svg><view id="download" viewBox="120 161.09 40 40"/><svg viewBox="0 0 40 40" width="40" height="40" x="120" y="161.09" xmlns="http://www.w3.org/2000/svg"><path d="M24 26.504l-2.999-.001.005-9.293a1 1 0 0 0-.999-1h-.001a1 1 0 0 0-1 1l-.005 9.293L16 26.5a.71.71 0 0 0-.5 1.208l3.998 4.002a.705.705 0 0 0 1 0l4.002-3.998a.707.707 0 0 0-.5-1.208z"/><path d="M26.842 10.925a7.968 7.968 0 0 0-6.136-2.842c-3.563 0-6.696 2.366-7.71 5.703A5.243 5.243 0 0 0 7 18.966a5.242 5.242 0 0 0 5.235 5.235H16a1 1 0 1 0 0-2h-3.765C10.451 22.202 9 20.75 9 18.966s1.451-3.235 3.235-3.235c.396 0 .779.071 1.137.212a1 1 0 0 0 1.356-.789c.01-.07.02-.135.039-.224a6.08 6.08 0 0 1 5.938-4.847c1.923 0 3.687.883 4.839 2.423.189.252.492.401.808.401 2.562 0 4.647 2.084 4.647 4.647s-2.085 4.647-4.647 4.647H24a1 1 0 1 0 0 2h2.353A6.655 6.655 0 0 0 33 17.554c0-3.498-2.717-6.374-6.158-6.629z"/></svg><view id="edit" viewBox="160 161.09 40 40"/><svg viewBox="0 0 40 40" width="40" height="40" x="160" y="161.09" xmlns="http://www.w3.org/2000/svg"><path d="M32 31.1H10.9l4.3-2.2c.1 0 .2-.1.2-.2l14.4-14.4c.2-.2.3-.4.3-.7 0-.3-.1-.5-.3-.7L27 10.1c-.2-.2-.4-.3-.7-.3-.3 0-.5.1-.7.3L11.2 24.4c-.1.1-.1.2-.2.2l-3 5.9c-.1.2-.1.4-.1.6-.4.1-.8.4-.8.9s.4.9.9.9h24c.5 0 .9-.4.9-.9s-.4-.9-.9-.9zm-5.7-18.9l1.4 1.4-2.2 2.2-1.4-1.4 2.2-2.2zM12.7 25.7l10-10 1.4 1.4-10 10-2.9 1.5 1.5-2.9z"/></svg><view id="editor-bold" viewBox="201.09 0 40 40"/><svg viewBox="0 0 40 40" width="40" height="40" x="201.09" xmlns="http://www.w3.org/2000/svg"><path d="M21 20c3.5 0 6.4-1.8 6.4-5.5S24.6 8 21 8h-9.5v24H21c4.7 0 7.5-2.9 7.5-6.5S25.7 20 21 20zm-4.5-8h3.8c1.4 0 2.5 1.1 2.5 2.5S21.7 17 20.3 17h-3.8v-5zm4.7 16h-4.7v-5h4.7c1.3 0 2.3 1.1 2.3 2.5s-1 2.5-2.3 2.5z"/></svg><view id="editor-bullet-ordered" viewBox="201.09 40 40 40"/><svg viewBox="0 0 40 40" width="40" height="40" x="201.09" y="40" xmlns="http://www.w3.org/2000/svg"><path d="M31.432 11.622h-12a1 1 0 0 1 0-2h12a1 1 0 1 1 0 2zm0 10h-12a1 1 0 1 1 0-2h12a1 1 0 1 1 0 2zm0 10h-12a1 1 0 1 1 0-2h12a1 1 0 1 1 0 2zM10.656 7.298v5.28H8.873V9.042c-.385.342-.777.542-1.177.6l-.104-1.496c.32-.038.639-.141.956-.309s.537-.348.66-.54h1.448zM7.84 21.458c.768-.405 1.354-.818 1.756-1.24.402-.421.604-.794.604-1.12 0-.138-.034-.253-.104-.344s-.179-.136-.328-.136a.427.427 0 0 0-.4.228c-.085.152-.122.389-.111.708l-1.592-.384c-.011-.432.079-.793.271-1.084.192-.29.459-.508.8-.651a2.947 2.947 0 0 1 1.16-.217c.501 0 .912.088 1.232.265.319.176.551.396.691.66.142.264.212.529.212.796 0 .49-.184.925-.552 1.304s-.866.718-1.496 1.016v.017c.331-.032.749-.048 1.256-.048h.824v1.352H7.84v-1.122zm3.533 6.205c.354.266.531.65.531 1.152 0 .293-.065.525-.195.695-.131.17-.275.289-.433.355s-.278.1-.363.1v.033c.111 0 .249.025.411.076a.994.994 0 0 1 .46.336c.144.173.216.425.216.757 0 .309-.095.58-.284.812-.189.23-.449.41-.78.535s-.701.188-1.112.188c-.645 0-1.149-.102-1.512-.307-.362-.207-.61-.551-.744-1.037l1.681-.68c-.011.25.031.422.128.516a.525.525 0 0 0 .384.141c.31 0 .464-.133.464-.4 0-.133-.039-.232-.116-.297-.077-.062-.204-.096-.38-.096h-.36v-1.055h.257c.176 0 .302-.035.38-.105.077-.068.116-.178.116-.328a.441.441 0 0 0-.104-.311.369.369 0 0 0-.288-.113c-.325 0-.485.219-.479.656L7.64 28.79c.059-.555.284-.947.676-1.18.393-.232.908-.348 1.548-.348.651.001 1.153.134 1.509.401z"/></svg><view id="editor-bullet-unordered" viewBox="201.09 80 40 40"/><svg viewBox="0 0 40 40" width="40" height="40" x="201.09" y="80" xmlns="http://www.w3.org/2000/svg"><path d="M10 13c-1.7 0-3-1.3-3-3s1.3-3 3-3 3 1.3 3 3-1.3 3-3 3zm0-4c-.6 0-1 .4-1 1s.4 1 1 1 1-.4 1-1-.4-1-1-1zm22 2H20c-.6 0-1-.4-1-1s.4-1 1-1h12c.6 0 1 .4 1 1s-.4 1-1 1zM10 23c-1.7 0-3-1.3-3-3s1.3-3 3-3 3 1.3 3 3-1.3 3-3 3zm0-4c-.6 0-1 .4-1 1s.4 1 1 1 1-.4 1-1-.4-1-1-1zm22 2H20c-.6 0-1-.4-1-1s.4-1 1-1h12c.6 0 1 .4 1 1s-.4 1-1 1zM10 33c-1.7 0-3-1.3-3-3s1.3-3 3-3 3 1.3 3 3-1.3 3-3 3zm0-4c-.6 0-1 .4-1 1s.4 1 1 1 1-.4 1-1-.4-1-1-1zm22 2H20c-.6 0-1-.4-1-1s.4-1 1-1h12c.6 0 1 .4 1 1s-.4 1-1 1z"/></svg><view id="editor-clear" viewBox="201.09 120 40 40"/><svg viewBox="0 0 40 40" width="40" height="40" x="201.09" y="120" xmlns="http://www.w3.org/2000/svg"><path d="M22.5 18.3l6.6-6.6 1.4 1.4-6.6 6.6 1.4 1.4 7.4-7.4c.4-.4.4-1 0-1.4l-2.8-2.8c-.2-.2-.4-.3-.7-.3-.3 0-.5.1-.7.3l-7.4 7.4 1.4 1.4zm9 14.6c.1.1.3.1.5.1.3 0 .5-.1.7-.3.3-.3.4-.8.2-1.2L8.5 7.1c-.4-.2-.9-.1-1.2.2s-.4.8-.2 1.2l24.4 24.4zM16.3 20.5h-1.1c-.9.1-1.6.5-2.2 1.2-.6.7-.8 1.6-.7 2.5 0 .3 0 .9-.4 1.2-.6.5-2 .4-3.6-.2-.3-.2-.7-.1-1 .2-.3.3-.4.7-.2 1.1.9 2.1 4 4.3 7 4.3.7 0 1.4-.1 2.1-.4 2.6-1.1 4.3-3 4.7-4.9l.2-.2-4.8-4.8zm-.9 8.1c-1.5.6-3.3 0-4.6-.9 1.1 0 1.9-.4 2.4-.8.9-.7 1.3-1.8 1.1-3.1 0-.3.1-.7.3-1 .2-.2.5-.4.8-.4 1.7-.1 3.1.4 3.5 1.4.6 1.6-1 3.7-3.5 4.8z"/></svg><view id="editor-indent" viewBox="201.09 160 40 40"/><svg viewBox="0 0 40 40" width="40" height="40" x="201.09" y="160" xmlns="http://www.w3.org/2000/svg"><path d="M14.5 17.5c-.2-.2-.5-.3-.8-.2-.3.1-.4.4-.4.7v1H8c-.6 0-1 .4-1 1s.4 1 1 1h5.3v1c0 .3.2.5.4.7.1 0 .2.1.3.1.2 0 .4-.1.5-.2l2-2c.3-.3.3-.7 0-1l-2-2.1zM20 17h8c.6 0 1-.4 1-1s-.4-1-1-1h-8c-.6 0-1 .4-1 1s.4 1 1 1zm0-4h12c.6 0 1-.4 1-1s-.4-1-1-1H20c-.6 0-1 .4-1 1s.4 1 1 1zm12 10H20c-.6 0-1 .4-1 1s.4 1 1 1h12c.6 0 1-.4 1-1s-.4-1-1-1zm0-4H20c-.6 0-1 .4-1 1s.4 1 1 1h12c.6 0 1-.4 1-1s-.4-1-1-1zm-4 8h-8c-.6 0-1 .4-1 1s.4 1 1 1h8c.6 0 1-.4 1-1s-.4-1-1-1z"/></svg><view id="editor-italic" viewBox="0 201.09 40 40"/><svg viewBox="0 0 40 40" width="40" height="40" y="201.09" xmlns="http://www.w3.org/2000/svg"><path d="M28 8H16c-.6 0-1 .4-1 1s.4 1 1 1h4.8l-3.6 20H12c-.6 0-1 .4-1 1s.4 1 1 1h12c.6 0 1-.4 1-1s-.4-1-1-1h-4.8l3.6-20H28c.6 0 1-.4 1-1s-.4-1-1-1z"/></svg><view id="editor-justify" viewBox="40 201.09 40 40"/><svg viewBox="0 0 40 40" width="40" height="40" x="40" y="201.09" xmlns="http://www.w3.org/2000/svg"><path d="M9 30h24c.6 0 1-.4 1-1s-.4-1-1-1H9c-.6 0-1 .4-1 1s.4 1 1 1zm0-8h24c.6 0 1-.4 1-1s-.4-1-1-1H9c-.6 0-1 .4-1 1s.4 1 1 1zm0-8h24c.6 0 1-.4 1-1s-.4-1-1-1H9c-.6 0-1 .4-1 1s.4 1 1 1zm0 4h24c.6 0 1-.4 1-1s-.4-1-1-1H9c-.6 0-1 .4-1 1s.4 1 1 1zm0 8h24c.6 0 1-.4 1-1s-.4-1-1-1H9c-.6 0-1 .4-1 1s.4 1 1 1z"/></svg><view id="editor-justify-center" viewBox="80 201.09 40 40"/><svg viewBox="0 0 40 40" width="40" height="40" x="80" y="201.09" xmlns="http://www.w3.org/2000/svg"><path d="M25 30h-8c-.6 0-1-.4-1-1s.4-1 1-1h8c.6 0 1 .4 1 1s-.4 1-1 1zm8-8H9c-.6 0-1-.4-1-1s.4-1 1-1h24c.6 0 1 .4 1 1s-.4 1-1 1zm0-8H9c-.6 0-1-.4-1-1s.4-1 1-1h24c.6 0 1 .4 1 1s-.4 1-1 1zm0 4H9c-.6 0-1-.4-1-1s.4-1 1-1h24c.6 0 1 .4 1 1s-.4 1-1 1zm0 8H9c-.6 0-1-.4-1-1s.4-1 1-1h24c.6 0 1 .4 1 1s-.4 1-1 1z"/></svg><view id="editor-justify-left" viewBox="120 201.09 40 40"/><svg viewBox="0 0 40 40" width="40" height="40" x="120" y="201.09" xmlns="http://www.w3.org/2000/svg"><path d="M17 30H9c-.6 0-1-.4-1-1s.4-1 1-1h8c.6 0 1 .4 1 1s-.4 1-1 1zm16-8H9c-.6 0-1-.4-1-1s.4-1 1-1h24c.6 0 1 .4 1 1s-.4 1-1 1zm0-8H9c-.6 0-1-.4-1-1s.4-1 1-1h24c.6 0 1 .4 1 1s-.4 1-1 1zm0 4H9c-.6 0-1-.4-1-1s.4-1 1-1h24c.6 0 1 .4 1 1s-.4 1-1 1zm0 8H9c-.6 0-1-.4-1-1s.4-1 1-1h24c.6 0 1 .4 1 1s-.4 1-1 1z"/></svg><view id="editor-justify-right" viewBox="160 201.09 40 40"/><svg viewBox="0 0 40 40" width="40" height="40" x="160" y="201.09" xmlns="http://www.w3.org/2000/svg"><path d="M25 30h8c.6 0 1-.4 1-1s-.4-1-1-1h-8c-.6 0-1 .4-1 1s.4 1 1 1zM9 22h24c.6 0 1-.4 1-1s-.4-1-1-1H9c-.6 0-1 .4-1 1s.4 1 1 1zm0-8h24c.6 0 1-.4 1-1s-.4-1-1-1H9c-.6 0-1 .4-1 1s.4 1 1 1zm0 4h24c.6 0 1-.4 1-1s-.4-1-1-1H9c-.6 0-1 .4-1 1s.4 1 1 1zm0 8h24c.6 0 1-.4 1-1s-.4-1-1-1H9c-.6 0-1 .4-1 1s.4 1 1 1z"/></svg><view id="editor-link" viewBox="200 201.09 40 40"/><svg viewBox="0 0 40 40" width="40" height="40" x="200" y="201.09" xmlns="http://www.w3.org/2000/svg"><path d="M12 33c-1.3 0-2.5-.5-3.5-1.4-1-1-1.5-2.2-1.4-3.6 0-1.3.6-2.6 1.5-3.6l5.9-5.9c.4-.4 1-.4 1.4 0 .4.4.4 1 0 1.4L10 25.8c-.6.6-.9 1.4-1 2.2 0 .8.3 1.6.8 2.1 1.2 1.2 3.1 1.1 4.4-.1l5.9-5.9c.4-.4 1-.4 1.4 0 .4.4.4 1 0 1.4l-5.9 5.9c-1 1.1-2.3 1.6-3.6 1.6zm12.8-11.2c-.3 0-.5-.1-.7-.3-.4-.4-.4-1 0-1.4l5.9-5.9c.6-.6.9-1.4 1-2.2 0-.8-.3-1.6-.8-2.1-.6-.6-1.4-.9-2.2-.9-.8 0-1.6.4-2.2 1l-5.9 5.9c-.4.4-1 .4-1.4 0-.4-.4-.4-1 0-1.4l5.9-5.9c1-1 2.2-1.5 3.6-1.5s2.6.5 3.6 1.4c1 .9 1.5 2.2 1.4 3.6 0 1.3-.6 2.6-1.5 3.6l-5.9 5.9c-.3.1-.5.2-.8.2z"/><path d="M16 25c-.3 0-.5-.1-.7-.3-.4-.4-.4-1 0-1.4l8-8c.4-.4 1-.4 1.4 0 .4.4.4 1 0 1.4l-8 8c-.2.2-.4.3-.7.3z"/></svg><view id="editor-outdent" viewBox="241.09 0 40 40"/><svg viewBox="0 0 40 40" width="40" height="40" x="241.09" xmlns="http://www.w3.org/2000/svg"><path d="M9.2 17.5c.2-.2.5-.3.8-.2.3.1.4.4.4.7v1h5.3c.6 0 1 .4 1 1s-.4 1-1 1h-5.3v1c0 .3-.2.5-.4.7-.1 0-.2.1-.3.1-.2 0-.4-.1-.5-.2l-2-2c-.3-.3-.3-.7 0-1l2-2.1zM20 17h8c.6 0 1-.4 1-1s-.4-1-1-1h-8c-.6 0-1 .4-1 1s.4 1 1 1zm0-4h12c.6 0 1-.4 1-1s-.4-1-1-1H20c-.6 0-1 .4-1 1s.4 1 1 1zm12 10H20c-.6 0-1 .4-1 1s.4 1 1 1h12c.6 0 1-.4 1-1s-.4-1-1-1zm0-4H20c-.6 0-1 .4-1 1s.4 1 1 1h12c.6 0 1-.4 1-1s-.4-1-1-1zm-4 8h-8c-.6 0-1 .4-1 1s.4 1 1 1h8c.6 0 1-.4 1-1s-.4-1-1-1z"/></svg><view id="editor-strikethrough" viewBox="241.09 40 40 40"/><svg viewBox="0 0 40 40" width="40" height="40" x="241.09" y="40" xmlns="http://www.w3.org/2000/svg"><path d="M11.6 17h2.3c-.6-.7-.9-1.7-.9-3 0-2.8 3.1-5 7-5s7 2.2 7 5c0 .6.4 1 1 1s1-.4 1-1c0-3.9-4-7-9-7s-9 3.1-9 7c0 1.2.2 2.2.6 3zM32 19H8c-.6 0-1 .4-1 1s.4 1 1 1h24c.6 0 1-.4 1-1s-.4-1-1-1zm-6 4c.7.7 1 1.6 1 3 0 2.8-3.1 5-7 5s-7-2.2-7-5c0-.6-.4-1-1-1s-1 .4-1 1c0 3.9 4 7 9 7s9-3.1 9-7c0-1.2-.2-2.2-.6-3H26z"/></svg><view id="editor-underline" viewBox="241.09 80 40 40"/><svg viewBox="0 0 40 40" width="40" height="40" x="241.09" y="80" xmlns="http://www.w3.org/2000/svg"><path d="M20 28.5c4.7 0 8.6-3.5 8.6-7.7V8.5c0-.6-.4-1-1-1s-1 .4-1 1v12.3c0 3.1-3 5.7-6.6 5.7-3.6 0-6.6-2.6-6.6-5.7V8.5c0-.6-.4-1-1-1s-1 .4-1 1v12.3c0 4.2 3.9 7.7 8.6 7.7zm12 2H8c-.6 0-1 .4-1 1s.4 1 1 1h24c.6 0 1-.4 1-1s-.4-1-1-1z"/></svg><view id="editor-unlink" viewBox="241.09 120 40 40"/><svg viewBox="0 0 40 40" width="40" height="40" x="241.09" y="120" xmlns="http://www.w3.org/2000/svg"><path d="M11.92 32.986a4.891 4.891 0 0 1-4.916-5.019 5.214 5.214 0 0 1 1.543-3.597l5.883-5.889a1.001 1.001 0 0 1 1.415 1.415l-5.883 5.888a3.221 3.221 0 0 0-.958 2.222 2.91 2.91 0 0 0 .846 2.136 2.808 2.808 0 0 0 2.135.844 3.225 3.225 0 0 0 2.222-.961l5.883-5.888a.999.999 0 1 1 1.414 1.413l-5.882 5.889a5.216 5.216 0 0 1-3.596 1.547h-.106zM27.909 18.67c-.366 0-.738-.038-1.111-.118l-8.141-1.736a1 1 0 1 1 .418-1.957l8.141 1.736c1.7.361 3.372-.656 3.719-2.274.344-1.618-.763-3.23-2.468-3.594l-8.141-1.736a1 1 0 1 1 .418-1.957l8.141 1.736c2.782.594 4.579 3.27 4.006 5.966-.5 2.338-2.616 3.934-4.982 3.934zm-16.913-6.651a1 1 0 0 1-.707-.292l-2.001-2a1 1 0 1 1 1.413-1.415l2.001 1.999a1 1 0 0 1-.706 1.708zm5-.003a1 1 0 0 1-1-1l-.001-2a1 1 0 1 1 2 0l.001 2a1 1 0 0 1-1 1zM8.998 17.02a1 1 0 1 1 0-2l2-.001a1 1 0 1 1 0 2l-2 .001z"/></svg><view id="error" viewBox="241.09 160 40 40"/><svg viewBox="0 0 40 40" width="40" height="40" x="241.09" y="160" xmlns="http://www.w3.org/2000/svg"><path d="M30.1 27.5l-9.2-16c-.4-.6-1.4-.6-1.7 0l-9.2 16c-.2.3-.2.7 0 1 .2.3.5.5.9.5h18.5c.4 0 .7-.2.9-.5s0-.7-.2-1zM12.5 27L20 14l7.5 13h-15z"/><path d="M19 20v4c0 .6.4 1 1 1s1-.4 1-1v-4c0-.6-.4-1-1-1s-1 .4-1 1z"/></svg><view id="external-link" viewBox="241.09 200 40 40"/><svg viewBox="0 0 40 40" width="40" height="40" x="241.09" y="200" xmlns="http://www.w3.org/2000/svg"><path d="M28 21c-.6 0-1 .4-1 1v5H13V13h5c.6 0 1-.4 1-1s-.4-1-1-1h-6c-.6 0-1 .4-1 1v16c0 .6.4 1 1 1h16c.6 0 1-.4 1-1v-6c0-.6-.4-1-1-1z"/><path d="M30.9 9.6c-.1-.2-.3-.4-.5-.5-.1-.1-.3-.1-.4-.1h-8c-.6 0-1 .4-1 1s.4 1 1 1h5.6L17.3 21.3c-.4.4-.4 1 0 1.4.2.2.5.3.7.3s.5-.1.7-.3L29 12.4V18c0 .6.4 1 1 1s1-.4 1-1v-8c0-.1 0-.3-.1-.4z"/></svg><view id="eyedropper" viewBox="0 241.09 40 40"/><svg viewBox="0 0 40 40" width="40" height="40" y="241.09" xmlns="http://www.w3.org/2000/svg"><path d="M28.8 16.8l-.7-.7-.7-.7 1.1-1.1c.8-.8.8-2 0-2.8-.8-.8-2-.8-2.8 0l-1.1 1.1-.7-.7-.7-.7c-.4-.4-1-.4-1.4 0l-1.4 1.4c-.4.4-.4 1 0 1.4l-7.8 7.8c-1.3 1.3-1.5 3.3-.6 4.8l-.8.8c-.4.4-.4 1 0 1.4.2.2.5.3.7.3s.5-.1.7-.3l.8-.8c.6.4 1.3.6 2 .6 1 0 2-.4 2.8-1.2l7.8-7.8c.2.2.5.3.7.3.3 0 .5-.1.7-.3l1.4-1.4c.2-.2.3-.4.3-.7 0-.2-.1-.5-.3-.7zm-10.1 7.3h-.3c-1.4.2-3.5.4-4.8.1h-.1c.1-.4.3-.7.5-1l.6-.6.6.6c.1.1.2.1.4.1s.3 0 .4-.1c.2-.2.2-.5 0-.7l-.6-.6 1.3-1.3.6.6c.1.1.2.1.4.1s.3 0 .4-.1c.2-.2.2-.5 0-.7l-.6-.6 1.3-1.3.6.6c.1.1.2.1.4.1s.3 0 .4-.1c.2-.2.2-.5 0-.7l-.6-.6 2.5-2.5 2.8 2.8-6.2 5.9z"/></svg><view id="facebook" viewBox="40 241.09 40 40"/><svg viewBox="0 0 40 40" width="40" height="40" x="40" y="241.09" xmlns="http://www.w3.org/2000/svg"><path d="M31 8H9c-.6 0-1 .4-1 1v22c0 .6.4 1 1 1h11.8v-9.3h-3.1v-3.6h3.1v-2.7c0-3.1 1.9-4.8 4.7-4.8 1.3 0 2.5.1 2.8.1V15h-1.9c-1.5 0-1.8.7-1.8 1.8v2.3h3.6l-.5 3.6h-3.1V32H31c.6 0 1-.4 1-1V9c0-.6-.4-1-1-1z"/></svg><view id="file" viewBox="80 241.09 40 40"/><svg viewBox="0 0 40 40" width="40" height="40" x="80" y="241.09" xmlns="http://www.w3.org/2000/svg"><path class="bsst0" d="M31 13.9c0-.1 0-.2-.1-.3v-.1c0-.1-.1-.2-.2-.3l-6-6c-.1-.1-.2-.1-.3-.2h-.1c-.1 0-.2 0-.3-.1H10C9.4 7 9 7.4 9 8v24c0 .6.4 1 1 1h20c.6 0 1-.4 1-1V13.9c0 .1 0 .1 0 0zm-3.4-.9H25v-2.6l2.6 2.6zM11 31V9h12v5c0 .6.4 1 1 1h5v16H11z"/><path class="bsst0" d="M15 19.5h7c.3 0 .5-.2.5-.5s-.2-.5-.5-.5h-7c-.3 0-.5.2-.5.5s.2.5.5.5zm10 3H15c-.3 0-.5.2-.5.5s.2.5.5.5h10c.3 0 .5-.2.5-.5s-.2-.5-.5-.5zm0 4H15c-.3 0-.5.2-.5.5s.2.5.5.5h10c.3 0 .5-.2.5-.5s-.2-.5-.5-.5z"/></svg><view id="file-code" viewBox="120 241.09 40 40"/><svg viewBox="0 0 40 40" width="40" height="40" x="120" y="241.09" xmlns="http://www.w3.org/2000/svg"><path d="M31 13.9c0-.1 0-.2-.1-.3v-.1c0-.1-.1-.2-.2-.3l-6-6c-.1-.1-.2-.1-.3-.2h-.1c-.1 0-.2 0-.3-.1H10C9.4 7 9 7.4 9 8v24c0 .6.4 1 1 1h20c.6 0 1-.4 1-1V13.9c0 .1 0 .1 0 0zm-3.4-.9H25v-2.6l2.6 2.6zM11 31V9h12v5c0 .6.4 1 1 1h5v16H11z"/><path d="M16.9 27c.2.1.5.2.9.2l-.1 1.1c-.9 0-1.5-.1-1.9-.4-.4-.3-.6-.8-.6-1.4v-1.9c0-.4-.1-.8-.3-1-.2-.2-.6-.3-1-.3v-1.1c.5 0 .8-.1 1-.3.2-.2.3-.5.3-1V19c0-.6.2-1.1.6-1.4.4-.3 1-.4 1.9-.4l.1 1.1c-.4 0-.7.1-.9.2s-.3.3-.3.7v2.1c0 .4-.1.7-.3 1-.2.2-.5.4-1 .5.4.1.7.3 1 .5.2.2.3.6.3 1v2.1c0 .2.1.4.3.6zm8.2-5.2c.2.2.6.3 1 .3v1.1c-.5 0-.8.1-1 .3-.2.2-.3.5-.3 1v1.9c0 .6-.2 1.1-.6 1.4s-1 .4-1.9.4l-.1-1.1c.4 0 .8-.1.9-.2.2-.1.3-.3.3-.7v-2.1c0-.4.1-.7.3-1s.5-.4 1-.5c-.4-.1-.7-.3-1-.5s-.3-.6-.3-1V19c0-.3-.1-.5-.3-.7s-.5-.2-.9-.2l.1-1.1c.9 0 1.5.1 1.9.4s.6.8.6 1.4v1.9c0 .6.1.9.3 1.1z"/></svg><view id="file-code-xml" viewBox="160 241.09 40 40"/><svg viewBox="0 0 40 40" width="40" height="40" x="160" y="241.09" xmlns="http://www.w3.org/2000/svg"><path class="bust0" d="M30.988 13.938a.986.986 0 0 0-.052-.259c-.01-.032-.019-.062-.033-.093a.989.989 0 0 0-.196-.293l-6-6a.989.989 0 0 0-.292-.195c-.032-.015-.064-.024-.097-.035a.987.987 0 0 0-.253-.05C24.043 7.01 24.022 7 24 7H10a1 1 0 0 0-1 1v24a1 1 0 0 0 1 1h20a1 1 0 0 0 1-1V14c0-.021-.01-.04-.012-.062zM25 10.415L27.586 13H25v-2.586zM29 31H11V9h12v5a1 1 0 0 0 1 1h5v16z"/><path class="bust0" d="M17.447 20.276a.5.5 0 0 0-.67-.223l-3 1.5c-.02.01-.03.025-.048.037a.476.476 0 0 0-.078.06.482.482 0 0 0-.063.081c-.01.016-.026.028-.035.045-.006.011-.005.023-.01.034a.48.48 0 0 0-.026.099.463.463 0 0 0-.012.091c0 .03.006.06.012.091a.48.48 0 0 0 .027.099c.004.01.003.023.009.034.006.012.019.016.025.027.035.058.08.107.136.148.015.01.027.024.043.033.007.004.012.011.02.015l3 1.5a.501.501 0 0 0 .447-.894L15.118 22l2.106-1.053a.5.5 0 0 0 .223-.67zm5.106 0a.5.5 0 0 0 .223.671L24.882 22l-2.106 1.053a.5.5 0 0 0 .448.894l3-1.5.02-.015c.015-.01.026-.022.041-.033a.485.485 0 0 0 .136-.147c.007-.012.02-.016.026-.028.006-.011.005-.023.01-.035a.49.49 0 0 0 .026-.097c.006-.031.012-.06.012-.092 0-.03-.006-.06-.012-.092a.49.49 0 0 0-.026-.097c-.005-.012-.004-.023-.01-.035-.009-.018-.025-.03-.036-.046a.484.484 0 0 0-.061-.079.482.482 0 0 0-.082-.063c-.016-.011-.027-.026-.044-.035l-3-1.5a.502.502 0 0 0-.671.223zm-1.682-1.761a.497.497 0 0 0-.606.364l-1.5 6a.5.5 0 1 0 .97.242l1.5-6a.5.5 0 0 0-.364-.606z"/></svg><view id="file-multiple" viewBox="200 241.09 40 40"/><svg viewBox="0 0 40 40" width="40" height="40" x="200" y="241.09" xmlns="http://www.w3.org/2000/svg"><path d="M33.238 15.688a.98.98 0 0 0-.052-.259.986.986 0 0 0-.23-.386l-6-6a.984.984 0 0 0-.291-.195c-.032-.015-.064-.023-.096-.035a.98.98 0 0 0-.254-.05c-.022-.002-.042-.013-.065-.013h-14a1 1 0 0 0-1 1v24a1 1 0 0 0 1 1h20a1 1 0 0 0 1-1v-18c0-.021-.01-.04-.012-.062zm-3.402-.938H27.25v-2.586l2.586 2.586zm-16.586 18v-22h12v5a1 1 0 0 0 1 1h5v16h-18z"/><path d="M17.25 21.25h7a.5.5 0 1 0 0-1h-7a.5.5 0 1 0 0 1zm10 3h-10a.5.5 0 1 0 0 1h10a.5.5 0 1 0 0-1zm0 4h-10a.5.5 0 1 0 0 1h10a.5.5 0 1 0 0-1zm-5.5-22.5a.5.5 0 0 0-.5-.5h-14a.5.5 0 0 0-.5.5v24a.5.5 0 1 0 1 0V6.25h13.5a.5.5 0 0 0 .5-.5z"/></svg><view id="file-spreadsheet" viewBox="240 241.09 40 40"/><svg viewBox="0 0 40 40" width="40" height="40" x="240" y="241.09" xmlns="http://www.w3.org/2000/svg"><path class="bwst0" d="M30.988 13.938a.986.986 0 0 0-.052-.259c-.01-.032-.019-.062-.033-.093a.989.989 0 0 0-.196-.293l-6-6a.986.986 0 0 0-.292-.196c-.031-.014-.063-.022-.096-.034a.984.984 0 0 0-.255-.05C24.042 7.01 24.022 7 24 7H10a1 1 0 0 0-1 1v24a1 1 0 0 0 1 1h20a1 1 0 0 0 1-1V14c0-.021-.01-.04-.012-.062zM27.586 13H25v-2.586L27.586 13zM11 31V9h12v5a1 1 0 0 0 1 1h5v16H11z"/><path class="bwst0" d="M26 16.5H14a.5.5 0 0 0-.5.5v12a.5.5 0 0 0 .5.5h12a.5.5 0 0 0 .5-.5V17a.5.5 0 0 0-.5-.5zm-11.5 5h3v3h-3v-3zm4 0h3v3h-3v-3zm4 0h3v3h-3v-3zm3-1h-3v-3h3v3zm-11 5h3v3h-3v-3zm4 0h3v3h-3v-3zm7 3h-3v-3h3v3z"/></svg><view id="file-text" viewBox="281.09000000000003 0 40 40"/><svg viewBox="0 0 40 40" width="40" height="40" x="281.09000000000003" xmlns="http://www.w3.org/2000/svg"><path d="M31 13.9c0-.1 0-.2-.1-.3v-.1c0-.1-.1-.2-.2-.3l-6-6c-.1-.1-.2-.1-.3-.2h-.1c-.1 0-.2 0-.3-.1H10C9.4 7 9 7.4 9 8v24c0 .6.4 1 1 1h20c.6 0 1-.4 1-1V13.9c0 .1 0 .1 0 0zm-6-3.5l2.6 2.6H25zM29 31H11V9h12v5c0 .6.4 1 1 1h5z"/><path d="M14 18.3h2.7v6.6h1.7v-6.6H21V17h-7zm11.9 1.8v-1.2H24v-1.8l-1.6.5V19h-1.1v1.2h1.1v3.1c0 1.2.7 1.8 2 1.8.3 0 .6 0 .9-.1s.5-.2.7-.4l-.3-1.1c-.3.2-.6.3-.9.3-.6 0-.8-.3-.8-.8v-2.8h1.9z"/></svg><view id="file-zip" viewBox="41.09 0 40 40"/><svg viewBox="0 0 40 40" width="40" height="40" x="41.09" xmlns="http://www.w3.org/2000/svg"><path class="byst0" d="M30.988 13.938a.986.986 0 0 0-.052-.259c-.01-.032-.019-.062-.033-.093a.989.989 0 0 0-.196-.293l-6-6a.989.989 0 0 0-.292-.195c-.032-.015-.064-.024-.097-.035a.987.987 0 0 0-.253-.05C24.043 7.01 24.022 7 24 7H10a1 1 0 0 0-1 1v24a1 1 0 0 0 1 1h20a1 1 0 0 0 1-1V14c0-.021-.01-.04-.012-.062zM25 10.415L27.586 13H25v-2.586zM29 31H11V9h4.5v1.5H14a.5.5 0 1 0 0 1h1.5v3H14a.5.5 0 1 0 0 1h1.5v3H14a.5.5 0 1 0 0 1h1.5V21a.5.5 0 0 0 .5.5h2a.5.5 0 1 0 0-1h-1.5v-3H18a.5.5 0 1 0 0-1h-1.5v-3H18a.5.5 0 1 0 0-1h-1.5V9H23v5a1 1 0 0 0 1 1h5v16z"/><path class="byst0" d="M17.5 24h-2a.5.5 0 0 0-.5.5v3a.5.5 0 0 0 .5.5h2a.5.5 0 0 0 .5-.5v-3a.5.5 0 0 0-.5-.5zm-.5 3h-1v-2h1v2z"/></svg><view id="github" viewBox="281.09000000000003 80 40 40"/><svg viewBox="0 0 40 40" width="40" height="40" x="281.09000000000003" y="80" xmlns="http://www.w3.org/2000/svg"><path d="M20 8.6c-6.6 0-12 5.4-12 12 0 5.3 3.4 9.8 8.2 11.4.6.1.8-.3.8-.6v-2c-3.3.7-4-1.6-4-1.6-.5-1.4-1.3-1.8-1.3-1.8-1.1-.7.1-.7.1-.7 1.2.1 1.8 1.2 1.8 1.2 1.1 1.8 2.8 1.3 3.5 1 .1-.8.4-1.3.8-1.6-2.7-.3-5.5-1.3-5.5-5.9 0-1.3.5-2.4 1.2-3.2-.1-.3-.5-1.5.1-3.2 0 0 1-.3 3.3 1.2 1-.3 2-.4 3-.4s2 .1 3 .4c2.3-1.6 3.3-1.2 3.3-1.2.7 1.7.2 2.9.1 3.2.8.8 1.2 1.9 1.2 3.2 0 4.6-2.8 5.6-5.5 5.9.4.4.8 1.1.8 2.2v3.3c0 .3.2.7.8.6 4.8-1.6 8.2-6.1 8.2-11.4.1-6.6-5.3-12-11.9-12z"/></svg><view id="grid" viewBox="281.09000000000003 120 40 40"/><svg viewBox="0 0 40 40" width="40" height="40" x="281.09000000000003" y="120" xmlns="http://www.w3.org/2000/svg"><path d="M18 9h-8a1 1 0 0 0-1 1v8a1 1 0 0 0 1 1h8a1 1 0 0 0 1-1v-8a1 1 0 0 0-1-1zm-1 8h-6v-6h6v6zm13-8h-8a1 1 0 0 0-1 1v8a1 1 0 0 0 1 1h8a1 1 0 0 0 1-1v-8a1 1 0 0 0-1-1zm-1 8h-6v-6h6v6zm1 4h-8a1 1 0 0 0-1 1v8a1 1 0 0 0 1 1h8a1 1 0 0 0 1-1v-8a1 1 0 0 0-1-1zm-1 8h-6v-6h6v6zm-11-8h-8a1 1 0 0 0-1 1v8a1 1 0 0 0 1 1h8a1 1 0 0 0 1-1v-8a1 1 0 0 0-1-1zm-1 8h-6v-6h6v6z"/></svg><view id="home" viewBox="281.09000000000003 160 40 40"/><svg viewBox="0 0 40 40" width="40" height="40" x="281.09000000000003" y="160" xmlns="http://www.w3.org/2000/svg"><path d="M32.7 21.8l-3-3-9-9c-.4-.4-1-.4-1.4 0l-9 9-3 3c-.4.4-.4 1 0 1.4.2.2.5.3.7.3s.5-.1.7-.3l1.3-1.3v7.6c0 .6.4 1 1 1h18c.6 0 1-.4 1-1v-7.6l1.3 1.3c.2.2.5.3.7.3s.5-.1.7-.3c.4-.4.4-1 0-1.4zM18 28.5v-6.2h4v6.2h-4zm10 0h-4v-7.2c0-.6-.4-1-1-1h-6c-.6 0-1 .4-1 1v7.2h-4v-8.6l8-8 8 8v8.6z"/></svg><view id="image" viewBox="281.09000000000003 200 40 40"/><svg viewBox="0 0 40 40" width="40" height="40" x="281.09000000000003" y="200" xmlns="http://www.w3.org/2000/svg"><path d="M32 9H8c-.6 0-1 .5-1 1v20c0 .6.5 1 1 1h24c.6 0 1-.5 1-1V10c0-.6-.4-1-1-1zm-1 2v9.5l-6.2-3.1c-.5-.2-1.1-.1-1.5.2l-6.7 6.7c-.4.4-1 .5-1.5.2l-5.3-2.7c-.3-.1-.6-.2-.8-.1V11h22z"/><path d="M15 22c2.8 0 5-2.3 5-5s-2.3-5-5-5-5 2.3-5 5 2.2 5 5 5zm0-8c1.6 0 3 1.3 3 3s-1.3 3-3 3-3-1.3-3-3 1.4-3 3-3z"/></svg><view id="install" viewBox="281.09000000000003 240 40 40"/><svg viewBox="0 0 40 40" width="40" height="40" x="281.09000000000003" y="240" xmlns="http://www.w3.org/2000/svg"><path d="M32 23c-.6 0-1 .4-1 1v7H9v-7c0-.6-.4-1-1-1s-1 .4-1 1v8c0 .6.4 1 1 1h24c.6 0 1-.4 1-1v-8c0-.6-.4-1-1-1z"/><path d="M19.5 24.5c.1.1.3.2.5.2s.4-.1.5-.2l4-4c.2-.2.3-.5.2-.8s-.4-.4-.7-.4h-3V8c0-.6-.4-1-1-1s-1 .4-1 1v11.3h-3c-.3 0-.5.2-.7.4-.1.3 0 .6.2.8l4 4zM12 29h16c.6 0 1-.4 1-1s-.4-1-1-1H12c-.6 0-1 .4-1 1s.4 1 1 1zm16-16c.6 0 1-.4 1-1V8c0-.6-.4-1-1-1s-1 .4-1 1v4c0 .6.4 1 1 1zm-16 0c.6 0 1-.4 1-1V8c0-.6-.4-1-1-1s-1 .4-1 1v4c0 .6.4 1 1 1z"/></svg><view id="lightbulb" viewBox="0 281.09000000000003 40 40"/><svg viewBox="0 0 40 40" width="40" height="40" y="281.09000000000003" xmlns="http://www.w3.org/2000/svg"><path d="M20 7c-4.962 0-9 4.038-9 9 0 4.527 1.518 5.908 2.985 7.243.439.399.854.777 1.236 1.251a.998.998 0 0 0 1.405.152 1 1 0 0 0 .152-1.406c-.479-.595-.972-1.043-1.448-1.477C14.028 20.579 13 19.643 13 16c0-3.86 3.14-7 7-7 3.859 0 7 3.14 7 7 0 3.643-1.028 4.579-2.331 5.764-.477.434-.969.882-1.448 1.477a1 1 0 0 0 1.558 1.254c.381-.474.796-.852 1.235-1.251C27.482 21.908 29 20.527 29 16c0-4.962-4.037-9-9-9z"/><path d="M21 12a1 1 0 0 0-1-1c-2.757 0-5 2.243-5 5a1 1 0 0 0 2 0c0-1.654 1.346-3 3-3a1 1 0 0 0 1-1zm3 15h-8a1 1 0 1 0 0 2h8a1 1 0 1 0 0-2zm-1 4h-6a1 1 0 1 0 0 2h6a1 1 0 1 0 0-2z"/></svg><view id="loading" viewBox="40 281.09000000000003 40 40"/><svg viewBox="0 0 40 40" width="40" height="40" x="40" y="281.09000000000003" xmlns="http://www.w3.org/2000/svg"><path d="M6 21c-.6 0-1-.4-1-1 0-8.3 6.7-15 15-15 .6 0 1 .4 1 1s-.4 1-1 1C12.8 7 7 12.8 7 20c0 .6-.4 1-1 1zm14 14c-.6 0-1-.4-1-1s.4-1 1-1c7.2 0 13-5.8 13-13 0-.6.4-1 1-1s1 .4 1 1c0 8.3-6.7 15-15 15zm0-5c-5.5 0-10-4.5-10-10 0-.6.4-1 1-1s1 .4 1 1c0 4.4 3.6 8 8 8 .6 0 1 .4 1 1s-.4 1-1 1zm9-9c-.6 0-1-.4-1-1 0-4.4-3.6-8-8-8-.6 0-1-.4-1-1s.4-1 1-1c5.5 0 10 4.5 10 10 0 .6-.4 1-1 1z"/></svg><view id="location" viewBox="80 281.09000000000003 40 40"/><svg viewBox="0 0 40 40" width="40" height="40" x="80" y="281.09000000000003" xmlns="http://www.w3.org/2000/svg"><path d="M20 7c-5 0-9 4-9 9 0 4.6 7.3 15.4 8.2 16.6.2.3.5.4.8.4s.6-.2.8-.4c.8-1.2 8.2-12 8.2-16.6 0-5-4-9-9-9zm0 23.2C17.5 26.4 13 19 13 16c0-3.9 3.1-7 7-7s7 3.1 7 7c0 3-4.5 10.4-7 14.2z"/><path d="M20 12c-2.2 0-4 1.8-4 4s1.8 4 4 4 4-1.8 4-4-1.8-4-4-4zm0 6c-1.1 0-2-.9-2-2s.9-2 2-2 2 .9 2 2-.9 2-2 2z"/></svg><view id="lock" viewBox="120 281.09000000000003 40 40"/><svg viewBox="0 0 40 40" width="40" height="40" x="120" y="281.09000000000003" xmlns="http://www.w3.org/2000/svg"><path d="M26 17.8v-3c-.3-3.1-2.8-5.5-6-5.5s-5.7 2.4-6 5.5v3c-1.7 0-3 1.3-3 3v7c0 1.7 1.3 3 3 3h12c1.7 0 3-1.3 3-3v-7c0-1.7-1.3-3-3-3zm-10-2.6c0-2.2 1.8-4 4-4s4 1.8 4 4v2.5h-8v-2.5zm11 12.6c0 .6-.4 1-1 1H14c-.6 0-1-.4-1-1v-7c0-.6.4-1 1-1h12c.6 0 1 .4 1 1v7z"/><path d="M20 21.2c-.6 0-1 .4-1 1v4c0 .6.4 1 1 1s1-.4 1-1v-4c0-.5-.4-1-1-1z"/></svg><view id="mail" viewBox="160 281.09000000000003 40 40"/><svg viewBox="0 0 40 40" width="40" height="40" x="160" y="281.09000000000003" xmlns="http://www.w3.org/2000/svg"><path d="M31.3 12.7c-.1-.1-.1-.3-.3-.4-.5-.4-1.2-.7-1.8-.7H10.8c-.7 0-1.3.2-1.8.7-.1.1-.2.2-.3.4-.4.5-.7 1.2-.7 2v10.9c0 1.6 1.3 2.8 2.8 2.8h18.4c1.6 0 2.8-1.3 2.8-2.8V14.7c0-.8-.3-1.5-.7-2zm-21.3 2l4.7 4-4.7 3.1v-7.1zm20 0v7.1l-4.7-3.1 4.7-4zm-1.9-1L20 20.5l-8.1-6.9h16.2zM11 26.3c-.6 0-1-.4-1-1v-1.1l6.3-4.2 3.1 2.6c.1 0 .1.1.2.1l.1.1c.2.1.5.1.7 0 0 0 .1 0 .1-.1.1 0 .1-.1.2-.1l3.1-2.6 6.3 4.2v1.1c0 .6-.4 1-1 1H11z"/></svg><view id="menu" viewBox="200 281.09000000000003 40 40"/><svg viewBox="0 0 40 40" width="40" height="40" x="200" y="281.09000000000003" xmlns="http://www.w3.org/2000/svg"><path d="M40 12c0-.6-.4-1-1-1H19c-.6 0-1 .4-1 1s.4 1 1 1h20c.6 0 1-.4 1-1zm-1 7H23c-.6 0-1 .4-1 1s.4 1 1 1h16c.6 0 1-.4 1-1s-.4-1-1-1zm0 8H27c-.6 0-1 .4-1 1s.4 1 1 1h12c.6 0 1-.4 1-1s-.4-1-1-1z"/></svg><view id="menu-context" viewBox="240 281.09000000000003 40 40"/><svg viewBox="0 0 40 40" width="40" height="40" x="240" y="281.09000000000003" xmlns="http://www.w3.org/2000/svg"><circle cx="12" cy="20" r="2"/><circle cx="20" cy="20" r="2"/><circle cx="28" cy="20" r="2"/></svg><view id="menu-left" viewBox="280 281.09000000000003 40 40"/><svg viewBox="0 0 40 40" width="40" height="40" x="280" y="281.09000000000003" xmlns="http://www.w3.org/2000/svg"><path d="M1 13h20c.6 0 1-.4 1-1s-.4-1-1-1H1c-.6 0-1 .4-1 1s.4 1 1 1zm-1 7c0 .6.4 1 1 1h16c.6 0 1-.4 1-1s-.4-1-1-1H1c-.6 0-1 .4-1 1zm0 8c0 .6.4 1 1 1h12c.6 0 1-.4 1-1s-.4-1-1-1H1c-.6 0-1 .4-1 1z"/></svg><view id="messages" viewBox="321.09000000000003 0 40 40"/><svg viewBox="0 0 40 40" width="40" height="40" x="321.09000000000003" xmlns="http://www.w3.org/2000/svg"><path d="M30 9.355H17c-1.654 0-3 1.346-3 3v1h-4c-1.654 0-3 1.346-3 3v8c0 1.654 1.346 3 3 3h1v1.785a1.5 1.5 0 0 0 1.505 1.504c.391 0 .773-.153 1.061-.441l2.849-2.848H23a3.004 3.004 0 0 0 2.76-1.826l.673.673a1.497 1.497 0 0 0 1.638.328c.565-.233.929-.779.929-1.389v-1.785h1c1.654 0 3-1.346 3-3v-8a3.004 3.004 0 0 0-3-3.001zM24 23.77v.586a1 1 0 0 1-1 1h-7a.996.996 0 0 0-.707.293L13 27.941v-1.585a1 1 0 0 0-1-1h-2a1 1 0 0 1-1-1v-8a1 1 0 0 1 1-1h4v5c0 1.654 1.346 3 3 3h6.586l.414.414zm7-3.414a1 1 0 0 1-1 1h-2a1 1 0 0 0-1 1v1.585l-2.293-2.292a.997.997 0 0 0-.707-.293h-7a1 1 0 0 1-1-1v-8c0-.551.448-1 1-1h13c.552 0 1 .449 1 1v8z"/></svg><view id="nodejs" viewBox="321.09000000000003 40 40 40"/><svg viewBox="0 0 40 40" width="40" height="40" x="321.09000000000003" y="40" xmlns="http://www.w3.org/2000/svg"><path d="M32.6 12.2l-12-6.9c-.3-.2-.7-.2-1 0l-12 6.9c-.3.2-.5.5-.5.9V27c0 .4.2.7.5.9l3.9 2.3c1.5.9 2.9.3 3.7-.5.8-.8 1.2-1.8 1.2-3.2V14.1H14V26c0 .9-.2 1.6-.5 2.1-.3.4-.6.4-1.3 0L9 26.3V13.6l11-6.4 11 6.4v12.7l-11 6.4-2.8-1.7c-.5-.3-1.1-.1-1.4.4-.3.5-.1 1.1.4 1.4l3.4 2c.2.1.3.1.5.1s.3 0 .5-.1l12-6.9c.3-.2.5-.5.5-.9V13.1c0-.4-.2-.7-.5-.9z"/><path d="M24.9 23.5c-.4.2-.9.3-1.7.3-.8 0-1.5-.1-2-.4-.5-.3-1-.8-1.5-1.4l-1.4 1.7c.5.7 1.1 1.2 1.9 1.6.8.3 1.8.5 3.1.5.9 0 1.7-.1 2.4-.4.7-.3 1.3-.7 1.6-1.2.4-.5.6-1.1.6-1.8 0-.6-.1-1.2-.4-1.6-.3-.4-.7-.8-1.3-1.1-.6-.3-1.4-.5-2.4-.7-1-.2-1.7-.4-2-.6-.4-.2-.6-.5-.6-.9s.2-.8.6-1c.4-.3.9-.4 1.6-.4.8 0 1.4.2 1.9.5s.9.8 1.2 1.4l1.6-1.6c-.6-.8-1.2-1.3-2-1.7-.8-.3-1.7-.5-2.7-.5-.9 0-1.8.2-2.5.5s-1.2.7-1.6 1.3c-.4.5-.5 1.2-.5 1.8 0 .6.1 1.2.4 1.6.3.4.7.8 1.4 1.1.6.3 1.5.6 2.5.8.9.2 1.6.4 1.9.6s.5.5.5.8c0 .3-.2.6-.6.8z"/></svg><view id="opensource" viewBox="321.09000000000003 80 40 40"/><svg viewBox="0 0 40 40" width="40" height="40" x="321.09000000000003" y="80" xmlns="http://www.w3.org/2000/svg"><path d="M19.5 8.6C13.4 8.9 8.3 13.9 8 20.1c-.2 4.8 2.3 9 6.2 11.1 1 .5 2.3 0 2.6-1l1.4-4.2c.3-.8 0-1.6-.7-2.1-1.2-.9-1.9-2.5-1.4-4.2.4-1.4 1.5-2.5 2.9-2.9 2.6-.6 5 1.4 5 3.9 0 1.3-.6 2.5-1.6 3.2-.6.5-.9 1.3-.7 2.1l1.4 4.2c.4 1.1 1.6 1.6 2.6 1 3.7-2 6.2-6 6.2-10.5.1-6.9-5.5-12.3-12.4-12.1z"/></svg><view id="organization" viewBox="321.09000000000003 120 40 40"/><svg viewBox="0 0 40 40" width="40" height="40" x="321.09000000000003" y="120" xmlns="http://www.w3.org/2000/svg"><path d="M34.2 15L23 13.2V10c0-.5-.4-.9-.9-1l-16-2c-.3 0-.5.1-.8.3-.2.1-.3.4-.3.7v24c0 .6.4 1 1 1h28c.6 0 1-.4 1-1V16c0-.5-.4-.9-.8-1zM7 9.1l14 1.8V31h-4v-5c0-.6-.4-1-1-1h-4c-.6 0-1 .4-1 1v5H7V9.1zM13 31v-4h2v4h-2zm14 0v-4h2v4h-2zm6 0h-2v-5c0-.6-.4-1-1-1h-4c-.6 0-1 .4-1 1v5h-2V15.2l10 1.7V31z"/><path d="M10 13.8h2c.6 0 1-.4 1-1s-.4-1-1-1h-2c-.6 0-1 .4-1 1s.4 1 1 1zm0 4h2c.6 0 1-.4 1-1s-.4-1-1-1h-2c-.6 0-1 .4-1 1s.4 1 1 1zm2 4c.6 0 1-.4 1-1s-.4-1-1-1h-2c-.6 0-1 .4-1 1s.4 1 1 1h2zm4-8h2c.6 0 1-.4 1-1s-.4-1-1-1h-2c-.6 0-1 .4-1 1s.4 1 1 1zm0 4h2c.6 0 1-.4 1-1s-.4-1-1-1h-2c-.6 0-1 .4-1 1s.4 1 1 1zm0 4h2c.6 0 1-.4 1-1s-.4-1-1-1h-2c-.6 0-1 .4-1 1s.4 1 1 1zm9.9 0h4c.6 0 1-.4 1-1s-.4-1-1-1h-4c-.6 0-1 .4-1 1s.5 1 1 1z"/></svg><view id="page" viewBox="321.09000000000003 160 40 40"/><svg viewBox="0 0 40 40" width="40" height="40" x="321.09000000000003" y="160" xmlns="http://www.w3.org/2000/svg"><path d="M29 16c0-.1 0-.3-.1-.4-.1-.1-.1-.2-.2-.3l-7.4-7.2-.1-.1c-.1 0-.2-.1-.2-.1h-6.5c-1.9 0-3.4 1.5-3.4 3.4v17.6c0 1.9 1.5 3.4 3.4 3.4h11.2c1.9 0 3.4-1.5 3.4-3.4L29 16zm-7.4-4.8l3.9 3.8h-3.9v-3.8zm4 19H14.4c-.8 0-1.4-.6-1.4-1.4V11.2c0-.8.6-1.4 1.4-1.4h5.2V16c0 .3.1.5.3.7.2.2.4.3.7.3H27v11.8c0 .8-.6 1.4-1.4 1.4z"/><path d="M24 26h-8c-.6 0-1 .4-1 1s.4 1 1 1h8c.6 0 1-.4 1-1s-.4-1-1-1zm0-4h-8c-.6 0-1 .4-1 1s.4 1 1 1h8c.6 0 1-.4 1-1s-.4-1-1-1zm-8-2h4c.6 0 1-.4 1-1s-.4-1-1-1h-4c-.6 0-1 .4-1 1s.4 1 1 1z"/></svg><view id="phone" viewBox="321.09000000000003 200 40 40"/><svg viewBox="0 0 40 40" width="40" height="40" x="321.09000000000003" y="200" xmlns="http://www.w3.org/2000/svg"><path d="M30.7 26.2l-2.8-2.8c-.3-.3-.8-.4-1.2-.2l-2.8 1.4c-.1 0-.1.1-.2.1-.5 0-2.6-1-5-3.4-2.5-2.5-3.4-4.5-3.4-5 0 0 .1-.1.1-.2l1.4-2.8c.2-.4.1-.9-.2-1.2l-2.8-2.8c-.4-.4-1-.4-1.4 0l-2.1 2.1c-1.4 1.4-1.7 3.7-.8 6.5.8 2.5 2.6 5.2 5 7.6C18 29 22.1 31 25.1 31c1.4 0 2.6-.4 3.5-1.3l2.1-2.1c.4-.4.4-1 0-1.4zm-3.5 2.1c-.8.8-2.5.9-4.4.3-2.2-.7-4.7-2.3-6.8-4.5-2.1-2.1-3.7-4.6-4.5-6.8-.7-2-.6-3.6.3-4.4l1.4-1.4 1.6 1.6-1 2.1c-1.7 2.1 3.1 7 3.6 7.6.6.6 5.5 5.3 7.6 3.6l2.1-1 1.6 1.6-1.5 1.3z"/></svg><view id="pin" viewBox="321.09000000000003 240 40 40"/><svg viewBox="0 0 40 40" width="40" height="40" x="321.09000000000003" y="240" xmlns="http://www.w3.org/2000/svg"><path d="M30.3 20.2l-9.9-9.9c-.4-.4-1-.4-1.4 0-.2.2-.3.5-.3.7s.1.5.3.7l1.4 1.4-7.1 7.1-1.4-1.4c-.4-.4-1-.4-1.4 0s-.4 1 0 1.4l4.2 4.2-4.9 4.9c-.4.4-.4 1 0 1.4.2.2.5.3.7.3s.5-.1.7-.3l4.9-4.9 4.2 4.2c.2.2.5.3.7.3s.5-.1.7-.3c.4-.4.4-1 0-1.4l-1.4-1.4 7.1-7.1 1.4 1.4c.2.2.5.3.7.3s.5-.1.7-.3.3-.5.3-.7 0-.4-.2-.6zM19 25.8l-4.2-4.2 7.1-7.1 4.2 4.2-7.1 7.1z"/></svg><view id="plugin" viewBox="321.09000000000003 280 40 40"/><svg viewBox="0 0 40 40" width="40" height="40" x="321.09000000000003" y="280" xmlns="http://www.w3.org/2000/svg"><path d="M30.6 13.4c-.4-.4-1-.4-1.4 0l-3.3 3.3-2.6-2.6 3.3-3.3c.4-.4.4-1 0-1.4s-1-.4-1.4 0l-3.3 3.3-1.5-1.5c-.4-.4-1-.4-1.4 0-1.3 1.3-2.1 3.1-2.1 4.9 0 1.5.5 3 1.4 4.2l-8.9 8.9c-.4.4-.4 1 0 1.4.2.2.5.3.7.3s.5-.1.7-.3l8.9-8.9c1.2.9 2.7 1.4 4.2 1.4 1.8 0 3.6-.7 4.9-2 .2-.2.3-.4.3-.7s-.1-.5-.3-.7l-1.5-1.5 3.3-3.3c.4-.5.4-1.1 0-1.5z"/></svg><view id="radio-checked" viewBox="0 321.09000000000003 40 40"/><svg viewBox="0 0 40 40" width="40" height="40" y="321.09000000000003" xmlns="http://www.w3.org/2000/svg"><path d="M20 33c-7.168 0-13-5.832-13-13S12.832 7 20 7s13 5.832 13 13-5.832 13-13 13zm0-24C13.935 9 9 13.935 9 20s4.935 11 11 11 11-4.935 11-11S26.065 9 20 9z"/><circle cx="20" cy="20" r="8"/></svg><view id="radio-unchecked" viewBox="40 321.09000000000003 40 40"/><svg viewBox="0 0 40 40" width="40" height="40" x="40" y="321.09000000000003" xmlns="http://www.w3.org/2000/svg"><path d="M20 33c-7.168 0-13-5.832-13-13S12.832 7 20 7s13 5.832 13 13-5.832 13-13 13zm0-24C13.935 9 9 13.935 9 20s4.935 11 11 11 11-4.935 11-11S26.065 9 20 9z"/></svg><view id="refresh" viewBox="80 321.09000000000003 40 40"/><svg viewBox="0 0 40 40" width="40" height="40" x="80" y="321.09000000000003" xmlns="http://www.w3.org/2000/svg"><path d="M26.4 13.6c-1.7-1.7-4-2.6-6.4-2.6-2.2 0-4.2.8-5.8 2.2l-.7-.7c-.2-.2-.5-.3-.8-.2-.3.1-.4.4-.4.7v2.8c0 .2.1.4.2.5.1.1.3.2.5.2h2.8c.3 0 .5-.2.7-.4.1-.3 0-.6-.2-.8l-.7-.7c1.2-1 2.8-1.6 4.4-1.6 1.9 0 3.6.7 5 2.1 1.3 1.3 2 3 2 4.7 0 .5.5 1 1 1 .6 0 1-.5 1-1-.1-2.4-1-4.5-2.6-6.2zm.7 9.9h-2.8c-.3 0-.5.2-.7.4-.1.3 0 .6.2.8l.7.7c-2.7 2.2-6.8 2.1-9.4-.5-1.3-1.3-2-3-2-4.7 0-.6-.5-1-1-1-.6 0-1 .5-1 1 .1 2.3 1 4.5 2.6 6.1 1.8 1.8 4.1 2.6 6.4 2.6 2.1 0 4.2-.7 5.8-2.2l.7.7c.1.1.3.2.5.2.1 0 .2 0 .3-.1.3-.1.4-.4.4-.7V24c0-.1-.3-.5-.7-.5z"/></svg><view id="remove" viewBox="120 321.09000000000003 40 40"/><svg viewBox="0 0 40 40" width="40" height="40" x="120" y="321.09000000000003" xmlns="http://www.w3.org/2000/svg"><path d="M20 9C13.9 9 9 13.9 9 20s4.9 11 11 11 11-4.9 11-11S26.1 9 20 9zm0 20c-5 0-9-4-9-9s4-9 9-9 9 4 9 9-4 9-9 9z"/><path d="M25 19H15c-.6 0-1 .4-1 1s.4 1 1 1h10c.6 0 1-.4 1-1s-.4-1-1-1z"/></svg><view id="reorder" viewBox="160 321.09000000000003 40 40"/><svg viewBox="0 0 40 40" width="40" height="40" x="160" y="321.09000000000003" xmlns="http://www.w3.org/2000/svg"><path d="M27.5 15.77h-15c-.43 0-.77-.35-.77-.77s.35-.77.77-.77h15c.43 0 .77.34.77.77s-.34.77-.77.77zm0 5h-15c-.43 0-.77-.35-.77-.77s.35-.77.77-.77h15c.43 0 .77.34.77.77s-.34.77-.77.77zm0 5h-15c-.43 0-.77-.35-.77-.77s.35-.77.77-.77h15c.43 0 .77.34.77.77s-.34.77-.77.77z"/></svg><view id="reorganise" viewBox="200 321.09000000000003 40 40"/><svg viewBox="0 0 40 40" width="40" height="40" x="200" y="321.09000000000003" xmlns="http://www.w3.org/2000/svg"><path d="M17.5 17v-6c0-1.1-.9-2-2-2h-6c-1.1 0-2 .9-2 2v6c0 1.1.9 2 2 2h6c1.1 0 2-.9 2-2zm-8-6h6v6h-6v-6z"/><path d="M31.5 12h-6v-1c0-.3-.2-.7-.5-.9s-.7-.2-1 0l-4 2c-.3.2-.6.5-.6.9s.2.7.6.9l4 2c.1.1.3.1.4.1.2 0 .4-.1.5-.1.3-.2.5-.5.5-.9v-1h5v11h-5v-2c0-1.1-.9-2-2-2h-6c-1.1 0-2 .9-2 2v6c0 1.1.9 2 2 2h6c1.1 0 2-.9 2-2v-2h6c.6 0 1-.4 1-1V13c.1-.6-.3-1-.9-1zm-14 17v-6h6v6h-6z"/></svg><view id="search" viewBox="240 321.09000000000003 40 40"/><svg viewBox="0 0 40 40" width="40" height="40" x="240" y="321.09000000000003" xmlns="http://www.w3.org/2000/svg"><path d="M29.7 28.3L26 24.6c1.2-1.5 2-3.5 2-5.6 0-5-4-9-9-9s-9 4-9 9 4 9 9 9c2.1 0 4.1-.7 5.6-2l3.7 3.7c.2.2.5.3.7.3s.5-.1.7-.3c.4-.4.4-1 0-1.4zM19 26c-3.9 0-7-3.1-7-7s3.1-7 7-7 7 3.1 7 7-3.1 7-7 7z"/></svg><view id="server" viewBox="280 321.09000000000003 40 40"/><svg viewBox="0 0 40 40" width="40" height="40" x="280" y="321.09000000000003" xmlns="http://www.w3.org/2000/svg"><path d="M16 11h-4c-.6 0-1 .4-1 1s.4 1 1 1h4c.6 0 1-.4 1-1s-.4-1-1-1zm8 0c-.6 0-1 .4-1 1s.5 1 1 1c.6 0 1-.4 1-1s-.4-1-1-1zm5 1c0-.6-.4-1-1-1s-1 .4-1 1 .5 1 1 1c.6 0 1-.4 1-1z"/><path d="M28 25c2.8 0 5-2.2 5-5 0-1.6-.8-3.1-2-4 1.2-.9 2-2.4 2-4 0-2.8-2.2-5-5-5H12c-2.8 0-5 2.2-5 5 0 1.6.8 3.1 2 4-1.2.9-2 2.4-2 4 0 2.8 2.2 5 5 5h7v2.2c-.8.3-1.5 1-1.8 1.8H8c-.6 0-1 .4-1 1s.4 1 1 1h9.2c.4 1.2 1.5 2 2.8 2s2.4-.8 2.8-2H32c.6 0 1-.4 1-1s-.4-1-1-1h-9.2c-.3-.8-1-1.5-1.8-1.8V25h7zm-8 6c-.6 0-1-.4-1-1s.4-1 1-1 1 .4 1 1-.4 1-1 1zM9 12c0-1.7 1.3-3 3-3h16c1.7 0 3 1.3 3 3s-1.3 3-3 3H12c-1.7 0-3-1.3-3-3zm0 8c0-1.7 1.3-3 3-3h16c1.7 0 3 1.3 3 3s-1.3 3-3 3H12c-1.7 0-3-1.3-3-3z"/><path d="M16 19h-4c-.6 0-1 .4-1 1s.4 1 1 1h4c.6 0 1-.4 1-1s-.4-1-1-1zm8 2c.6 0 1-.4 1-1s-.4-1-1-1-1 .4-1 1 .5 1 1 1zm4 0c.6 0 1-.4 1-1s-.4-1-1-1-1 .4-1 1 .5 1 1 1z"/></svg><view id="settings" viewBox="320 321.09000000000003 40 40"/><svg viewBox="0 0 40 40" width="40" height="40" x="320" y="321.09000000000003" xmlns="http://www.w3.org/2000/svg"><path d="M30 18.2h-1.5c-.2-1-.6-2-1.2-2.9l1.1-1.1c.4-.4.4-1 0-1.4l-1.2-1.2c-.4-.4-1-.4-1.4 0l-1.1 1.1c-.9-.6-1.8-1-2.9-1.2V10c0-.6-.4-1-1-1h-1.7c-.6 0-1 .4-1 1v1.5c-1 .2-2 .6-2.9 1.2l-1.1-1.1c-.4-.4-1-.4-1.4 0l-1.2 1.2c-.4.4-.4 1 0 1.4l1.1 1.1c-.6.9-1 1.8-1.2 2.9H10c-.6 0-1 .4-1 1v1.7c0 .6.4 1 1 1h1.5c.2 1 .6 2 1.2 2.9l-1.1 1.1c-.4.4-.4 1 0 1.4l1.2 1.2c.4.4 1 .4 1.4 0l1.1-1.1c.9.6 1.8 1 2.9 1.2V30c0 .6.4 1 1 1h1.7c.6 0 1-.4 1-1v-1.5c1-.2 2-.6 2.9-1.2l1.1 1.1c.4.4 1 .4 1.4 0l1.2-1.2c.4-.4.4-1 0-1.4l-1.1-1.1c.6-.9 1-1.8 1.2-2.9H30c.6 0 1-.4 1-1v-1.7c0-.5-.4-.9-1-.9zm-10 6.2c-2.4 0-4.4-2-4.4-4.4s2-4.4 4.4-4.4 4.4 2 4.4 4.4-2 4.4-4.4 4.4z"/></svg><view id="sliders" viewBox="361.09000000000003 0 40 40"/><svg viewBox="0 0 40 40" width="40" height="40" x="361.09000000000003" xmlns="http://www.w3.org/2000/svg"><path d="M13 11.2V10c0-.6-.4-1-1-1s-1 .4-1 1v1.2c-1.4.4-2.5 1.8-2.5 3.3s1.1 2.9 2.5 3.3V30c0 .6.4 1 1 1s1-.4 1-1V17.8c1.4-.4 2.5-1.8 2.5-3.3s-1.1-2.9-2.5-3.3zM12 16c-.8 0-1.5-.7-1.5-1.5S11.2 13 12 13s1.5.7 1.5 1.5S12.8 16 12 16zm19.5 2.5c0-1.6-1.1-2.9-2.5-3.3V10c0-.6-.4-1-1-1s-1 .4-1 1v5.2c-1.4.4-2.5 1.8-2.5 3.3s1.1 2.9 2.5 3.3V30c0 .6.4 1 1 1s1-.4 1-1v-8.2c1.4-.4 2.5-1.7 2.5-3.3zM28 20c-.8 0-1.5-.7-1.5-1.5S27.2 17 28 17s1.5.7 1.5 1.5S28.8 20 28 20zm-7 1.2V10c0-.6-.4-1-1-1s-1 .4-1 1v11.2c-1.4.4-2.5 1.8-2.5 3.3s1.1 2.9 2.5 3.3V30c0 .6.4 1 1 1s1-.4 1-1v-2.2c1.4-.4 2.5-1.8 2.5-3.3s-1.1-2.9-2.5-3.3zM20 26c-.8 0-1.5-.7-1.5-1.5S19.2 23 20 23s1.5.7 1.5 1.5S20.8 26 20 26z"/></svg><view id="sort" viewBox="361.09000000000003 40 40 40"/><svg viewBox="0 0 40 40" width="40" height="40" x="361.09000000000003" y="40" xmlns="http://www.w3.org/2000/svg"><path d="M23.5 15c.83 0 1.02-.48.44-1.06l-2.88-2.88c-.58-.58-1.54-.58-2.12 0l-2.88 2.88c-.58.58-.38 1.06.44 1.06h7zm0 10c.83 0 1.02.48.44 1.06l-2.88 2.88c-.58.58-1.54.58-2.12 0l-2.88-2.88c-.58-.58-.38-1.06.44-1.06h7z"/></svg><view id="sort-normal" viewBox="361.09000000000003 80 40 40"/><svg viewBox="0 0 40 40" width="40" height="40" x="361.09000000000003" y="80" xmlns="http://www.w3.org/2000/svg"><path d="M23.5 25c.83 0 1.02.48.44 1.06l-2.88 2.88c-.58.58-1.54.58-2.12 0l-2.88-2.88c-.58-.58-.38-1.06.44-1.06h7z"/></svg><view id="sort-reverse" viewBox="361.09000000000003 120 40 40"/><svg viewBox="0 0 40 40" width="40" height="40" x="361.09000000000003" y="120" xmlns="http://www.w3.org/2000/svg"><path d="M23.5 15c.83 0 1.02-.48.44-1.06l-2.88-2.88c-.58-.58-1.54-.58-2.12 0l-2.88 2.88c-.58.58-.38 1.06.44 1.06h7z"/></svg><view id="spanner" viewBox="361.09000000000003 160 40 40"/><svg viewBox="0 0 40 40" width="40" height="40" x="361.09000000000003" y="160" xmlns="http://www.w3.org/2000/svg"><path d="M31.7 13.2c-.4-.4-1.1-.4-1.5 0l-.5.5c-.3.3-.7.4-1 .3l-1.5-.4c-.4-.1-.7-.4-.8-.8l-.4-1.5c-.1-.4 0-.8.3-1l.5-.5c.4-.4.4-1.1 0-1.5-.5-.5-1.3-.4-1.7.2-1 1.5-1.3 3.2-.8 4.6L13.1 24.3c-1.4-.4-3.1-.2-4.6.8-.6.4-.7 1.2-.2 1.7.4.4 1.1.4 1.5 0l.5-.5c.3-.3.7-.4 1-.3l1.5.4c.4.1.7.4.8.8l.4 1.5c.1.4 0 .8-.3 1l-.5.5c-.4.4-.4 1.1 0 1.5.5.5 1.3.4 1.7-.2 1-1.5 1.3-3.2.8-4.6l11.2-11.2c1.4.4 3.1.2 4.6-.8.6-.4.7-1.2.2-1.7z"/></svg><view id="speaker" viewBox="361.09000000000003 200 40 40"/><svg viewBox="0 0 40 40" width="40" height="40" x="361.09000000000003" y="200" xmlns="http://www.w3.org/2000/svg"><path d="M20.5 11c-.9-.5-1.8-.6-2.6-.3-.7.3-1.3.8-1.8 1.6l-8.6 7.4c-1.2.6-1.6 2.6-.9 4.8.3 1 .8 1.9 1.4 2.5.6.6 1.2.9 1.9.9h1l1.5 4.7c.1.4.5.7.9.7l3.2.1c.3 0 .6-.1.8-.4.2-.3.2-.6.1-.9l-1.3-4 4.6.1c.5.2 1 .4 1.5.4.3 0 .6-.1.9-.2 2.6-.9 3.5-5.5 2-10.4-.8-3.4-2.7-6-4.6-7zm1 11.6c-.9.3-2-.9-2.6-2.6-.6-1.7-.3-3.4.6-3.6s2 .9 2.6 2.6.3 3.3-.6 3.6zM8.4 21.5c.1 0 .2-.1.3-.2l6.4-5.5c-.1 1.6.1 3.4.7 5.3s1.5 3.6 2.5 4.9l-3.4-.1h-.1l-3.2-.1H9.9c-.2 0-.9-.6-1.4-2-.4-1.3-.2-2.2-.1-2.3zm6.7 9.7H14l-1.1-3.4H14l1.1 3.4z"/><path d="M23.3 8.2c-.4-.4-1.1-.3-1.4.1-.4.4-.3 1.1.1 1.4 1.8 1.5 3.5 4.4 4.5 7.6.9 3.1 1.2 6.3.6 8.7-.1.6.2 1.1.8 1.2h.2c.5 0 .9-.3 1-.8.7-2.7.4-6.3-.6-9.8-1.1-3.5-3-6.6-5.2-8.4zm9.5 7.4c-1.1-3.7-3-6.9-5.2-8.6-.4-.4-1.1-.3-1.4.1-.4.4-.3 1.1.1 1.4 1.8 1.5 3.5 4.4 4.5 7.6.9 3.2 1.2 6.3.6 8.7-.1.6.2 1.1.8 1.2h.2c.5 0 .9-.3 1-.8.7-2.5.4-6.1-.6-9.6z"/></svg><view id="star" viewBox="361.09000000000003 240 40 40"/><svg viewBox="0 0 40 40" width="40" height="40" x="361.09000000000003" y="240" xmlns="http://www.w3.org/2000/svg"><path d="M30 17.6c-.1-.4-.4-.6-.8-.7l-5.7-.8-2.6-5.2c-.3-.7-1.5-.7-1.8 0l-2.6 5.2-5.7.9c-.4.1-.7.3-.8.7-.1.4 0 .8.3 1l4.2 4.1-1 5.7c-.1.4.1.8.4 1 .3.2.7.3 1.1.1l5.1-2.7 5.1 2.7c.1.1.3.1.5.1s.4-.1.6-.2c.3-.2.5-.6.4-1l-1-5.7 4.2-4.1c.1-.3.2-.7.1-1.1z"/></svg><view id="star-empty" viewBox="361.09000000000003 280 40 40"/><svg viewBox="0 0 40 40" width="40" height="40" x="361.09000000000003" y="280" xmlns="http://www.w3.org/2000/svg"><path d="M30 17.6c-.1-.4-.4-.6-.8-.7l-5.7-.8-2.6-5.2c-.3-.7-1.5-.7-1.8 0l-2.6 5.2-5.7.8c-.4.1-.7.3-.8.7-.1.4 0 .8.3 1l4.2 4.1-1 5.7c-.1.4.1.8.4 1 .2.1.4.2.6.2.2 0 .3 0 .5-.1l5.1-2.7 5.1 2.7c.3.2.7.1 1.1-.1.3-.2.5-.6.4-1l-1-5.7 4.2-4c.1-.4.2-.8.1-1.1zm-6.2 4c-.2.2-.3.6-.3.9l.7 4.2-3.8-2c-.3-.2-.6-.2-.9 0l-3.8 2 .7-4.2c.1-.3-.1-.7-.3-.9l-3.1-3 4.3-.6c.3 0 .6-.3.8-.5l1.9-3.9 1.9 3.8c.1.3.4.5.8.5l4.3.6-3.2 3.1z"/></svg><view id="stop" viewBox="361.09000000000003 320 40 40"/><svg viewBox="0 0 40 40" width="40" height="40" x="361.09000000000003" y="320" xmlns="http://www.w3.org/2000/svg"><path d="M28 11H12c-.6 0-1 .4-1 1v16c0 .6.4 1 1 1h16c.6 0 1-.4 1-1V12c0-.6-.4-1-1-1zm-1 16H13V13h14v14z"/></svg><view id="store" viewBox="0 361.09000000000003 40 40"/><svg viewBox="0 0 40 40" width="40" height="40" y="361.09000000000003" xmlns="http://www.w3.org/2000/svg"><path d="M32 31h-1.1V19.9c1.2-.9 2-2.3 2-3.9 0-.1 0-.2-.1-.3 0-.1-.1-.2-.2-.3l-8-8c-.1-.1-.2-.2-.3-.2-.1 0-.2-.1-.3-.1h-8c-.1 0-.2 0-.3.1-.1 0-.2.1-.3.2l-8 8c-.2.2-.3.4-.3.6 0 1.6.8 3 2 3.9V31H8c-.6 0-1 .4-1 1s.4 1 1 1h24c.6 0 1-.4 1-1s-.4-1-1-1zm-2.9-3.9h-4.2v-7.3c.8.7 1.9 1.1 3.1 1.1.4 0 .7-.1 1.1-.1v6.3zm-1.1-8c-1.4 0-2.5-.9-2.9-2.2H31c-.5 1.3-1.6 2.2-3 2.2zM23.6 8.9l6.2 6.2h-5.2l-3.1-6.2h2.1zm-1.1 6.2h-5l2.5-5 2.5 5zm.4 1.8c-.4 1.3-1.5 2.2-2.9 2.2s-2.5-.9-2.9-2.2h5.8zm-6.5-8h2.1l-3.1 6.2h-5.2l6.2-6.2zm-1.5 8c-.4 1.3-1.6 2.2-2.9 2.2-1.4 0-2.5-.9-2.9-2.2h5.8zm-4 3.9c.4.1.7.1 1.1.1 1.7 0 3.1-.8 4-2.1.9 1.3 2.3 2.1 4 2.1 1.2 0 2.2-.4 3.1-1.1V28c0 .5.4.9.9.9h5.1V31h-8.2v-7c0-.5-.4-.9-.9-.9h-5.3c-.5 0-.9.4-.9.9v7H11V20.8zM15.6 31v-6.1h3.5V31h-3.5z"/></svg><view id="template" viewBox="40 361.09000000000003 40 40"/><svg viewBox="0 0 40 40" width="40" height="40" x="40" y="361.09000000000003" xmlns="http://www.w3.org/2000/svg"><path d="M31.2 14h-17v-4c0-.6-.4-1-1-1h-2c-1.9 0-3.5 1.6-3.5 3.5v15c0 1.9 1.6 3.5 3.5 3.5h20c.6 0 1-.4 1-1V15c0-.6-.4-1-1-1zm-20 10c-.5 0-1 .1-1.5.4V12.5c0-.8.7-1.5 1.5-1.5h1v13h-1zm-1.4 3.5c0-.8.7-1.5 1.5-1.5h2c.6 0 1-.4 1-1v-9h16v13h-19c-.9 0-1.5-.7-1.5-1.5z"/><path d="M17.2 26.5h10.4c.1-.1.1-.1.1-.2v-.2c0-.1-.1-.1-.1-.2l-1.7-1.2-5-3.5-3.3-2.3h-.5l-.1.1v.1l-.1.1v7.2c-.1-.1.1.1.3.1zm.6-1V20l4.2 2.9 3.7 2.6h-7.9z"/><circle cx="19.2" cy="19" r=".5"/><circle cx="21.2" cy="19" r=".5"/><circle cx="25.2" cy="19" r=".5"/><circle cx="23.2" cy="19" r=".5"/><path d="M26.9 19.3c0 .1.1.1.2.1h.4c.1 0 .1-.1.2-.1 0 0 .1-.1.1-.2v-.4c0-.1-.1-.1-.1-.2s-.1-.1-.2-.1c-.1-.1-.3-.1-.4 0-.1 0-.1.1-.2.1 0 0-.1.1-.1.2v.4c0 .1 0 .2.1.2z"/><circle cx="27.2" cy="24.2" r=".5"/><circle cx="27.2" cy="22.5" r=".5"/><circle cx="27.2" cy="20.8" r=".5"/></svg><view id="terminal" viewBox="80 361.09000000000003 40 40"/><svg viewBox="0 0 40 40" width="40" height="40" x="80" y="361.09000000000003" xmlns="http://www.w3.org/2000/svg"><path d="M19 20.8c0-.1 0-.1-.1-.2v-.1s0-.1-.1-.1c0-.1-.1-.1-.1-.2 0 0-.1-.1-.2-.1l-.1-.1-6-3c-.5-.2-1.1 0-1.3.4s0 1.1.4 1.3l4.2 2.1-4.2 2.1c-.5.2-.7.8-.4 1.3.2.4.5.6.9.6.1 0 .3 0 .4-.1l6-3c.1-.1.2-.1.3-.2v-.1s.1-.1.1-.2v-.1c0-.1 0-.1.1-.2v-.2c.1.2.1.2.1.1zm9 4.2h-8c-.6 0-1 .4-1 1s.4 1 1 1h8c.6 0 1-.4 1-1s-.4-1-1-1z"/><path d="M33 10c0-.6-.4-1-1-1H8c-.6 0-1 .4-1 1v20c0 .5.4 1 1 1h24c.5 0 1-.4 1-1V10zM9 29V15h22v14H9z"/></svg><view id="tick" viewBox="120 361.09000000000003 40 40"/><svg viewBox="0 0 40 40" width="40" height="40" x="120" y="361.09000000000003" xmlns="http://www.w3.org/2000/svg"><path d="M29.6 11.2c-.4-.3-1-.3-1.4.1l-11 11.4-5.7-3.6c-.4-.3-1-.2-1.3.2-.3.4-.3.9 0 1.3l6.4 8c.2.2.5.4.8.4.3 0 .6-.2.8-.4l11.6-16c.3-.4.2-1-.2-1.4z"/></svg><view id="transfer" viewBox="160 361.09000000000003 40 40"/><svg viewBox="0 0 40 40" width="40" height="40" x="160" y="361.09000000000003" xmlns="http://www.w3.org/2000/svg"><path d="M301.4 264.2l5.7-5.6 2.8 2.8v-8.5h-8.5l2.8 2.9-8.4 8.4 2.8 2.9h-8.5v-8.5l2.8 2.8 5.7-5.6M18.6 28.1h-8.5c-.6 0-1-.4-1-1v-8.5c0-.4.2-.8.6-.9.4-.2.8-.1 1.1.2l2.1 2.1 5-4.9c.4-.4 1-.4 1.4 0s.4 1 0 1.4l-5.7 5.7c-.4.4-1 .4-1.4 0L11.1 21v5.1h5.1L15.1 25c-.4-.4-.4-1 0-1.4l7.8-7.8-2.1-2.1c-.3-.3-.4-.7-.2-1.1s.5-.6.9-.6H30c.6 0 1 .4 1 1v8.5c0 .4-.2.8-.6.9-.4.2-.8.1-1.1-.2L27.1 20l-5 4.9c-.4.4-1 .4-1.4 0s-.4-1 0-1.4l5.7-5.7c.4-.4 1-.4 1.4 0l1.1 1.1v-5.1h-5.1l1.1 1.1c.4.4.4 1 0 1.4l-7.8 7.8 2.1 2.1c.3.3.4.7.2 1.1s-.4.8-.8.8z"/></svg><view id="translate" viewBox="200 361.09000000000003 40 40"/><svg viewBox="0 0 40 40" width="40" height="40" x="200" y="361.09000000000003" xmlns="http://www.w3.org/2000/svg"><path d="M11.2 8L8 18h3l.6-2.1h2.9L15 18h3L14.8 8h-3.6zm.8 5.9l.5-2 .4-1.6.4 1.6.5 2H12zm17.8 14.8c0-.8-.1-1.8-.1-2.9.8-.1 1.6-.2 2.1-.3l-.1-1.5c-.6.2-1.2.3-2 .4v-2.1c.2 0 .3-.1.3-.3h-1.9c0 .9 0 1.7.1 2.6h-2.5v1.3h2.6c0 .8.1 1.8.1 2.4-.2 0-.5-.1-.7-.1-1.2 0-2.3.7-2.3 1.9 0 1.1.9 1.9 2.3 1.9 1 0 2.1-.2 2.2-1.7.5.3 1 .7 1.4 1.1L32 30c-.6-.5-1.4-1-2.2-1.3zm-2.1 2.1c-.6 0-1.1-.2-1.1-.7 0-.5.5-.7 1.1-.7.3 0 .6.1.8.1v.3c0 .6-.3 1-.8 1zm-4.2-1.5v-1c0-1.3 0-3.1.7-5.7.2 0 .3-.1.3-.2l-1.8-.3c-.3 1.8-.6 3.6-.6 5.3 0 1.6.2 3.6.5 4.4l1.4-.1c0-.2-.1-.3-.1-.5s0-.4.1-.6c.2-.7.7-1.6 1-2.2l-.8-1c-.2.4-.6 1.4-.7 1.9zM17 27.5h-3.5v-4.8H15c.3 0 .5-.2.7-.4.1-.3 0-.6-.2-.8l-2-2c-.3-.3-.7-.3-1 0l-2 2c-.2.2-.3.5-.2.8.1.3.4.4.7.4h1.5V28c0 .3.2.5.5.5h4c.3 0 .5-.2.5-.5s-.2-.5-.5-.5zm9.5-12.2H25c-.3 0-.5.2-.7.4s0 .6.2.8l2 2c.1.1.3.2.5.2s.4-.1.5-.2l2-2c.2-.2.3-.5.2-.8s-.4-.4-.7-.4h-1.5V12c0-.3-.2-.5-.5-.5h-7c-.3 0-.5.2-.5.5s.2.5.5.5h6.5v2.8z"/></svg><view id="upload" viewBox="240 361.09000000000003 40 40"/><svg viewBox="0 0 40 40" width="40" height="40" x="240" y="361.09000000000003" xmlns="http://www.w3.org/2000/svg"><path d="M26.8 12.3c-1.5-1.8-3.7-2.8-6.1-2.8-3.6 0-6.7 2.4-7.7 5.7-.2 0-.5-.1-.8-.1-2.9 0-5.2 2.3-5.2 5.2 0 2.9 2.3 5.2 5.2 5.2H16c.6 0 1-.4 1-1s-.4-1-1-1h-3.8C10.4 23.5 9 22 9 20.3c0-1.8 1.5-3.2 3.2-3.2.4 0 .8.1 1.1.2.3.1.6.1.9-.1.3-.2.4-.4.5-.7v-.2c.6-2.8 3.1-4.8 5.9-4.8 1.9 0 3.7.9 4.8 2.4.2.3.5.4.8.4 2.6 0 4.6 2.1 4.6 4.6s-2.1 4.6-4.6 4.6H24c-.6 0-1 .4-1 1s.4 1 1 1h2.4c3.7 0 6.6-3 6.6-6.6 0-3.5-2.7-6.3-6.2-6.6z"/><path d="M24 21.2c.3 0 .5-.2.7-.4.1-.3 0-.6-.2-.8l-4-4c-.3-.3-.7-.3-1 0l-4 4c-.2.2-.3.5-.2.8.1.3.4.4.7.4h3v8.3c0 .6.4 1 1 1s1-.4 1-1v-8.3h3z"/></svg><view id="user" viewBox="280 361.09000000000003 40 40"/><svg viewBox="0 0 40 40" width="40" height="40" x="280" y="361.09000000000003" xmlns="http://www.w3.org/2000/svg"><path d="M24.8 22.1C26.2 20.8 27 19 27 17c0-3.9-3.1-7-7-7s-7 3.1-7 7c0 2 .8 3.8 2.2 5.1-2.4.4-4.2 2.4-4.2 4.9v2c0 .6.4 1 1 1h16c.6 0 1-.4 1-1v-2c0-2.5-1.8-4.5-4.2-4.9zM15 17c0-2.8 2.2-5 5-5s5 2.2 5 5-2.2 5-5 5-5-2.2-5-5zm12 11H13v-1c0-1.7 1.3-3 3-3h8c1.7 0 3 1.3 3 3v1z"/></svg><view id="view" viewBox="320 361.09000000000003 40 40"/><svg viewBox="0 0 40 40" width="40" height="40" x="320" y="361.09000000000003" xmlns="http://www.w3.org/2000/svg"><path d="M32.793 19.391C32.562 19.089 27.039 12 20 12c-7.04 0-12.562 7.089-12.793 7.391a1.002 1.002 0 0 0 0 1.218C7.438 20.911 12.96 28 20 28c7.039 0 12.562-7.089 12.793-7.391a1 1 0 0 0 0-1.218zM20 26c-4.938 0-9.252-4.365-10.695-6.001C10.745 18.363 15.048 14 20 14c4.938 0 9.252 4.365 10.695 6.001C29.255 21.638 24.951 26 20 26z"/><path d="M20 16c-2.206 0-4 1.794-4 4s1.794 4 4 4 4-1.794 4-4-1.794-4-4-4zm0 6c-1.103 0-2-.897-2-2s.897-2 2-2 2 .897 2 2-.897 2-2 2z"/></svg><view id="wallet" viewBox="360 361.09000000000003 40 40"/><svg viewBox="0 0 40 40" width="40" height="40" x="360" y="361.09000000000003" xmlns="http://www.w3.org/2000/svg"><path d="M32 15h-1v-5a1 1 0 0 0-1-1H8a1 1 0 0 0-1 1v20a1 1 0 0 0 1 1h22a1 1 0 0 0 1-1v-5h1a1 1 0 0 0 1-1v-8a1 1 0 0 0-1-1zm-3 14H9V11h20v4h-5c-2.757 0-5 2.243-5 5s2.243 5 5 5h5v4zm2-6h-7c-1.654 0-3-1.346-3-3s1.346-3 3-3h7v6z"/><path d="M23 20a1 1 0 0 0 1 1h4a1 1 0 1 0 0-2h-4a1 1 0 0 0-1 1z"/></svg><view id="web" viewBox="401.09000000000003 0 40 40"/><svg viewBox="0 0 40 40" width="40" height="40" x="401.09000000000003" xmlns="http://www.w3.org/2000/svg"><path d="M20 7C12.8 7 7 12.8 7 20s5.8 13 13 13 13-5.8 13-13S27.2 7 20 7zm10 8.5h-5.8c-.3-2.5-.9-4.8-1.8-6.2 3.4.7 6.2 3.1 7.6 6.2zm1 4.5c0 1.2-.2 2.4-.6 3.5h-6.1c.1-1.1.2-2.3.2-3.5s-.1-2.4-.2-3.5h6.1c.4 1.1.6 2.3.6 3.5zM20 31c-.3 0-.7 0-1-.1-.9-1-1.8-3.3-2.2-6.4h6.4c-.4 3.2-1.3 5.5-2.2 6.4-.3.1-.7.1-1 .1zm-3.3-7.5c-.1-1.1-.2-2.3-.2-3.5s.1-2.4.2-3.5h6.7c.1 1.1.2 2.3.2 3.5s-.1 2.4-.2 3.5h-6.7zM9 20c0-1.2.2-2.4.6-3.5h6.1c-.1 1.1-.2 2.3-.2 3.5s.1 2.4.2 3.5H9.6C9.2 22.4 9 21.2 9 20zM20 9c.3 0 .7 0 1 .1.9 1 1.8 3.3 2.2 6.4h-6.4c.4-3.2 1.3-5.5 2.2-6.4.3-.1.7-.1 1-.1zm-2.4.3c-.9 1.5-1.5 3.7-1.8 6.2H10c1.4-3.1 4.2-5.5 7.6-6.2zM10 24.5h5.8c.3 2.5.9 4.8 1.8 6.2-3.4-.7-6.2-3.1-7.6-6.2zm12.4 6.2c.9-1.5 1.5-3.7 1.8-6.2H30c-1.4 3.1-4.2 5.5-7.6 6.2z"/></svg></svg>
