<svg xmlns="http://www.w3.org/2000/svg" viewBox="0 0 60 60"><linearGradient id="a" gradientUnits="userSpaceOnUse" x1="21.807" y1="55.659" x2="47.685" y2="22.467" gradientTransform="matrix(1 0 0 -1 0 62)"><stop offset="0" stop-color="#9c4ba4"/><stop offset="1" stop-color="#693a91"/></linearGradient><path d="M51.4 12.2H33.8c-.3 0-.6.1-.8.3l-6.8 6.7-8.8-8.9c-.1-.1-.3-.2-.4-.2-.1-.1-.3-.1-.4-.1h-.1c-.1 0-.3 0-.4.1-.1 0-.2.1-.3.2l-8 8c-.3.3-.4.8-.2 1.2s.6.7 1 .7h6.8v10.3c0 .1 0 .3.1.4v.1c0 .1.1.2.2.2v.1l8.9 8.7 9.7 9.7c.2.2.5.3.8.3.1 0 .3 0 .4-.1.4-.2.7-.6.7-1V30.1l2.8-3 13.2-13c.3-.3.4-.8.3-1.2-.2-.4-.6-.7-1.1-.7zM17.7 27.7V13.9l6.9 6.9-6.9 6.9zm-6.3-9.8l4.1-4.1v4.1h-4.1zm15.8 21.5l.8-.5 6-4v11.3l-6.8-6.8zm10.3-13.8l-2 2.2-1 1.1-1.2 1-7.8 7.8-7.3-7.1 8.8-8.9 7.3-7.1h14.4l-11.2 11z" fill="url(#a)"/></svg>